<?xml version="1.0" encoding="utf-8"?>
<!-- Generator: Adobe Illustrator 25.0.1, SVG Export Plug-In . SVG Version: 6.00 Build 0)  -->
<svg version="1.1" id="b368505d-30f3-440a-8098-d31d5babc981"
	 xmlns="http://www.w3.org/2000/svg" xmlns:xlink="http://www.w3.org/1999/xlink" x="0px" y="0px" viewBox="0 0 534.1 397.5"
	 enable-background="new 0 0 534.1 397.5" xml:space="preserve">
<circle id="a334b1ca-40a8-46da-b3aa-ee84e59d0f08" fill="#FFD9CB" cx="267.1" cy="179.9" r="179.9"/>
<path id="mouth" fill="#FFFFFF" d="M317,216c3.2,4.3-18.2,37.6-48.7,39.2C234.7,257,209,219.4,212,215c2.5-3.6,23.3,16.8,56.3,15.6
	C297.4,229.6,314.5,212.5,317,216z"/>
<circle id="left-eye" fill="#383F4D" cx="193.5" cy="144.4" r="17.7"/>
<circle id="right-eye" fill="#383F4D" cx="340.6" cy="144.4" r="17.7"/>
<circle id="left-pupil" fill="#FFFFFF" cx="198.9" cy="139" r="5.4"/>
<circle id="right-pupil" fill="#FFFFFF" cx="346.1" cy="139" r="5.5"/>
<path fill="#004D40" d="M373.4,106.3h-64c-9,0-16.3,7.3-16.3,16.4v43.6c0,9,7.3,16.3,16.3,16.4h64c9,0,16.3-7.3,16.3-16.4v-43.6
	C389.7,113.6,382.4,106.3,373.4,106.3z M376.1,155.3c0,9-7.3,16.3-16.3,16.4H323c-9,0-16.3-7.3-16.3-16.4v-21.8
	c0-9,7.3-16.3,16.3-16.4h36.8c9,0,16.3,7.3,16.3,16.3L376.1,155.3L376.1,155.3z"/>
<path fill="#004D40" d="M144.4,122.6v43.6c0,9,7.3,16.3,16.4,16.4h64c9,0,16.3-7.3,16.3-16.4v-43.6c0-9-7.3-16.3-16.3-16.4h-64
	C151.8,106.3,144.5,113.6,144.4,122.6z M158.1,133.5c0-9,7.3-16.3,16.4-16.4h36.8c9,0,16.3,7.3,16.3,16.4v21.8
	c0,9-7.3,16.3-16.3,16.4h-36.8c-9,0-16.3-7.3-16.3-16.3L158.1,133.5L158.1,133.5z"/>
<path fill="#004D40" d="M290.4,149.9c-13.8-9-31.5-9-45.3,0c-3.8,2.4-8.9,2.9-12,0.1l-3.8-3.9c-3-2.8-1.3-9.5,4.7-13.4
	c20.5-13.4,47-13.4,67.6,0c6,3.9,7.7,10.6,4.7,13.4l-3.8,3.8C299.3,152.8,294.2,152.3,290.4,149.9z"/>
<g id="Layer_2_1_" display="none">
</g>
<path id="chin" opacity="0.2" fill="#BF655B" enable-background="new    " d="M249,312.4c1.4-5.5,7.8-8,13.5-8.8
	c8.4-1.2,18.4,0,23,7.1"/>
<path id="right-ear" fill="#FFD9CB" d="M445.3,145.8h10.1c6.6,0,12,5.4,12,12v57.8c0,6.6-5.4,12-12,12h-10.1c-6.6,0-12-5.4-12-12
	v-57.8C433.3,151.2,438.7,145.8,445.3,145.8z"/>
<path id="left-ear" fill="#FFD9CB" d="M78.8,145.8h10.1c6.6,0,12,5.4,12,12v57.8c0,6.6-5.4,12-12,12H78.8c-6.6,0-12-5.4-12-12v-57.8
	C66.8,151.2,72.1,145.8,78.8,145.8z"/>
<path id="throat" fill="#FFD9CB" d="M213.8,397.5l106.4-0.1v-59c0-5.6-7.3-10.1-16.3-10.1h-73.6c-9,0-16.3,4.5-16.3,10.1v59"/>
<path opacity="0.2" fill="#BF655B" enable-background="new    " d="M205.8,43.1c12-2.7,23.6,6.4,35.9,6.6c9.6,0.2,18.5-4.9,28-6.1
	s18.8,1.5,28.2,2.9s19.8,1.1,27.1-5"/>
<path opacity="0.2" fill="#BF655B" enable-background="new    " d="M205.8,59.4c12-2.7,23.6,6.4,35.9,6.6c9.6,0.2,18.5-4.9,28-6.1
	s18.8,1.5,28.2,2.9s19.8,1.1,27.1-5"/>
<path fill="#FFD9CB" d="M213.8,440.2"/>
<path display="none" fill="#E5C1B1" d="M107.2,200.7L58.3,397.3h79.6c-10.7-51.5,26.7-140.4,26.7-140.4L107.2,200.7z"/>
<path display="none" fill="#E5C1B1" d="M149.9,149.2c0,0,32.8-30.1,63.5-26.1c15.4,2-47.5,50.8-47.5,50.8s64.9-54.8,78.2-37.4
	c12,15.4-59.5,65.5-59.5,65.5s66.9-54.2,64.2-30.8c-2,25.4-52.8,85.6-83.6,92.3c-44.1,8.7-78.9-19.4-55.5-117
	C121.9,97.1,133.2,151.9,149.9,149.2"/>
<path display="none" fill="#E5C1B1" d="M427.9,200.7l48.8,196.6h-79.6c10.7-51.5-26.7-140.4-26.7-140.4L427.9,200.7z"/>
<path display="none" fill="#E5C1B1" d="M385.1,149.2c0,0-32.8-30.1-63.5-26.1c-15.4,2,47.5,50.8,47.5,50.8s-64.9-54.8-78.2-37.4
	c-12,15.4,59.5,65.5,59.5,65.5s-66.9-54.2-64.9-30.8c2.7,25.4,53.5,85.6,84.2,92.3c44.1,8.7,78.9-19.4,55.5-117
	C413.2,97.1,401.9,151.9,385.1,149.2"/>
<path display="none" fill="#FFD9CB" d="M93.3,171.6L37.2,397.5h91.4c-12.3-59.2,30.7-161.4,30.7-161.4L93.3,171.6z"/>
<path display="none" fill="#FFD9CB" d="M442.1,171.6l56.1,225.9h-91.4c12.3-59.2-30.7-161.4-30.7-161.4L442.1,171.6z"/>
<path display="none" fill="#FFD9CB" d="M393,112.5c0,0-37.6-34.6-73-30c-17.7,2.3,54.6,58.4,54.6,58.4s-74.5-63-89.9-43
	c-13.8,17.7,68.4,75.3,68.4,75.3s-76.8-62.2-74.5-35.3c3.1,29.2,61.5,98.4,96.8,106c50.7,10,90.7-22.3,63.8-134.5
	C425.2,52.5,412.2,115.6,393,112.5"/>
<path fill="#FFD9CB" d="M318.7,448.5c50.4-26.2,107.8-76.3,107.8-76.3l-14.8-30.8c-58.8,33.3-110.7,55-110.7,55"/>
<path opacity="0.5" fill="#EFCAA6" enable-background="new    " d="M318.7,448.5c50.4-26.2,107.8-76.3,107.8-76.3l-3.2-6.8
	c-6.9,5.6-13.8,11.2-20.8,16.7c-15.8,12.7-31.7,27.8-51.5,33.9"/>
<path fill="#FFD9CB" d="M357.6,238.7c2.1,5.2,6.6,9.4,10.1,13.5c6.1,7.1,11,14.9,14.3,23.7c5.9,15.5,3,32.4,7.5,48.2
	c2.9,10.3,8,16.5,15.5,21.7c0.7,3.2,1.5,6.3,2.5,9.3c11.4,24.3,36.6,41.7,64.3,36c14.1-3,36.1-11.7,36.5-29.2
	c0.1-3.8-2.5-9.5-0.7-12.9c3-5.8,4.3-16.5-1-21.5c-0.5-0.5-0.4-1.1,0-1.6c1.1-1.4,1.9-3,2.5-4.7c0.9-5.6,0.5-11.5-0.7-17.2
	c-0.2-0.3-0.3-0.5-0.5-0.8c0-0.5,0-0.9,0.1-1.4c-0.4-1.4-0.8-2.8-1.2-4.1c-2.6-4.6-4.9-9.3-8.1-13.5c-2-2.7-4.4-5-6.5-7.7
	c-0.2-0.2-0.3-0.5-0.4-0.7c-0.1,0-0.2-0.1-0.3-0.1c-0.1,0-0.1,0.1-0.1,0.2c0-0.1-0.1-0.2-0.1-0.2c-1.1-4.6-10.3-18.5-20.1-19.9
	c-5.8-0.8-11.8,0.5-17.5,1.6c-10.5,2.1-20.6,7-31.4,7.8c-3.8,0.3-7.9-0.7-9.9-4.3c-5.4-9.6-16.1-30-25.8-36.7
	c-7-4.8-18.8-8.4-25.9-1.4C355.6,227.8,355,232.2,357.6,238.7"/>
<path fill="#EFCAA6" d="M357.6,238.7c2.1,5.2,6.6,9.4,10.1,13.5c6.1,7.1,11,14.9,14.3,23.7c5.9,15.5,3,32.4,7.5,48.2
	c2.9,10.3,8,16.5,15.5,21.7c0.5,2.1,1,4.2,1.6,6.3c-0.3-1.8-0.5-3.7-0.3-5.6c-0.2,0-0.3-0.1-0.4-0.3c-4.4-4.4-8.6-7.4-11.6-13
	c-2.4-4.5-3.7-9.5-4.3-14.5c-1.3-11.9,0.8-24-1.2-35.8c-2.4-14.1-12-25-21.2-35.4c-5.4-6.1-9.9-12.9-10.2-20.5"/>
<path fill="#C39368" d="M509.2,320.1c0.7-5.3,0.3-10.9-0.9-16.2c-0.1,2.4-0.1,4.8-0.4,7.2c0.5,5.4,0,10.4-2.6,15.2
	c-0.1,0.2-0.2,0.4-0.3,0.6c-1.5,2.6-3.6,5.1-6.5,7.6c-6.9,6-16.2,9.1-24.7,11.9c-9.2,3-18.7,4.8-28.4,5.5c-10,0.8-26-8.1-18.3-21.4
	c6.3,0.5,13.2-2.6,18.6-5c9.7-4.4,19.5-8.6,28.8-13.8c16.2-9.2,19.3-19.5,16.7-37.1c-0.2-1-1.2,0.2-1.1,0.8c0.7,11.2,1,22.3-9.2,30
	c-6.4,4.8-13.5,8.3-20.7,11.6c-14.5,6.7-32,18.5-45.6,3.9c-13.2-14.2,5.1-25.2,14-29.6c5.8-2.8,12-4.6,17.8-7.6
	c7.2-3.7,5.4-11.3,6.5-18.3c0.1-0.4-0.3-0.3-0.4,0c-1.6,6.4-1.7,14.3-9.1,18c-4.7,2.4-9.9,3.8-14.7,5.9c-6.2,2.8-11.7,6.5-15.9,11.9
	c-7.9,10-1.3,22.1,8.4,27.6c1.4,0.8,2.9,1.3,4.4,1.6c-6.6,3.4-0.9,16.2,4.4,19.3c2,1.2,3.4,3,5.7,3.8c-1.8,7.4-1.2,14.9,5.5,19.6
	c1.9,1.3,4.1,2.1,6.4,2.6c8,33.8,74.3,5.4,59.5-24.2c-0.2-0.5-0.6-0.5-0.9-0.3c5.2-7.1,6.7-15.6,0.4-24.9
	C507.7,324.3,508.6,322.3,509.2,320.1z M448.4,375.8c11.9,2,27.5-5.2,36.6-9c7.4-3.1,15.2-8.1,20.3-14.4c-0.1,0.4-0.2,0.8,0,1.1
	C517.3,378.2,461.1,404.9,448.4,375.8z M481.3,366.4c-15.2,6.5-49.2,15.4-45-12.8c10,3,26-2.1,33.5-4.3c13.5-3.8,28.1-10.5,35.5-21
	C518.4,347.2,495.9,360.2,481.3,366.4z"/>
<path opacity="0.5" fill="#F2D1B8" enable-background="new    " d="M359.8,225.7c7.6-6.7,19.6,1.3,24.9,7.2c8.2,9,12,19.4,17,30.3
	c3.3,7.2,7.8,12.6,16.6,11.6c6.1-0.7,12.1-2.5,18.1-0.6c1.1,0.3,1.1,1.9,0,2.2c-10.7,3.2-21.1,11.1-27,20.5c-3.1,5-6,11.5-4.4,17.5
	c1.8,6.5,6.7,11.3,8.6,17.7c2.3,7.7-2.1,15.6-10.9,11.8c-0.1-0.1-0.3-0.1-0.4-0.2c0.9,0.7,1.8,1.4,2.7,2c0.7,3.2,1.5,6.3,2.5,9.3
	c11.4,24.3,36.6,41.7,64.3,36c14.1-3,36.1-11.7,36.5-29.2c0.1-3.8-2.5-9.5-0.7-12.9c3-5.8,4.3-16.5-1-21.5c-0.5-0.5-0.4-1.1,0-1.6
	c1.1-1.4,1.9-3,2.5-4.7c0.9-5.6,0.5-11.5-0.7-17.2c-0.2-0.3-0.3-0.5-0.5-0.8c0-0.5,0-0.9,0.1-1.4c-0.4-1.4-0.8-2.8-1.2-4.1
	c-2.6-4.6-4.9-9.3-8.1-13.5c-2-2.7-4.4-5-6.5-7.7c-0.2-0.2-0.3-0.5-0.4-0.7c-0.1,0-0.2-0.1-0.3-0.1c-0.1,0-0.1,0.1-0.1,0.2
	c0-0.1-0.1-0.2-0.1-0.2c-1.1-4.6-10.3-18.5-20.1-19.9c-5.8-0.8-11.8,0.5-17.5,1.6c-10.5,2.1-20.6,7-31.4,7.8
	c-3.8,0.3-7.9-0.7-9.9-4.3c-5.4-9.6-16.1-30-25.8-36.7c-7-4.8-18.8-8.4-25.9-1.4c-2.7,2.6-4,5.1-4.3,7.9"/>
<path fill="#FFD9CB" d="M215.8,452.4C165.4,426.2,108,376.1,108,376.1l14.8-30.8c58.8,33.3,110.7,55,110.7,55"/>
<path fill="#FFD9CB" d="M176.9,242.6c-2.1,5.2-6.6,9.4-10.1,13.5c-6.1,7.1-11,14.9-14.3,23.7c-5.9,15.5-3,32.4-7.5,48.2
	c-2.9,10.3-8,16.5-15.5,21.7c-0.7,3.2-1.5,6.3-2.5,9.3c-11.4,24.3-36.6,41.7-64.3,36c-14.1-3-36.1-11.7-36.5-29.2
	c-0.1-3.8,2.5-9.5,0.7-12.9c-3-5.8-4.3-16.5,1-21.5c0.5-0.5,0.4-1.1,0-1.6c-1.1-1.4-1.9-3-2.5-4.7c-0.9-5.6-0.5-11.5,0.7-17.2
	c0.2-0.3,0.3-0.5,0.5-0.8c0-0.5,0-0.9-0.1-1.4c0.4-1.4,0.8-2.8,1.2-4.1c2.6-4.6,4.9-9.3,8.1-13.5c2-2.7,4.4-5,6.5-7.7
	c0.2-0.2,0.3-0.5,0.4-0.7c0.1,0,0.2-0.1,0.3-0.1s0.1,0.1,0.1,0.2c0-0.1,0.1-0.2,0.1-0.2c1.1-4.6,10.3-18.5,20.1-19.9
	c5.8-0.8,11.8,0.5,17.5,1.6c10.5,2.1,20.6,7,31.4,7.8c3.8,0.3,7.9-0.7,9.9-4.3c5.4-9.6,16.1-30,25.8-36.7c7-4.8,18.8-8.4,25.9-1.4
	C179,231.6,179.5,236.1,176.9,242.6"/>
<path fill="#C39368" d="M27.9,330.1c-6.4,9.2-4.8,17.8,0.4,24.9c-0.3-0.2-0.6-0.1-0.9,0.3c-14.8,29.6,51.5,58,59.5,24.2
	c2.3-0.5,4.5-1.3,6.4-2.6c6.7-4.6,7.4-12.1,5.5-19.6c2.3-0.8,3.7-2.6,5.7-3.8c5.2-3.2,10.9-15.9,4.4-19.3c1.5-0.3,3-0.8,4.4-1.6
	c9.7-5.4,16.3-17.5,8.4-27.6c-4.2-5.3-9.7-9.1-15.9-11.9c-4.8-2.2-10-3.6-14.7-5.9c-7.4-3.7-7.5-11.6-9.1-18c-0.1-0.3-0.4-0.4-0.4,0
	c1.1,7.1-0.7,14.6,6.5,18.3c5.7,3,12,4.7,17.8,7.6c8.9,4.4,27.3,15.4,14,29.6c-13.6,14.6-31.1,2.8-45.6-3.9
	c-7.2-3.3-14.3-6.8-20.7-11.6c-10.2-7.7-9.9-18.8-9.2-30c0-0.6-1-1.8-1.1-0.8c-2.7,17.6,0.4,27.9,16.7,37.1
	c9.3,5.2,19.1,9.4,28.8,13.8c5.4,2.4,12.2,5.5,18.6,5c7.7,13.4-8.3,22.2-18.3,21.4c-9.7-0.8-19.2-2.5-28.4-5.5
	c-8.5-2.8-17.8-6-24.7-11.9c-2.9-2.5-5-5-6.5-7.6c-0.1-0.2-0.2-0.4-0.3-0.6c-2.6-4.8-3.1-9.7-2.6-15.2c-0.3-2.4-0.3-4.8-0.4-7.2
	c-1.2,5.4-1.6,10.9-0.9,16.2C26,326.1,26.8,328.2,27.9,330.1z M29.3,357.3c0.1-0.3,0.1-0.7,0-1.1c5.1,6.3,12.9,11.3,20.3,14.4
	c9.1,3.8,24.7,11.1,36.6,9C73.4,408.8,17.2,382.1,29.3,357.3z M29.3,332.2c7.4,10.4,21.9,17.1,35.5,21c7.5,2.1,23.4,7.2,33.5,4.3
	c4.1,28.2-29.8,19.3-45,12.8C38.6,364,16.1,351.1,29.3,332.2z"/>
<path opacity="0.5" fill="#F2D1B8" enable-background="new    " d="M178.3,234.6c-0.3-2.7-1.7-5.3-4.3-7.9c-7.1-7-18.9-3.4-25.9,1.4
	c-9.8,6.7-20.4,27.1-25.8,36.7c-2,3.6-6.2,4.6-9.9,4.3c-10.8-0.8-20.9-5.7-31.4-7.8c-5.7-1.2-11.7-2.4-17.5-1.6
	c-9.8,1.4-19,15.3-20.1,19.9c0,0.1,0,0.2-0.1,0.2c0-0.1-0.1-0.2-0.1-0.2c-0.1,0-0.2,0.1-0.3,0.1c-0.1,0.2-0.2,0.5-0.4,0.7
	c-2,2.7-4.4,5-6.5,7.7c-3.2,4.2-5.5,8.9-8.1,13.5c-0.5,1.3-0.9,2.7-1.2,4.1c0,0.5,0,0.9,0.1,1.4c-0.2,0.3-0.3,0.5-0.5,0.8
	c-1.2,5.7-1.6,11.6-0.7,17.2c0.6,1.7,1.4,3.3,2.5,4.7c0.4,0.5,0.5,1.2,0,1.6c-5.3,5.1-4,15.8-1,21.5c1.8,3.4-0.8,9.1-0.7,12.9
	c0.4,17.5,22.4,26.2,36.5,29.2c27.7,5.8,52.9-11.7,64.3-36c1-3.1,1.8-6.2,2.5-9.3c0.9-0.7,1.8-1.3,2.7-2c-0.1,0.1-0.3,0.1-0.4,0.2
	c-8.8,3.8-13.2-4.1-10.9-11.8c1.9-6.3,6.8-11.2,8.6-17.7c1.6-6-1.3-12.6-4.4-17.5c-5.9-9.5-16.3-17.3-27-20.5
	c-1.1-0.3-1.1-1.9,0-2.2c6.1-1.9,12-0.1,18.1,0.6c8.8,1,13.3-4.4,16.6-11.6c5-10.8,8.8-21.3,17-30.3c5.3-5.8,17.4-13.9,24.9-7.2"/>
<path fill="#EFCAA6" d="M174.4,234.9c-0.3,7.6-4.8,14.4-10.2,20.5c-9.2,10.4-18.8,21.3-21.2,35.4c-2,11.8,0.1,23.9-1.2,35.8
	c-0.6,5-1.9,10-4.3,14.5c-3,5.6-7.2,8.6-11.6,13c-0.1,0.2-0.2,0.3-0.4,0.3c0.2,1.9,0,3.8-0.3,5.6c0.6-2.1,1.1-4.2,1.6-6.3
	c7.5-5.2,12.6-11.4,15.5-21.7c4.5-15.8,1.6-32.7,7.5-48.2c3.3-8.8,8.2-16.6,14.3-23.7c3.5-4.1,8-8.3,10.1-13.5"/>
</svg>
