<?xml version="1.0" encoding="utf-8"?>
<!-- Generator: Adobe Illustrator 25.0.1, SVG Export Plug-In . SVG Version: 6.00 Build 0)  -->
<svg version="1.1" id="b368505d-30f3-440a-8098-d31d5babc981"
	 xmlns="http://www.w3.org/2000/svg" xmlns:xlink="http://www.w3.org/1999/xlink" x="0px" y="0px" viewBox="0 0 534.1 397.5"
	 enable-background="new 0 0 534.1 397.5" xml:space="preserve">
<circle id="a334b1ca-40a8-46da-b3aa-ee84e59d0f08" fill="#FFD9CB" cx="267.1" cy="179.9" r="179.9"/>
<path id="mouth" fill="#FFFFFF" d="M300.2,236.1c1.5,5.9-14.7,18.7-31.9,19.1c-17.5,0.4-34.4-12.1-33.1-18.1
	c1.4-6.1,21.7-6.3,33.1-6.5C280.2,230.6,298.7,230.4,300.2,236.1z"/>
<circle id="left-eye" fill="#383F4D" cx="193.5" cy="144.4" r="17.7"/>
<circle id="right-eye" fill="#383F4D" cx="340.6" cy="144.4" r="17.7"/>
<circle id="left-pupil" fill="#FFFFFF" cx="198.9" cy="139" r="5.4"/>
<circle id="right-pupil" fill="#FFFFFF" cx="346.1" cy="139" r="5.5"/>
<path fill="#004D40" d="M373.4,106.3h-64c-9,0-16.3,7.3-16.3,16.4v43.6c0,9,7.3,16.3,16.3,16.4h64c9,0,16.3-7.3,16.3-16.4v-43.6
	C389.7,113.6,382.4,106.3,373.4,106.3z M376.1,155.3c0,9-7.3,16.3-16.3,16.4H323c-9,0-16.3-7.3-16.3-16.4v-21.8
	c0-9,7.3-16.3,16.3-16.4h36.8c9,0,16.3,7.3,16.3,16.3V155.3z"/>
<path fill="#004D40" d="M144.4,122.6v43.6c0,9,7.3,16.3,16.4,16.4h64c9,0,16.3-7.3,16.3-16.4v-43.6c0-9-7.3-16.3-16.3-16.4h-64
	C151.8,106.3,144.5,113.6,144.4,122.6z M158.1,133.5c0-9,7.3-16.3,16.4-16.4h36.8c9,0,16.3,7.3,16.3,16.4v21.8
	c0,9-7.3,16.3-16.3,16.4h-36.8c-9,0-16.3-7.3-16.3-16.3L158.1,133.5L158.1,133.5z"/>
<path fill="#004D40" d="M290.4,149.9c-13.8-9-31.5-9-45.3,0c-3.8,2.4-8.9,2.9-12,0.1l-3.8-3.9c-3-2.8-1.3-9.5,4.7-13.4
	c20.5-13.4,47-13.4,67.6,0c6,3.9,7.7,10.6,4.7,13.4l-3.8,3.8C299.3,152.8,294.2,152.3,290.4,149.9z"/>
<g id="Layer_2_1_" display="none">
</g>
<path id="chin" opacity="0.2" fill="#BF655B" enable-background="new    " d="M249,312.4c1.4-5.5,7.8-8,13.5-8.8
	c8.4-1.2,18.4,0,23,7.1"/>
<path id="right-ear" fill="#FFD9CB" d="M445.3,145.8h10.1c6.6,0,12,5.4,12,12v57.8c0,6.6-5.4,12-12,12h-10.1c-6.6,0-12-5.4-12-12
	v-57.8C433.3,151.2,438.7,145.8,445.3,145.8z"/>
<path id="left-ear" fill="#FFD9CB" d="M78.8,145.8h10.1c6.6,0,12,5.4,12,12v57.8c0,6.6-5.4,12-12,12H78.8c-6.6,0-12-5.4-12-12v-57.8
	C66.8,151.2,72.1,145.8,78.8,145.8z"/>
<path id="throat" fill="#FFD9CB" d="M213.8,397.5l106.4-0.1v-59c0-5.6-7.3-10.1-16.3-10.1h-73.6c-9,0-16.3,4.5-16.3,10.1v59"/>
<path opacity="0.2" fill="#BF655B" enable-background="new    " d="M205.8,43.1c12-2.7,23.6,6.4,35.9,6.6c9.6,0.2,18.5-4.9,28-6.1
	s18.8,1.5,28.2,2.9s19.8,1.1,27.1-5"/>
<path opacity="0.2" fill="#BF655B" enable-background="new    " d="M205.8,59.4c12-2.7,23.6,6.4,35.9,6.6c9.6,0.2,18.5-4.9,28-6.1
	s18.8,1.5,28.2,2.9s19.8,1.1,27.1-5"/>
<path display="none" fill="#89664C" d="M93.3,171.6L37.2,397.5h91.4c-12.3-59.2,30.7-161.4,30.7-161.4L93.3,171.6z"/>
<path display="none" fill="#FFD6BB" d="M142.5,112.5c0,0,37.6-34.6,73-30c17.7,2.3-54.6,58.4-54.6,58.4s74.5-63,89.9-43
	c13.8,17.7-68.4,75.3-68.4,75.3s76.8-62.2,73.8-35.3c-2.3,29.2-60.7,98.4-96,106c-50.7,10-90.7-22.3-63.8-134.5
	C110.2,52.5,123.3,115.6,142.5,112.5"/>
<path display="none" fill="#89664C" d="M442.1,171.6l56.1,225.9h-91.4c12.3-59.2-30.7-161.4-30.7-161.4L442.1,171.6z"/>
<path display="none" fill="#FFD6BB" d="M393,112.5c0,0-37.6-34.6-73-30c-17.7,2.3,54.6,58.4,54.6,58.4s-74.5-63-89.9-43
	c-13.8,17.7,68.4,75.3,68.4,75.3s-76.8-62.2-74.5-35.3c3.1,29.2,61.5,98.4,96.8,106c50.7,10,90.7-22.3,63.8-134.5
	C425.2,52.5,412.2,115.6,393,112.5"/>
<path id="mouth_1_" fill="#00A384" d="M524,297c-21.7,38.3-112.4,35.9-141,0c-9.6-12-13.9-30-35-42c-13.7-7.8-28.1-9.5-27.8-12.1
	c0.3-2.6,14.7-1.6,27.8-2.9c35.7-3.4,44.3-21.4,74-30c6.1-1.8,53.6-15.5,84,12C526.5,240.5,536.3,275.3,524,297z"/>
<g>
	<path fill="#FFFFFF" d="M396.4,258.7c-0.6,0-0.9-0.3-0.9-0.9v-7.7c0-0.6,0.3-0.9,0.9-0.9h2.6c1.6,0,2.8,0.4,3.7,1.2
		c0.9,0.8,1.3,2,1.3,3.5c0,1.5-0.4,2.7-1.3,3.5c-0.9,0.8-2.1,1.2-3.7,1.2H396.4z M397.2,257.3h1.7c2.2,0,3.3-1.1,3.3-3.3
		c0-2.2-1.1-3.3-3.3-3.3h-1.7V257.3z"/>
	<path fill="#FFFFFF" d="M408.9,258.8c-0.7,0-1.4-0.1-1.9-0.4c-0.5-0.3-1-0.7-1.2-1.2c-0.3-0.5-0.4-1.1-0.4-1.8
		c0-0.7,0.1-1.3,0.4-1.8c0.3-0.5,0.7-0.9,1.2-1.2c0.5-0.3,1.1-0.4,1.7-0.4c0.9,0,1.7,0.3,2.2,0.9c0.5,0.6,0.8,1.4,0.8,2.4
		c0,0.3-0.2,0.5-0.6,0.5h-4.1c0.1,1.2,0.8,1.8,2,1.8c0.2,0,0.5,0,0.8-0.1c0.3-0.1,0.6-0.2,0.8-0.3c0.2-0.1,0.4-0.2,0.6-0.1
		c0.2,0,0.3,0.1,0.3,0.3c0.1,0.1,0.1,0.3,0,0.5s-0.2,0.3-0.4,0.5c-0.3,0.2-0.7,0.3-1.1,0.4C409.6,258.8,409.2,258.8,408.9,258.8z
		 M408.6,253.1c-0.5,0-0.9,0.2-1.2,0.5c-0.3,0.3-0.5,0.7-0.6,1.2h3.3c0-0.5-0.2-1-0.5-1.3C409.5,253.3,409.1,253.1,408.6,253.1z"/>
	<path fill="#FFFFFF" d="M415.9,258.8c-1.7,0-2.6-0.9-2.6-2.6v-2.9h-0.7c-0.5,0-0.7-0.2-0.7-0.6s0.2-0.6,0.7-0.6h0.7v-1.2
		c0-0.6,0.3-0.8,0.9-0.8c0.6,0,0.8,0.3,0.8,0.8v1.2h1.4c0.5,0,0.7,0.2,0.7,0.6s-0.2,0.6-0.7,0.6H415v2.8c0,0.4,0.1,0.8,0.3,1
		c0.2,0.2,0.5,0.3,0.9,0.3c0.2,0,0.3,0,0.4,0c0.1,0,0.2,0,0.3-0.1c0.1,0,0.2,0,0.3,0.1c0.1,0.1,0.1,0.2,0.1,0.5c0,0.2,0,0.3-0.1,0.5
		s-0.2,0.2-0.3,0.3c-0.1,0-0.3,0.1-0.5,0.1C416.2,258.8,416.1,258.8,415.9,258.8z"/>
	<path fill="#FFFFFF" d="M420.7,258.8c-1.7,0-2.6-0.9-2.6-2.6v-2.9h-0.7c-0.5,0-0.7-0.2-0.7-0.6s0.2-0.6,0.7-0.6h0.7v-1.2
		c0-0.6,0.3-0.8,0.9-0.8c0.6,0,0.8,0.3,0.8,0.8v1.2h1.4c0.5,0,0.7,0.2,0.7,0.6s-0.2,0.6-0.7,0.6h-1.4v2.8c0,0.4,0.1,0.8,0.3,1
		c0.2,0.2,0.5,0.3,0.9,0.3c0.2,0,0.3,0,0.4,0c0.1,0,0.2,0,0.3-0.1c0.1,0,0.2,0,0.3,0.1c0.1,0.1,0.1,0.2,0.1,0.5c0,0.2,0,0.3-0.1,0.5
		s-0.2,0.2-0.3,0.3c-0.1,0-0.3,0.1-0.5,0.1C421,258.8,420.9,258.8,420.7,258.8z"/>
	<path fill="#FFFFFF" d="M425,258.8c-0.5,0-0.9-0.1-1.3-0.3c-0.4-0.2-0.7-0.4-0.9-0.7c-0.2-0.3-0.3-0.7-0.3-1.1
		c0-0.5,0.1-0.9,0.4-1.2c0.3-0.3,0.7-0.5,1.2-0.6c0.6-0.1,1.3-0.2,2.3-0.2h0.5v-0.3c0-0.5-0.1-0.8-0.3-1s-0.5-0.3-1-0.3
		c-0.3,0-0.5,0-0.8,0.1c-0.3,0.1-0.6,0.2-1,0.3c-0.2,0.1-0.4,0.1-0.5,0c-0.1-0.1-0.2-0.2-0.3-0.4c0-0.2,0-0.3,0-0.5s0.2-0.3,0.4-0.4
		c0.4-0.2,0.8-0.3,1.2-0.4c0.4-0.1,0.7-0.1,1-0.1c1,0,1.7,0.2,2.1,0.7s0.7,1.1,0.7,2.1v3.2c0,0.6-0.3,0.9-0.8,0.9
		c-0.5,0-0.8-0.3-0.8-0.9v-0.3c-0.2,0.4-0.4,0.7-0.7,0.9C425.9,258.7,425.5,258.8,425,258.8z M425.4,257.7c0.4,0,0.8-0.2,1.1-0.5
		c0.3-0.3,0.4-0.7,0.4-1.2v-0.3h-0.5c-0.8,0-1.4,0.1-1.8,0.2c-0.3,0.1-0.5,0.4-0.5,0.7c0,0.3,0.1,0.5,0.3,0.7
		C424.7,257.6,425,257.7,425.4,257.7z"/>
	<path fill="#FFFFFF" d="M436.1,258.8c-0.5,0-0.9-0.1-1.3-0.3c-0.4-0.2-0.7-0.4-0.9-0.7c-0.2-0.3-0.3-0.7-0.3-1.1
		c0-0.5,0.1-0.9,0.4-1.2c0.3-0.3,0.7-0.5,1.2-0.6c0.6-0.1,1.3-0.2,2.3-0.2h0.5v-0.3c0-0.5-0.1-0.8-0.3-1s-0.5-0.3-1-0.3
		c-0.3,0-0.5,0-0.8,0.1c-0.3,0.1-0.6,0.2-1,0.3c-0.2,0.1-0.4,0.1-0.5,0c-0.1-0.1-0.2-0.2-0.3-0.4c0-0.2,0-0.3,0-0.5s0.2-0.3,0.4-0.4
		c0.4-0.2,0.8-0.3,1.2-0.4c0.4-0.1,0.7-0.1,1-0.1c1,0,1.7,0.2,2.1,0.7s0.7,1.1,0.7,2.1v3.2c0,0.6-0.3,0.9-0.8,0.9
		c-0.5,0-0.8-0.3-0.8-0.9v-0.3c-0.2,0.4-0.4,0.7-0.7,0.9C436.9,258.7,436.5,258.8,436.1,258.8z M435.5,250.7c-0.3,0-0.5-0.1-0.6-0.2
		c-0.1-0.1-0.2-0.4-0.2-0.6c0-0.3,0.1-0.5,0.2-0.6c0.1-0.1,0.4-0.2,0.6-0.2c0.6,0,0.8,0.3,0.8,0.8
		C436.4,250.4,436.1,250.7,435.5,250.7z M436.4,257.7c0.4,0,0.8-0.2,1.1-0.5c0.3-0.3,0.4-0.7,0.4-1.2v-0.3h-0.5
		c-0.8,0-1.4,0.1-1.8,0.2c-0.3,0.1-0.5,0.4-0.5,0.7c0,0.3,0.1,0.5,0.3,0.7C435.8,257.6,436.1,257.7,436.4,257.7z M438.1,250.7
		c-0.6,0-0.8-0.3-0.8-0.8c0-0.5,0.3-0.8,0.8-0.8c0.5,0,0.8,0.3,0.8,0.8C438.9,250.4,438.6,250.7,438.1,250.7z"/>
	<path fill="#FFFFFF" d="M442.2,258.8c-0.6,0-0.9-0.3-0.9-0.9v-5.1c0-0.6,0.3-0.9,0.8-0.9s0.8,0.3,0.8,0.9v0.4
		c0.3-0.8,1-1.2,2.1-1.3c0.4,0,0.6,0.2,0.6,0.7c0,0.5-0.2,0.7-0.7,0.8l-0.3,0c-1.1,0.1-1.7,0.7-1.7,1.7v2.8
		C443,258.5,442.7,258.8,442.2,258.8z"/>
	<path fill="#FFFFFF" d="M453.5,258.8c-0.7,0-1.4-0.1-1.9-0.4c-0.5-0.3-1-0.7-1.2-1.2c-0.3-0.5-0.4-1.1-0.4-1.8
		c0-0.7,0.1-1.3,0.4-1.8c0.3-0.5,0.7-0.9,1.2-1.2c0.5-0.3,1.1-0.4,1.7-0.4c0.9,0,1.7,0.3,2.2,0.9c0.5,0.6,0.8,1.4,0.8,2.4
		c0,0.3-0.2,0.5-0.6,0.5h-4.1c0.1,1.2,0.8,1.8,2,1.8c0.2,0,0.5,0,0.8-0.1c0.3-0.1,0.6-0.2,0.8-0.3c0.2-0.1,0.4-0.2,0.6-0.1
		c0.2,0,0.3,0.1,0.3,0.3c0.1,0.1,0.1,0.3,0,0.5s-0.2,0.3-0.4,0.5c-0.3,0.2-0.7,0.3-1.1,0.4C454.2,258.8,453.8,258.8,453.5,258.8z
		 M453.3,253.1c-0.5,0-0.9,0.2-1.2,0.5c-0.3,0.3-0.5,0.7-0.6,1.2h3.3c0-0.5-0.2-1-0.5-1.3C454.1,253.3,453.7,253.1,453.3,253.1z"/>
	<path fill="#FFFFFF" d="M458.4,258.8c-0.6,0-0.8-0.3-0.8-0.9v-5.1c0-0.6,0.3-0.9,0.8-0.9s0.8,0.3,0.8,0.9v0.3
		c0.2-0.4,0.5-0.7,0.9-0.9s0.8-0.3,1.3-0.3c1.6,0,2.3,0.9,2.3,2.7v3.3c0,0.6-0.3,0.9-0.8,0.9c-0.6,0-0.9-0.3-0.9-0.9v-3.2
		c0-0.5-0.1-0.9-0.3-1.1c-0.2-0.2-0.5-0.4-0.9-0.4c-0.5,0-0.9,0.2-1.2,0.5c-0.3,0.3-0.4,0.7-0.4,1.2v3
		C459.2,258.5,459,258.8,458.4,258.8z"/>
	<path fill="#FFFFFF" d="M469.3,258.8c-0.5,0-0.9-0.1-1.3-0.3c-0.4-0.2-0.7-0.5-0.9-0.9v0.3c0,0.6-0.3,0.9-0.8,0.9
		c-0.6,0-0.8-0.3-0.8-0.9v-8c0-0.6,0.3-0.9,0.8-0.9c0.6,0,0.9,0.3,0.9,0.9v3.1c0.2-0.3,0.5-0.6,0.9-0.8c0.4-0.2,0.8-0.3,1.3-0.3
		c0.6,0,1.1,0.1,1.5,0.4c0.4,0.3,0.8,0.7,1,1.2c0.2,0.5,0.4,1.1,0.4,1.8c0,0.7-0.1,1.3-0.4,1.8c-0.2,0.5-0.6,0.9-1,1.2
		C470.3,258.7,469.8,258.8,469.3,258.8z M468.8,257.6c0.5,0,0.9-0.2,1.2-0.5c0.3-0.4,0.5-0.9,0.5-1.6c0-0.7-0.2-1.3-0.5-1.6
		c-0.3-0.4-0.7-0.5-1.2-0.5s-0.9,0.2-1.2,0.5s-0.5,0.9-0.5,1.6c0,0.7,0.2,1.2,0.5,1.6C467.9,257.4,468.3,257.6,468.8,257.6z"/>
	<path fill="#FFFFFF" d="M475.7,258.8c-0.5,0-0.9-0.1-1.3-0.3c-0.4-0.2-0.7-0.4-0.9-0.7c-0.2-0.3-0.3-0.7-0.3-1.1
		c0-0.5,0.1-0.9,0.4-1.2c0.3-0.3,0.7-0.5,1.2-0.6c0.6-0.1,1.3-0.2,2.3-0.2h0.5v-0.3c0-0.5-0.1-0.8-0.3-1s-0.5-0.3-1-0.3
		c-0.3,0-0.5,0-0.8,0.1c-0.3,0.1-0.6,0.2-1,0.3c-0.2,0.1-0.4,0.1-0.5,0c-0.1-0.1-0.2-0.2-0.3-0.4c0-0.2,0-0.3,0-0.5s0.2-0.3,0.4-0.4
		c0.4-0.2,0.8-0.3,1.2-0.4c0.4-0.1,0.7-0.1,1-0.1c1,0,1.7,0.2,2.1,0.7s0.7,1.1,0.7,2.1v3.2c0,0.6-0.3,0.9-0.8,0.9
		c-0.5,0-0.8-0.3-0.8-0.9v-0.3c-0.2,0.4-0.4,0.7-0.7,0.9C476.6,258.7,476.2,258.8,475.7,258.8z M476.1,257.7c0.4,0,0.8-0.2,1.1-0.5
		c0.3-0.3,0.4-0.7,0.4-1.2v-0.3h-0.5c-0.8,0-1.4,0.1-1.8,0.2c-0.3,0.1-0.5,0.4-0.5,0.7c0,0.3,0.1,0.5,0.3,0.7
		C475.4,257.6,475.7,257.7,476.1,257.7z"/>
	<path fill="#FFFFFF" d="M481.8,258.8c-0.6,0-0.9-0.3-0.9-0.9v-5.1c0-0.6,0.3-0.9,0.8-0.9s0.8,0.3,0.8,0.9v0.4
		c0.3-0.8,1-1.2,2.1-1.3c0.4,0,0.6,0.2,0.6,0.7c0,0.5-0.2,0.7-0.7,0.8l-0.3,0c-1.1,0.1-1.7,0.7-1.7,1.7v2.8
		C482.6,258.5,482.4,258.8,481.8,258.8z"/>
	<path fill="#FFFFFF" d="M489.6,258.8c-1.7,0-2.6-0.9-2.6-2.6v-2.9h-0.7c-0.5,0-0.7-0.2-0.7-0.6s0.2-0.6,0.7-0.6h0.7v-1.2
		c0-0.6,0.3-0.8,0.9-0.8c0.6,0,0.8,0.3,0.8,0.8v1.2h1.4c0.5,0,0.7,0.2,0.7,0.6s-0.2,0.6-0.7,0.6h-1.4v2.8c0,0.4,0.1,0.8,0.3,1
		c0.2,0.2,0.5,0.3,0.9,0.3c0.2,0,0.3,0,0.4,0c0.1,0,0.2,0,0.3-0.1c0.1,0,0.2,0,0.3,0.1c0.1,0.1,0.1,0.2,0.1,0.5c0,0.2,0,0.3-0.1,0.5
		s-0.2,0.2-0.3,0.3c-0.1,0-0.3,0.1-0.5,0.1C489.9,258.8,489.8,258.8,489.6,258.8z"/>
	<path fill="#FFFFFF" d="M396.6,275c-0.6,0-0.9-0.3-0.9-0.9v-4.6h-0.6c-0.5,0-0.7-0.2-0.7-0.6s0.2-0.6,0.7-0.6h0.6v0
		c0-0.9,0.2-1.6,0.7-2.1c0.5-0.5,1.1-0.7,2-0.8l0.5,0c0.2,0,0.4,0,0.5,0.1c0.1,0.1,0.2,0.3,0.2,0.4c0,0.2,0,0.3-0.1,0.4
		s-0.2,0.2-0.4,0.2l-0.2,0c-0.5,0-0.9,0.2-1.1,0.4c-0.2,0.2-0.4,0.6-0.4,1v0.3h1.1c0.4,0,0.7,0.2,0.7,0.6s-0.2,0.6-0.7,0.6h-1.1v4.6
		C397.5,274.7,397.2,275,396.6,275z"/>
	<path fill="#FFFFFF" d="M403.1,275c-0.7,0-1.3-0.1-1.8-0.4c-0.5-0.3-0.9-0.7-1.2-1.2c-0.3-0.5-0.4-1.1-0.4-1.8s0.1-1.3,0.4-1.8
		c0.3-0.5,0.7-0.9,1.2-1.2c0.5-0.3,1.1-0.4,1.8-0.4s1.3,0.1,1.8,0.4c0.5,0.3,0.9,0.7,1.2,1.2c0.3,0.5,0.4,1.1,0.4,1.8
		s-0.1,1.3-0.4,1.8c-0.3,0.5-0.7,0.9-1.2,1.2C404.3,274.9,403.7,275,403.1,275z M401.8,266.9c-0.3,0-0.5-0.1-0.6-0.2
		c-0.1-0.1-0.2-0.4-0.2-0.6c0-0.3,0.1-0.5,0.2-0.6c0.1-0.1,0.4-0.2,0.6-0.2c0.6,0,0.8,0.3,0.8,0.8
		C402.6,266.6,402.4,266.9,401.8,266.9z M403.1,273.8c0.5,0,0.9-0.2,1.2-0.5c0.3-0.4,0.5-0.9,0.5-1.6c0-0.7-0.2-1.3-0.5-1.6
		s-0.7-0.5-1.2-0.5s-0.9,0.2-1.2,0.5s-0.5,0.9-0.5,1.6c0,0.7,0.2,1.2,0.5,1.6C402.2,273.6,402.6,273.8,403.1,273.8z M404.3,266.9
		c-0.6,0-0.8-0.3-0.8-0.8c0-0.5,0.3-0.8,0.8-0.8c0.5,0,0.8,0.3,0.8,0.8C405.2,266.6,404.9,266.9,404.3,266.9z"/>
	<path fill="#FFFFFF" d="M408.7,275c-0.6,0-0.9-0.3-0.9-0.9v-5.1c0-0.6,0.3-0.9,0.8-0.9s0.8,0.3,0.8,0.9v0.4c0.3-0.8,1-1.2,2.1-1.3
		c0.4,0,0.6,0.2,0.6,0.7c0,0.5-0.2,0.7-0.7,0.8l-0.3,0c-1.1,0.1-1.7,0.7-1.7,1.7v2.8C409.5,274.7,409.3,275,408.7,275z"/>
	<path fill="#FFFFFF" d="M419,275c-0.5,0-0.9-0.1-1.3-0.3c-0.4-0.2-0.7-0.4-0.9-0.7c-0.2-0.3-0.3-0.7-0.3-1.1c0-0.5,0.1-0.9,0.4-1.2
		c0.3-0.3,0.7-0.5,1.2-0.6c0.6-0.1,1.3-0.2,2.3-0.2h0.5v-0.3c0-0.5-0.1-0.8-0.3-1s-0.5-0.3-1-0.3c-0.3,0-0.5,0-0.8,0.1
		c-0.3,0.1-0.6,0.2-1,0.3c-0.2,0.1-0.4,0.1-0.5,0c-0.1-0.1-0.2-0.2-0.3-0.4c0-0.2,0-0.3,0-0.5s0.2-0.3,0.4-0.4
		c0.4-0.2,0.8-0.3,1.2-0.4c0.4-0.1,0.7-0.1,1-0.1c1,0,1.7,0.2,2.1,0.7s0.7,1.1,0.7,2.1v3.2c0,0.6-0.3,0.9-0.8,0.9
		c-0.5,0-0.8-0.3-0.8-0.9v-0.3c-0.2,0.4-0.4,0.7-0.7,0.9C419.8,274.9,419.4,275,419,275z M419.3,273.9c0.4,0,0.8-0.2,1.1-0.5
		c0.3-0.3,0.4-0.7,0.4-1.2V272h-0.5c-0.8,0-1.4,0.1-1.8,0.2c-0.3,0.1-0.5,0.4-0.5,0.7c0,0.3,0.1,0.5,0.3,0.7
		C418.6,273.8,418.9,273.9,419.3,273.9z"/>
	<path fill="#FFFFFF" d="M426.7,275c-0.6,0-1.1-0.1-1.5-0.4c-0.4-0.3-0.8-0.7-1-1.2c-0.2-0.5-0.4-1.1-0.4-1.8c0-0.7,0.1-1.3,0.4-1.8
		c0.2-0.5,0.6-0.9,1-1.2c0.4-0.3,0.9-0.4,1.5-0.4c0.5,0,0.9,0.1,1.3,0.3c0.4,0.2,0.7,0.5,0.8,0.8v-3.2c0-0.6,0.3-0.9,0.8-0.9
		c0.6,0,0.9,0.3,0.9,0.9v8c0,0.6-0.3,0.9-0.8,0.9c-0.6,0-0.8-0.3-0.8-0.9v-0.3c-0.2,0.4-0.5,0.6-0.9,0.9
		C427.6,274.9,427.2,275,426.7,275z M427.2,273.8c0.5,0,0.9-0.2,1.2-0.5c0.3-0.4,0.5-0.9,0.5-1.6c0-0.7-0.2-1.3-0.5-1.6
		s-0.7-0.5-1.2-0.5s-0.9,0.2-1.2,0.5s-0.5,0.9-0.5,1.6c0,0.7,0.2,1.2,0.5,1.6C426.3,273.6,426.7,273.8,427.2,273.8z"/>
	<path fill="#FFFFFF" d="M433.1,275c-0.6,0-0.8-0.3-0.8-0.9v-5.1c0-0.6,0.3-0.9,0.8-0.9s0.8,0.3,0.8,0.9v0.3
		c0.2-0.4,0.5-0.6,0.8-0.8s0.8-0.3,1.2-0.3c1,0,1.6,0.4,1.9,1.3c0.2-0.4,0.5-0.7,0.9-1s0.8-0.3,1.3-0.3c1.5,0,2.2,0.9,2.2,2.7v3.3
		c0,0.6-0.3,0.9-0.9,0.9c-0.6,0-0.8-0.3-0.8-0.9V271c0-0.5-0.1-0.9-0.2-1.1c-0.2-0.2-0.4-0.4-0.8-0.4c-0.4,0-0.8,0.2-1,0.5
		c-0.3,0.3-0.4,0.7-0.4,1.3v2.9c0,0.6-0.3,0.9-0.8,0.9c-0.6,0-0.9-0.3-0.9-0.9V271c0-0.5-0.1-0.9-0.2-1.1c-0.2-0.2-0.4-0.4-0.8-0.4
		c-0.4,0-0.8,0.2-1,0.5s-0.4,0.7-0.4,1.3v2.9C434,274.7,433.7,275,433.1,275z"/>
	<path fill="#FFFFFF" d="M444.9,267c-0.3,0-0.6-0.1-0.7-0.2c-0.2-0.2-0.3-0.4-0.3-0.7c0-0.3,0.1-0.5,0.3-0.7s0.4-0.2,0.7-0.2
		c0.7,0,1,0.3,1,0.9S445.6,267,444.9,267z M444.9,275c-0.3,0-0.5-0.1-0.6-0.2c-0.1-0.2-0.2-0.4-0.2-0.7v-5c0-0.6,0.3-0.9,0.8-0.9
		c0.6,0,0.9,0.3,0.9,0.9v5c0,0.3-0.1,0.5-0.2,0.7C445.4,274.9,445.2,275,444.9,275z"/>
	<path fill="#FFFFFF" d="M448.4,275c-0.6,0-0.8-0.3-0.8-0.9v-5.1c0-0.6,0.3-0.9,0.8-0.9s0.8,0.3,0.8,0.9v0.3
		c0.2-0.4,0.5-0.7,0.9-0.9s0.8-0.3,1.3-0.3c1.6,0,2.3,0.9,2.3,2.7v3.3c0,0.6-0.3,0.9-0.8,0.9c-0.6,0-0.9-0.3-0.9-0.9V271
		c0-0.5-0.1-0.9-0.3-1.1c-0.2-0.2-0.5-0.4-0.9-0.4c-0.5,0-0.9,0.2-1.2,0.5c-0.3,0.3-0.4,0.7-0.4,1.2v3
		C449.2,274.7,448.9,275,448.4,275z"/>
	<path fill="#FFFFFF" d="M456.3,267c-0.3,0-0.6-0.1-0.7-0.2c-0.2-0.2-0.3-0.4-0.3-0.7c0-0.3,0.1-0.5,0.3-0.7s0.4-0.2,0.7-0.2
		c0.7,0,1,0.3,1,0.9S456.9,267,456.3,267z M456.3,275c-0.3,0-0.5-0.1-0.6-0.2c-0.1-0.2-0.2-0.4-0.2-0.7v-5c0-0.6,0.3-0.9,0.8-0.9
		c0.6,0,0.9,0.3,0.9,0.9v5c0,0.3-0.1,0.5-0.2,0.7C456.8,274.9,456.5,275,456.3,275z"/>
	<path fill="#FFFFFF" d="M461.3,275c-0.4,0-0.8,0-1.2-0.1c-0.4-0.1-0.8-0.2-1.2-0.4c-0.2-0.1-0.3-0.2-0.4-0.4c0-0.2,0-0.3,0-0.4
		s0.2-0.2,0.3-0.3c0.1-0.1,0.3,0,0.5,0c0.4,0.2,0.7,0.3,1,0.4c0.3,0.1,0.6,0.1,0.9,0.1c0.4,0,0.8-0.1,1-0.2c0.2-0.1,0.3-0.3,0.3-0.6
		c0-0.4-0.3-0.6-0.8-0.7l-1.3-0.3c-1.1-0.2-1.7-0.8-1.7-1.8c0-0.4,0.1-0.8,0.4-1.1c0.2-0.3,0.6-0.6,1-0.7c0.4-0.2,0.9-0.3,1.5-0.3
		c0.8,0,1.5,0.2,2.1,0.5c0.2,0.1,0.3,0.2,0.3,0.4s0,0.3-0.1,0.4s-0.2,0.2-0.3,0.3s-0.3,0-0.5,0c-0.3-0.1-0.5-0.2-0.8-0.3
		c-0.3-0.1-0.5-0.1-0.7-0.1c-0.4,0-0.8,0.1-1,0.2c-0.2,0.2-0.3,0.4-0.3,0.6c0,0.4,0.3,0.6,0.8,0.7l1.3,0.3c0.6,0.1,1,0.3,1.3,0.6
		c0.3,0.3,0.5,0.7,0.5,1.2c0,0.7-0.3,1.2-0.8,1.5C462.8,274.9,462.1,275,461.3,275z"/>
	<path fill="#FFFFFF" d="M468.4,275c-1.7,0-2.6-0.9-2.6-2.6v-2.9h-0.7c-0.5,0-0.7-0.2-0.7-0.6s0.2-0.6,0.7-0.6h0.7v-1.2
		c0-0.6,0.3-0.8,0.9-0.8c0.6,0,0.8,0.3,0.8,0.8v1.2h1.4c0.5,0,0.7,0.2,0.7,0.6s-0.2,0.6-0.7,0.6h-1.4v2.8c0,0.4,0.1,0.8,0.3,1
		c0.2,0.2,0.5,0.3,0.9,0.3c0.2,0,0.3,0,0.4,0c0.1,0,0.2,0,0.3-0.1c0.1,0,0.2,0,0.3,0.1c0.1,0.1,0.1,0.2,0.1,0.5c0,0.2,0,0.3-0.1,0.5
		s-0.2,0.2-0.3,0.3c-0.1,0-0.3,0.1-0.5,0.1C468.7,275,468.6,275,468.4,275z"/>
	<path fill="#FFFFFF" d="M471.4,275c-0.6,0-0.9-0.3-0.9-0.9v-5.1c0-0.6,0.3-0.9,0.8-0.9s0.8,0.3,0.8,0.9v0.4c0.3-0.8,1-1.2,2.1-1.3
		c0.4,0,0.6,0.2,0.6,0.7c0,0.5-0.2,0.7-0.7,0.8l-0.3,0c-1.1,0.1-1.7,0.7-1.7,1.7v2.8C472.3,274.7,472,275,471.4,275z"/>
	<path fill="#FFFFFF" d="M478,275c-0.5,0-0.9-0.1-1.3-0.3c-0.4-0.2-0.7-0.4-0.9-0.7c-0.2-0.3-0.3-0.7-0.3-1.1c0-0.5,0.1-0.9,0.4-1.2
		c0.3-0.3,0.7-0.5,1.2-0.6c0.6-0.1,1.3-0.2,2.3-0.2h0.5v-0.3c0-0.5-0.1-0.8-0.3-1s-0.5-0.3-1-0.3c-0.3,0-0.5,0-0.8,0.1
		c-0.3,0.1-0.6,0.2-1,0.3c-0.2,0.1-0.4,0.1-0.5,0c-0.1-0.1-0.2-0.2-0.3-0.4c0-0.2,0-0.3,0-0.5s0.2-0.3,0.4-0.4
		c0.4-0.2,0.8-0.3,1.2-0.4c0.4-0.1,0.7-0.1,1-0.1c1,0,1.7,0.2,2.1,0.7s0.7,1.1,0.7,2.1v3.2c0,0.6-0.3,0.9-0.8,0.9
		c-0.5,0-0.8-0.3-0.8-0.9v-0.3c-0.2,0.4-0.4,0.7-0.7,0.9C478.8,274.9,478.4,275,478,275z M478.3,273.9c0.4,0,0.8-0.2,1.1-0.5
		c0.3-0.3,0.4-0.7,0.4-1.2V272h-0.5c-0.8,0-1.4,0.1-1.8,0.2c-0.3,0.1-0.5,0.4-0.5,0.7c0,0.3,0.1,0.5,0.3,0.7
		C477.7,273.8,477.9,273.9,478.3,273.9z"/>
	<path fill="#FFFFFF" d="M486.2,275c-1.7,0-2.6-0.9-2.6-2.6v-2.9h-0.7c-0.5,0-0.7-0.2-0.7-0.6s0.2-0.6,0.7-0.6h0.7v-1.2
		c0-0.6,0.3-0.8,0.9-0.8c0.6,0,0.8,0.3,0.8,0.8v1.2h1.4c0.5,0,0.7,0.2,0.7,0.6s-0.2,0.6-0.7,0.6h-1.4v2.8c0,0.4,0.1,0.8,0.3,1
		c0.2,0.2,0.5,0.3,0.9,0.3c0.2,0,0.3,0,0.4,0c0.1,0,0.2,0,0.3-0.1c0.1,0,0.2,0,0.3,0.1c0.1,0.1,0.1,0.2,0.1,0.5c0,0.2,0,0.3-0.1,0.5
		s-0.2,0.2-0.3,0.3c-0.1,0-0.3,0.1-0.5,0.1C486.5,275,486.3,275,486.2,275z"/>
	<path fill="#FFFFFF" d="M491.3,275c-0.7,0-1.3-0.1-1.8-0.4c-0.5-0.3-0.9-0.7-1.2-1.2c-0.3-0.5-0.4-1.1-0.4-1.8s0.1-1.3,0.4-1.8
		c0.3-0.5,0.7-0.9,1.2-1.2c0.5-0.3,1.1-0.4,1.8-0.4s1.3,0.1,1.8,0.4c0.5,0.3,0.9,0.7,1.2,1.2c0.3,0.5,0.4,1.1,0.4,1.8
		s-0.1,1.3-0.4,1.8c-0.3,0.5-0.7,0.9-1.2,1.2C492.6,274.9,492,275,491.3,275z M491.3,273.8c0.5,0,0.9-0.2,1.2-0.5
		c0.3-0.4,0.5-0.9,0.5-1.6c0-0.7-0.2-1.3-0.5-1.6s-0.7-0.5-1.2-0.5s-0.9,0.2-1.2,0.5s-0.5,0.9-0.5,1.6c0,0.7,0.2,1.2,0.5,1.6
		C490.4,273.6,490.8,273.8,491.3,273.8z"/>
	<path fill="#FFFFFF" d="M496.9,275c-0.6,0-0.9-0.3-0.9-0.9v-5.1c0-0.6,0.3-0.9,0.8-0.9s0.8,0.3,0.8,0.9v0.4c0.3-0.8,1-1.2,2.1-1.3
		c0.4,0,0.6,0.2,0.6,0.7c0,0.5-0.2,0.7-0.7,0.8l-0.3,0c-1.1,0.1-1.7,0.7-1.7,1.7v2.8C497.8,274.7,497.5,275,496.9,275z"/>
	<path fill="#FFFFFF" d="M504.5,275c-0.7,0-1.4-0.1-1.9-0.4c-0.5-0.3-1-0.7-1.2-1.2c-0.3-0.5-0.4-1.1-0.4-1.8c0-0.7,0.1-1.3,0.4-1.8
		c0.3-0.5,0.7-0.9,1.2-1.2c0.5-0.3,1.1-0.4,1.7-0.4c0.9,0,1.7,0.3,2.2,0.9c0.5,0.6,0.8,1.4,0.8,2.4c0,0.3-0.2,0.5-0.6,0.5h-4.1
		c0.1,1.2,0.8,1.8,2,1.8c0.2,0,0.5,0,0.8-0.1c0.3-0.1,0.6-0.2,0.8-0.3c0.2-0.1,0.4-0.2,0.6-0.1c0.2,0,0.3,0.1,0.3,0.3
		c0.1,0.1,0.1,0.3,0,0.5s-0.2,0.3-0.4,0.5c-0.3,0.2-0.7,0.3-1.1,0.4C505.2,275,504.9,275,504.5,275z M504.3,269.3
		c-0.5,0-0.9,0.2-1.2,0.5c-0.3,0.3-0.5,0.7-0.6,1.2h3.3c0-0.5-0.2-1-0.5-1.3C505.1,269.5,504.7,269.3,504.3,269.3z"/>
	<path fill="#FFFFFF" d="M509.4,275c-0.6,0-0.9-0.3-0.9-0.9v-5.1c0-0.6,0.3-0.9,0.8-0.9s0.8,0.3,0.8,0.9v0.4c0.3-0.8,1-1.2,2.1-1.3
		c0.4,0,0.6,0.2,0.6,0.7c0,0.5-0.2,0.7-0.7,0.8l-0.3,0c-1.1,0.1-1.7,0.7-1.7,1.7v2.8C510.3,274.7,510,275,509.4,275z"/>
</g>
</svg>
