<?xml version="1.0" encoding="UTF-8" standalone="no"?>
<!-- Generator: Adobe Illustrator 25.0.1, SVG Export Plug-In . SVG Version: 6.00 Build 0)  -->

<svg
   version="1.1"
   id="Layer_1"
   x="0px"
   y="0px"
   viewBox="0 0 425 650"
   xml:space="preserve"
   width="425"
   height="650"
   xmlns="http://www.w3.org/2000/svg"
   xmlns:svg="http://www.w3.org/2000/svg"><defs
   id="defs466" />
<style
   type="text/css"
   id="style2">
	.st0{opacity:0.1;fill:#004D40;enable-background:new    ;}
	.st1{fill:#004D40;}
	.st2{opacity:0.2;enable-background:new    ;}
	.st3{fill:#3F3D56;}
	.st4{display:none;}
	.st5{display:inline;fill:#00604E;}
	.st6{display:inline;fill:#00352B;}
	.st7{display:inline;}
	.st8{fill:#C69C6D;}
	.st9{opacity:0.5;fill:#B3B3B3;enable-background:new    ;}
	.st10{fill:#C19161;}
	.st11{fill:#999999;}
	.st12{fill:#FBB03B;}
	.st13{fill:#00604E;}
	.st14{display:inline;fill:#EF9D30;}
	.st15{display:inline;fill:#004D40;}
	.st16{fill:#A67C52;}
	.st17{fill:#00352B;}
	.st18{opacity:0.5;}
	.st19{fill:#B3B3B3;}
	.st20{fill:#1C1C1C;}
	.st21{fill:#111111;}
	.st22{fill:#3A3A3A;}
	.st23{fill:#01382D;}
	.st24{fill:#D3A97A;}
	.st25{fill:#365568;}
	.st26{fill:#1D3744;}
	.st27{fill:#EAEAEA;}
	.st28{fill:#FFFFFF;}
	.st29{fill:#C5FCF9;}
	.st30{fill:#EDEDED;}
	.st31{opacity:0.5;fill:#FFFFFF;enable-background:new    ;}
	.st32{fill:#EFEFEF;}
	.st33{fill:#E5E5E5;}
	.st34{fill:#F2F2F2;}
	.st35{fill:#C9C9C9;}
	.st36{fill:#B2B2B2;}
	.st37{fill:#E0BE94;}
	.st38{fill:#CECECE;}
	.st39{fill:#E8E8E8;}
	.st40{fill:#F4F4F4;}
	.st41{fill:#494949;}
	.st42{fill:#2F2E41;}
	.st43{fill:#FFB8B8;}
	.st44{opacity:0.4;enable-background:new    ;}
</style>
<path
   class="st0"
   d="m 15.606422,335.48257 c -43.2,17.9 -40.6,46.3 -70.3,51.3 -29.3,5 -36.6,-20.2 -92.500002,-30.9 -20.8,-4 -44.7,-4.6 -61.5,6.6 -16.2,10.8 -21.4,29.3 -24.2,46.5 -2.1,13 -3.4,26.6 2.4,38.7 4,8.4 11.2,15.5 16.1,23.6 17.2,28.1 5,62.7 -13.6,90.1 -8.7,12.9 -18.8,25.1 -25.6,38.8 -6.8,13.7 -9.8,29.4 -4,43.3 5.8,13.8 19.8,24.2 34.8,31.5 30.6,14.8 66.7,19.1 101.9,21.5 77.900002,5.3 156.200002,3 234.2,0.7 59.2,-1.8 48.7,-4.4 86.3,-6.2 170.8,-8 230.3,19.2 262.4,-17.5 15.3,-17.5 13.7,-45.1 10.4,-100.4 -6.9,-115.8 -44.9,-138 -47.3,-226.2 -2.6,-94.9 39.9,-121.7 15,-155.8 -36.8,-50.4 -157.3,-29.6 -225,1.2 -32.9,14.9 -63.6,28.8 -87.7,61.2 -21.2,28.4 -22.6,51.2 -49.599998,66.9 -23.1,13.6 -31.7,2.4 -62.2,15.1 z"
   id="path4" />
<g
   id="g430"
   transform="translate(-274.29358,9.0825688)">
	<g
   id="g428">
		<g
   id="g426">
			<g
   id="group-1">
				<path
   id="Vector_5"
   class="st1"
   d="m 664.6,391.2 c 79.2,0 143.3,-64.2 143.3,-143.3 0,-79.2 -64.2,-143.3 -143.3,-143.3 -79.2,0 -143.3,64.2 -143.3,143.3 0,79.1 64.1,143.3 143.3,143.3 z" />
				<path
   id="Vector_6"
   class="st2"
   d="m 558.8,152.1 c -31.1,72.8 2.7,157 75.5,188.2 27.6,11.8 58.2,14.6 87.6,8.1 29.3,-6.5 55.8,-22.1 75.8,-44.6 C 766.6,376.6 682.3,410.4 609.5,379.3 536.7,348.2 502.9,263.9 534,191.1 c 6.1,-14.3 14.5,-27.4 24.8,-39 z" />
			</g>
			<g
   id="Group_2">
				<path
   id="Vector_7"
   class="st3"
   d="M 672.4,647.1 657.8,643 v -1.6 l 4.4,-238.4 0.2,-11.9 v -0.3 l 0.8,-41.7 1.1,-60.4 v 0 l 0.8,-40.9 h 0.4 l 0.8,44.3 1,57.7 0.7,40.9 v 0.3 1.7 0 l 1.4,79.8 0.1,7.9 2.9,165 z" />
				<path
   id="Vector_8"
   class="st3"
   d="m 687.8,462.9 -23.7,12.5 3.3,6.3 23.7,-12.5 z" />
			</g>
			<g
   class="st4"
   id="g48">
				<path
   class="st5"
   d="m 820.4,524.8 -0.7,1 -18.3,26.9 -30.4,4.2 -24.5,-5.9 -13.5,20.5 -24.3,-8.6 -14.1,17.5 -19.7,-5.1 -51.4,-3.1 -10.1,-23.6 -28.7,-5.1 -28.7,-36.3 5.4,-10.6 2,-3.9 4.8,-9.3 2.9,-5.7 -5.3,-6.5 -15.8,-19.7 1.1,-4.3 0.3,-1 5.9,-22.6 c 0.2,0 0.3,0.1 0.3,0.1 0,0 5.9,-3.4 8.4,-3.4 l 6.8,1.7 1.7,1.7 h 2.5 c 0,0 1,-1.3 2.1,-2.5 0.9,-1 1.7,-2.1 2.1,-2.4 0.8,-0.7 1.8,-4.4 1.8,-4.4 l 0.5,-0.4 7.1,1.2 18.8,-12.5 3.1,1.6 3.7,-0.2 17.3,24 1.7,2.4 3.6,-1.7 20.9,-10.1 -0.8,-24.5 0.4,-0.5 1.9,-2.4 16.3,-20.7 31.2,-3.1 28.7,16.6 -4.2,22 h 24.5 l 27,16.9 -0.4,5.8 -1.3,23.6 18.2,5.6 9.7,3 -0.7,31.4 z"
   id="path12" />
				<path
   class="st6"
   d="m 804,512.1 -11,5.1 -5,4.7 -3.5,-2.9 -9.7,-3.4 c 0,0 -9.5,-4.4 -12.6,-4.2 -3,0.2 -20.1,7.1 -20.1,7.1 l -15.1,7.2 h -7.5 l -2.6,-2.5 h -6.7 l -4.6,-4.2 -7.7,-8.8 1.4,-11.4 -2.6,-6.2 -4,0.4 -5,6.9 h -8.1 c 0,0 -4.8,1.2 -6.4,1.8 -1.5,0.6 -4.3,1.2 -4.3,1.2 l -4.7,-3 -7.5,1.8 c 0,0 -5.7,0.3 -7,0.8 -1.3,0.6 -6.7,-5.4 -6.7,-5.4 0,0 -5.5,-3.6 -7.4,-3.5 -1.9,0.1 -4.7,-4.7 -4.7,-4.7 l -2.2,-7.2 -5.9,-10.7 -4.3,6.6 -3.5,2.6 c 0,0 -3.6,9.2 -4.5,9.2 -0.9,0 -3.4,0 -5.2,-0.7 -1.8,-0.7 -3.9,1.8 -3.9,1.8 l -2.5,0.3 h -7.2 l -5.2,6.8 c 0,0 -4.7,1.9 -5.5,1.6 -0.8,-0.3 -5.1,-3.1 -6.3,-3.7 -1.2,-0.6 -5.5,-1.9 -6.8,-1.8 -0.6,0 -3.7,1.4 -6.9,2.9 l 2,-3.9 4.8,-9.3 2.9,-5.7 -5.3,-6.5 16.2,-6.2 17,-0.8 c 0,0 14.4,-9.3 16.3,-8.9 1.9,0.4 24.2,-3.2 24.2,-3.2 H 669 l 31.1,-7.3 5.6,-7 1.1,-1 6.5,1.5 v -9.9 l 2.5,-7.1 8,-4.4 8.5,-2.5 9.2,3.6 14.4,3.9 7.1,5.1 5.3,-3.1 11.2,5.6 4.7,-0.9 -1.3,23.6 18.2,5.6 c -4.7,2.4 -9.8,5.1 -10.8,5.5 -1.9,0.8 -2.3,0 -2.3,0 l -2.8,5.7 -8.4,0.5 2,6.1 5,6.2 7.5,3.6 8.5,5.1 v 3.5 l 1.9,10 z"
   id="path14" />
				<path
   class="st6"
   d="m 819.8,525.7 -18.3,26.9 -30.4,4.2 -24.5,-5.9 -13.6,20.5 -24.3,-8.6 -14.1,17.5 -19.7,-5.1 -51.4,-3.1 -10.1,-23.6 -28.7,-5.1 -28.7,-36.3 7.4,-14.5 1.4,5.1 4.5,5.3 8.3,3.4 10.1,1.3 3,3.7 v 7.2 l 4.9,4.4 6.2,1.6 7.3,1 4.5,-2.5 3.5,-2.1 6.1,2.1 1.8,1.4 6.1,11.5 c 0,0 0.7,3.8 0,5.9 -0.7,2.1 2.6,5.2 2.6,5.2 l 2.4,3 1.7,2.4 4.5,4.7 5.1,1.6 5.1,-4.2 h 3.6 l 4,-2.1 4.6,-1.9 8.9,-1.6 5.3,3.5 2.8,2.1 h 6.2 l 8.5,-6.3 9.5,4.2 h 7.6 l 2.5,-5.3 4.7,-7.5 6.4,-2.9 2.2,-4.6 2,-4.4 11.4,4.4 4.7,-10.2 0.8,-3.4 9.2,-3.5 3.1,-0.9 7.8,6.8 2.3,2.1 c 0,0 4.1,-0.7 5.6,0 1.6,0.7 7.1,1.4 7.1,1.4 0,0 1.9,3.2 4.1,5 2.2,1.8 9.7,2.6 9.7,2.6 l 3.7,-4.4 c 0,0 8.1,0.7 9.7,0.5 1.3,0.1 5.3,-1.4 9.3,-2.5 z"
   id="path16" />
				<path
   class="st5"
   d="m 734.1,444.8 c -1.8,1 -4.7,4.1 -4.7,4.1 l -3.4,6.6 -5.2,1.4 -5.6,2.7 -5.9,-1.2 -6.1,9 -3.1,6.5 -4.3,11 -4.7,1.2 0.8,12.6 13.1,3.5 c 0,0 4.4,4.6 6.2,5 1.8,0.4 8.5,5.6 8.5,5.6 l 5.2,3 c 0,0 2.2,-4.9 3,-4.5 0.8,0.4 7.7,3.3 7.7,3.3 h 7 l 6.4,-2 2.6,8 h 4.7 l 6.6,-1 3.6,-3.8 2.2,-8 c 0,0 0.1,-1.1 2.3,-2.2 2.2,-1.1 6.4,-3.7 7.5,-2.4 1.1,1.3 6.7,-3 6.7,-3 l 3.5,-7.4 -4.1,-4.8 -8,-4.5 3.3,-3.6 5.2,-7.8 1.7,-6 -4.4,-1.2 -5.7,-5.3 -4.1,-4.2 -8.2,-2.1 -9.7,2.1 -2.8,-3.6 -6.7,-1.7 -3.3,-1.9 -4.4,-5.4 z"
   id="path18" />
				<g
   class="st7"
   id="g34">
					<path
   class="st8"
   d="m 768.4,509.5 v 2.8 l -6.2,-0.8 -0.7,-0.1 -2.1,-0.3 -0.7,-0.1 -6.1,-0.8 -0.6,-0.1 -9.4,-1.2 -0.7,-0.1 -5.2,-0.7 -1.3,0.5 -0.6,0.2 -5.7,2.1 -0.6,0.2 -8.1,2.9 -0.6,0.2 -4.2,1.5 -2.5,0.9 -0.1,0.1 -0.4,0.4 -5.1,5.4 -0.4,0.5 -1.6,1.7 -0.4,0.4 -6.2,6.5 -3,4 -0.4,0.5 -6.5,8.6 -0.4,0.5 -1.3,1.7 c -0.1,4.6 0.1,10 0.3,15.3 0,0.2 0,0.4 0.1,0.6 0.2,2.9 0.4,5.6 0.5,8.3 0,0.2 0.1,0.4 0.1,0.6 0.7,8.5 1.4,15.1 1.4,15.1 l 6,16 0.3,0.8 2.6,6.9 0.2,0.6 2.3,6.2 0.3,0.6 2.6,6.8 0.2,0.6 2.9,7.7 2.7,7.2 h -70 c 0,0 0.7,-2.2 1.9,-5.8 0.1,-0.2 0.2,-0.4 0.2,-0.6 1.7,-5.4 4.4,-13.5 7.2,-22.5 0.1,-0.2 0.1,-0.4 0.2,-0.6 0.2,-0.4 0.3,-0.9 0.4,-1.3 0.1,-0.2 0.1,-0.4 0.2,-0.6 2.1,-6.6 4.2,-13.4 6,-19.7 0.3,-0.8 0.5,-1.6 0.7,-2.5 0.1,-0.2 0.1,-0.4 0.2,-0.6 1.1,-3.7 2.4,-8.2 3.7,-12.8 0.1,-0.2 0.1,-0.4 0.2,-0.6 1.8,-6 3.7,-12.3 5.5,-17.6 0.1,-0.2 0.1,-0.4 0.2,-0.6 1.2,-3.6 2.4,-6.8 3.3,-9.2 -0.5,-1.2 -1.1,-2.3 -1.6,-3.4 -0.1,-0.2 -0.2,-0.4 -0.3,-0.6 -1.9,-3.6 -3.9,-6.9 -5.5,-9.3 -0.1,-0.2 -0.2,-0.3 -0.3,-0.5 -0.9,-1.3 -1.6,-2.3 -2.1,-2.9 -0.2,-0.2 -0.3,-0.4 -0.4,-0.5 -0.1,-0.1 -0.2,-0.2 -0.2,-0.2 l -3.4,-3.5 -0.4,-0.5 -2.2,-2.2 -0.4,-0.4 -5.8,-6 -0.4,-0.4 -7.2,-7.5 -0.4,-0.4 -7.9,-8.2 -0.4,-0.4 -3.7,-3.8 -0.4,-0.4 -1.5,-1.5 -11.5,-7.6 -0.6,-0.4 -7.4,-4.9 -0.5,-0.4 -2.8,-1.8 -0.1,-0.6 -1,-4.8 c 0,0 3,2.3 6.8,5 0.2,0.1 0.3,0.3 0.5,0.4 2.4,1.8 5.1,3.7 7.4,5.4 0.2,0.2 0.4,0.3 0.5,0.4 3.3,2.4 5.8,4.1 5.8,3.8 0,-0.3 -0.6,-2.8 -1.4,-6.2 -0.1,-0.2 -0.1,-0.4 -0.2,-0.6 -0.7,-3.1 -1.6,-6.7 -2.4,-9.7 -0.1,-0.2 -0.1,-0.4 -0.2,-0.6 -0.8,-3.2 -1.3,-5.5 -1.3,-5.5 h 2.3 l 1.4,4 0.2,0.6 3.3,9.5 0.2,0.6 2.9,8.4 2.7,2.5 0.4,0.4 4.5,4.3 0.4,0.4 7,6.7 0.4,0.4 5.6,5.3 0.8,0.8 0.3,-7.2 v -0.6 l 0.1,-1.1 2.2,-3.5 0.3,-0.5 1.4,-2.3 0.4,-0.6 3.8,-6.2 -1.6,-9 -0.1,-0.7 -1.3,-7.3 1.2,-0.5 0.7,-0.3 1.3,6.4 0.2,0.7 2,9.5 9.6,-5.3 0.5,-0.3 3.7,-2.1 0.4,3.4 -2.9,1.7 -0.5,0.3 -9.3,5.3 -2.1,3.7 -0.4,0.6 -3.2,5.6 -0.3,0.5 -1,1.8 0.3,1 0.2,0.6 2.1,7.3 0.2,0.6 1.1,4 0.8,0.6 0.5,0.4 5.7,4 0.6,0.4 2.2,1.5 0.5,0.4 2.3,1.6 3.7,2.6 0.6,0.4 2.6,1.8 0.5,0.3 1.7,1.2 1.1,-0.7 0.5,-0.3 7.6,-4.8 0.5,-0.3 6.7,-4.2 0.5,-0.4 5.3,-3.4 0.5,-0.3 2.2,-1.3 0.3,-1.9 0.1,-0.7 1.2,-9.1 0.1,-0.6 0.7,-5.7 1.1,-0.2 2,-0.3 v 14.7 l 8.8,-2.5 0.6,-0.2 4.7,-1.3 0.6,-0.2 9.6,-2.7 0.6,-0.2 h 0.1 l 3.6,-1.5 0.5,-0.2 6.8,-2.8 0.6,-0.2 3.3,-1.3 0.6,-0.3 7.6,-3.1 0.6,-0.3 5.2,-2.2 v 1.9 l -4,1.7 -0.6,0.3 -9.1,3.8 -0.6,0.3 -2.1,0.9 -0.6,0.2 -7.1,3 -0.5,0.2 -1.2,0.5 1.5,0.3 0.7,0.2 12.7,2.5 0.6,0.1 3.3,0.6 0.7,0.2 5.7,1.1 0.7,0.2 z"
   id="path20" />
					<polygon
   class="st9"
   points="652.8,504.6 651.2,512.1 648.9,507.9 649.7,508.7 650,501.5 650,501 650,499.9 652.2,496.4 652.5,495.9 653.9,493.6 654.3,493 658.1,486.8 656.6,477.8 656.4,477.2 655.1,469.9 656.3,469.4 659.4,488.8 652.8,500 "
   id="polygon22" />
					<polygon
   class="st10"
   points="689.7,523.6 690.2,523.3 696.9,519.1 697.4,518.8 702.8,515.4 703.3,515.1 705.4,513.7 705.6,511.7 705.7,511.1 706.9,501.9 707,501.3 707.7,495.6 708.8,495.5 708.4,518.5 681.6,535 671.4,523.2 675.1,525.7 675.7,526.1 678.2,527.9 678.8,528.2 680.5,529.4 681.6,528.7 682,528.4 "
   id="polygon24" />
					<path
   class="st10"
   d="m 768.4,510.8 v 1.5 l -6.2,-0.8 -0.7,-0.1 -2.1,-0.3 -0.7,-0.1 -6.1,-0.8 -0.6,-0.1 -9.4,-1.2 -0.7,-0.1 -5.2,-0.7 -1.3,0.5 -0.6,0.2 -5.7,2.1 -0.6,0.2 -8.1,2.9 -0.6,0.2 -4.2,1.5 c 1,-2.1 1.8,-3.7 1.8,-3.7 l 17.6,-6.2 z"
   id="path26" />
					<path
   class="st10"
   d="m 666.8,554.8 c 1.2,-3.6 2.4,-6.8 3.3,-9.2 -0.5,-1.2 -1.1,-2.3 -1.6,-3.4 -0.1,-0.2 -0.2,-0.4 -0.3,-0.6 -1.9,-3.6 -3.9,-6.9 -5.5,-9.3 -0.1,-0.2 -0.2,-0.3 -0.3,-0.5 -0.9,-1.3 -1.6,-2.3 -2.1,-2.9 -0.2,-0.2 -0.3,-0.4 -0.4,-0.5 -0.1,-0.1 -0.2,-0.2 -0.2,-0.2 l -3.4,-3.5 -0.4,-0.5 -2.2,-2.2 -0.4,-0.4 -5.8,-6 -0.4,-0.4 -7.2,-7.5 -0.4,-0.4 -7.9,-8.2 -0.4,-0.4 -3.7,-3.8 -0.4,-0.4 -1.5,-1.5 -11.5,-7.6 -0.6,-0.4 -7.4,-4.9 -0.5,-0.4 -2.8,-1.8 -0.1,-0.6 3.6,1.8 0.6,0.3 4.4,2.2 3.9,2.4 0.6,0.4 13.2,7.8 0.5,0.3 4,4.3 0.4,0.4 7.2,7.7 0.4,0.5 7.2,7.7 0.4,0.4 5.9,6.4 0.4,0.4 2.7,2.9 0.4,0.5 3.1,3.3 0.4,0.4 2.9,3.1 0.4,0.5 5.9,6.4 0.4,0.5 2.9,3.2 -2.3,15.8 -0.1,0.6 -2.1,15 v 0.5 l -2.5,17.7 -0.1,0.6 6.5,18.5 0.2,0.6 1.3,3.7 0.2,0.6 1.7,4.9 6.6,8.2 0.4,0.5 5.9,7.3 17,-2.6 2.7,7.2 H 640 c 0,0 0.7,-2.2 1.9,-5.8 0.1,-0.2 0.2,-0.4 0.2,-0.6 1.7,-5.4 4.4,-13.5 7.2,-22.5 0.1,-0.2 0.1,-0.4 0.2,-0.6 0.2,-0.4 0.3,-0.9 0.4,-1.3 0.1,-0.2 0.1,-0.4 0.2,-0.6 2.1,-6.6 4.2,-13.4 6,-19.7 0.3,-0.8 0.5,-1.6 0.7,-2.5 0.1,-0.2 0.1,-0.4 0.2,-0.6 1.1,-3.7 2.4,-8.2 3.7,-12.8 0.1,-0.2 0.1,-0.4 0.2,-0.6 1.8,-6 3.7,-12.3 5.5,-17.6 0.2,0.1 0.3,-0.1 0.4,-0.2 z"
   id="path28" />
					<g
   id="g32">
						<path
   class="st11"
   d="m 698.9,610.7 -25,-0.9 -23.7,-0.8 c -0.1,0.2 -0.1,0.4 -0.2,0.6 l 24.1,0.8 25,0.9 z m 2.5,6.8 -26.1,-3.3 -25.7,-3.3 c -0.1,0.2 -0.1,0.4 -0.2,0.6 l 26.2,3.3 26.1,3.3 z m -12.8,-46.1 -18.5,1 -9.1,0.5 c -0.1,0.2 -0.1,0.4 -0.2,0.6 l 9.1,-0.5 18.6,-1 c 0.2,-0.2 0.2,-0.4 0.1,-0.6 z m 7.4,31.6 -28.5,-12.3 -10.4,-4.5 c -0.1,0.2 -0.1,0.4 -0.2,0.6 l 10.5,4.5 28.8,12.5 z m -79.6,-119.6 -1.2,0.7 -1.7,0.9 0.6,0.4 1.8,-1 1.2,-0.6 c -0.3,-0.1 -0.5,-0.3 -0.7,-0.4 z m 41.9,-7.9 c -0.6,0.6 -1.3,1.1 -1.9,1.6 l 0.1,0.7 c 0.7,-0.6 1.3,-1.1 1.9,-1.7 z m -22.9,19.7 c -0.6,0.6 -1.3,1.1 -1.9,1.6 -0.8,0.7 -1.6,1.3 -2.4,2 l 0.4,0.4 c 0.8,-0.7 1.5,-1.3 2.4,-2 0.7,-0.6 1.3,-1.1 1.9,-1.6 z m -4.9,-4.7 c -0.5,0.6 -1,1.1 -1.5,1.7 -0.7,0.8 -1.3,1.5 -2,2.3 l 0.4,0.4 c 0.7,-0.8 1.4,-1.6 2.1,-2.4 0.5,-0.5 0.9,-1.1 1.4,-1.6 z m 24.9,11.5 -5.4,-1 v 0.6 l 5.6,1.1 z m -2.9,-6.1 -0.3,0.5 3.9,2.9 0.3,-0.5 z m 18.1,-15.9 -0.5,0.3 1.2,3.1 0.5,-0.3 z m -16.3,13 -0.4,0.6 5.6,-0.5 0.4,-0.6 z m 3.3,16.9 -7.4,1.1 -1.5,2.1 -1.6,2.2 0.4,0.4 1.5,-2.2 1.4,-2 7.3,-1.1 z m -14.7,-7.7 -1.8,2.7 -1.6,2.5 0.4,0.4 1.6,-2.4 1.8,-2.7 z m 23,17.2 -7.9,3.8 -2.2,1.1 0.4,0.5 2.2,-1.1 8,-3.9 z m -6.2,-4.3 -4.8,4.9 -1.7,1.7 0.4,0.4 1.7,-1.7 4.8,-5 z m 15.4,10.6 -10.3,4.8 -2.7,1.3 c 0.1,0.2 0.2,0.3 0.3,0.5 l 2.8,-1.3 10.4,-4.9 z m -6.4,-4.5 -7,5.8 -1.7,1.4 c 0.1,0.1 0.2,0.3 0.4,0.5 l 1.8,-1.5 7.1,-5.9 z m 19.3,41.3 -15.7,-5.7 -5.6,-2.1 c -0.1,0.2 -0.1,0.4 -0.2,0.6 l 5.7,2.1 15.8,5.7 c 0.1,-0.2 0,-0.4 0,-0.6 z m -9.8,-34.6 -7,9.4 -3.1,4.2 c 0.1,0.2 0.2,0.4 0.3,0.6 l 3.2,-4.3 7.1,-9.5 z m -53.5,-48.9 -3.4,1.8 c 0.1,0.2 0.1,0.4 0.2,0.6 l 3.4,-1.8 z m -8.3,4.4 -1.2,0.7 -1.7,0.9 0.6,0.4 1.8,-1 1.2,-0.6 c -0.3,-0.1 -0.5,-0.3 -0.7,-0.4 z m 41.9,-7.9 c -0.6,0.6 -1.3,1.1 -1.9,1.6 l 0.1,0.7 c 0.7,-0.6 1.3,-1.1 1.9,-1.7 z m -22.9,19.7 c -0.6,0.6 -1.3,1.1 -1.9,1.6 -0.8,0.7 -1.6,1.3 -2.4,2 l 0.4,0.4 c 0.8,-0.7 1.5,-1.3 2.4,-2 0.7,-0.6 1.3,-1.1 1.9,-1.6 z m -4.9,-4.7 c -0.5,0.6 -1,1.1 -1.5,1.7 -0.7,0.8 -1.3,1.5 -2,2.3 l 0.4,0.4 c 0.7,-0.8 1.4,-1.6 2.1,-2.4 0.5,-0.5 0.9,-1.1 1.4,-1.6 z m 57.5,72 -15.7,-5.7 -5.6,-2.1 c -0.1,0.2 -0.1,0.4 -0.2,0.6 l 5.7,2.1 15.8,5.7 c 0.1,-0.2 0,-0.4 0,-0.6 z M 655.4,502 650,501 v 0.6 l 5.6,1.1 z m -2.9,-6.1 -0.3,0.5 3.9,2.9 0.3,-0.5 z m 18.1,-15.9 -0.5,0.3 1.2,3.1 0.5,-0.3 z m -16.3,13 -0.4,0.6 5.6,-0.5 0.4,-0.6 z m 33.7,69.5 -15.7,-5.7 -5.6,-2.1 c -0.1,0.2 -0.1,0.4 -0.2,0.6 l 5.7,2.1 15.8,5.7 c 0.1,-0.2 0,-0.4 0,-0.6 z m -30.4,-52.6 -7.4,1.1 -1.5,2.1 -1.6,2.2 0.4,0.4 1.5,-2.2 1.4,-2 7.3,-1.1 z m -14.7,-7.7 -1.8,2.7 -1.6,2.5 0.4,0.4 1.6,-2.4 1.8,-2.7 z m 23,17.2 -7.9,3.8 -2.2,1.1 0.4,0.5 2.2,-1.1 8,-3.9 z m -6.2,-4.3 -4.8,4.9 -1.7,1.7 0.4,0.4 1.7,-1.7 4.8,-5 z m 15.4,10.6 -10.3,4.8 -2.7,1.3 c 0.1,0.2 0.2,0.3 0.3,0.5 l 2.8,-1.3 10.4,-4.9 z m -6.4,-4.5 -7,5.8 -1.7,1.4 c 0.1,0.1 0.2,0.3 0.4,0.5 l 1.8,-1.5 7.1,-5.9 z m -60.2,-43.6 -2.2,1.6 -0.7,0.6 0.5,0.4 0.8,-0.6 2.1,-1.5 c -0.2,-0.2 -0.3,-0.3 -0.5,-0.5 z m 79.5,84.9 -15.7,-5.7 -5.6,-2.1 c -0.1,0.2 -0.1,0.4 -0.2,0.6 l 5.7,2.1 15.8,5.7 c 0.1,-0.2 0,-0.4 0,-0.6 z m -9.8,-34.6 -7,9.4 -3.1,4.2 c 0.1,0.2 0.2,0.4 0.3,0.6 l 3.2,-4.3 7.1,-9.5 z m 3.8,0.5 -0.5,0.3 7.4,16.7 0.4,-0.5 z m 8.2,-5.1 -0.5,0.3 6.2,12.7 0.4,-0.5 z m 14,101.7 -20.3,2.9 -41.7,6.1 c -0.1,0.2 -0.2,0.4 -0.2,0.6 l 42.3,-6.2 20.1,-2.9 z m -5.3,-14.3 -25,-0.9 -23.7,-0.8 c -0.1,0.2 -0.1,0.4 -0.2,0.6 l 24.1,0.8 25,0.9 z m 2.5,6.8 -26.1,-3.3 -25.7,-3.3 c -0.1,0.2 -0.1,0.4 -0.2,0.6 l 26.2,3.3 26.1,3.3 z m -12.8,-46.1 -18.5,1 -9.1,0.5 c -0.1,0.2 -0.1,0.4 -0.2,0.6 l 9.1,-0.5 18.6,-1 c 0.2,-0.2 0.2,-0.4 0.1,-0.6 z m 7.4,31.6 -28.5,-12.3 -10.4,-4.5 c -0.1,0.2 -0.1,0.4 -0.2,0.6 l 10.5,4.5 28.8,12.5 z m 11,-101.7 -0.1,0.6 3.8,1.1 v -0.6 z m -1.3,9.8 -0.1,0.7 c 3,2.3 5.4,4.1 7.3,5.5 l 0.4,-0.4 c -2.2,-1.8 -4.9,-3.8 -7.6,-5.8 z m 14.5,-3.8 -0.6,0.2 c 0.2,2.3 0.4,4.7 0.5,6.9 l 0.6,-0.2 c -0.2,-2.2 -0.4,-4.6 -0.5,-6.9 z m 19.7,-6.1 -0.5,0.2 0.6,1.7 0.5,-0.2 z m 1,2.9 -0.7,-0.2 1.8,5 0.7,0.1 z m 12.7,2.5 -1.5,3.6 0.6,0.1 1.5,-3.6 z m 5.7,-13.4 -0.6,0.3 1.2,1.4 0.6,-0.3 z m 4.6,15.4 -2.4,2.8 0.7,0.1 2.4,-2.8 z m -5.7,-1.1 -0.7,-0.2 1.3,3.7 0.7,0.1 z m -11,-9.3 -0.6,0.2 1,1.5 0.6,-0.2 z m 3.3,-1.3 -0.3,2.1 0.6,-0.3 0.3,-2.1 z m -25.1,8.9 -0.6,0.2 3.9,5.2 0.6,-0.2 z m 9.7,-2.7 -0.1,5.9 0.6,-0.2 0.1,-5.8 z m -37.7,15.7 -0.5,0.4 8.5,6.2 0.4,-0.4 z m 5.9,-3.7 -0.5,0.3 4.7,7.7 0.4,-0.5 z m -15.3,47.4 -15.7,-5.7 -5.6,-2.1 c -0.1,0.2 -0.1,0.4 -0.2,0.6 l 5.7,2.1 15.8,5.7 c 0.1,-0.2 0,-0.4 0,-0.6 z m 0,0 -15.7,-5.7 -5.6,-2.1 c -0.1,0.2 -0.1,0.4 -0.2,0.6 l 5.7,2.1 15.8,5.7 c 0.1,-0.2 0,-0.4 0,-0.6 z m 0,0 -15.7,-5.7 -5.6,-2.1 c -0.1,0.2 -0.1,0.4 -0.2,0.6 l 5.7,2.1 15.8,5.7 c 0.1,-0.2 0,-0.4 0,-0.6 z m -63.3,-83.5 -3.4,1.8 c 0.1,0.2 0.1,0.4 0.2,0.6 l 3.4,-1.8 z m -3.5,-10.1 -2.4,1.5 c 0.1,0.2 0.1,0.4 0.2,0.6 l 2.4,-1.5 z"
   id="path30" />
					</g>
				</g>
				<g
   class="st7"
   id="g40">
					<path
   class="st12"
   d="m 556.9,475 c 0,-0.1 0,-0.1 0,-0.1 -0.6,0.1 -0.4,0.1 0,0.1 z"
   id="path36" />
					<path
   class="st13"
   d="m 709.1,448.9 c 0.1,0.5 -9.2,18.3 -9.2,18.3 v 2.1 c 0,0 -6.6,16.3 -8.3,17.8 -1.6,1.6 -9.9,3 -12.5,1.9 -2.6,-1.1 -3.8,-1 -3.8,-1 l -11.2,3.1 -9.6,-0.3 -6.6,-3.7 -11.8,-5 -6.4,0.1 -6.8,-3 c 0,0 -2.8,-3.8 -3,-4.3 -0.2,0.3 -4.5,1.3 -5.3,1.3 -0.8,0 -4.2,2.8 -4.2,2.8 0,0 -4.9,0.4 -5.5,0 -0.6,-0.3 -2.9,1.1 -2.9,1.1 0,0 -4.8,3.1 -5.4,3.2 -0.7,0.1 -3.2,3.8 -3.2,3.8 l -8.3,-2.8 c 0,0 -6.9,-2.7 -7.3,-3.6 -0.3,-0.5 -2.6,0.5 -4.9,1.5 -2.3,1 -4.5,2.2 -4.5,2.2 0,0 -8.4,-2.7 -9.5,-3.4 -1.1,-0.7 -2.1,-5.3 -2.2,-5.9 0.9,0 3.3,-0.1 3.3,-0.1 0,0 -6.6,-0.2 -8.5,0 -1.9,0.2 1.1,-1.7 2.7,-5.6 1.6,-3.8 0,-1.8 0,-1.8 l -7.4,-4.4 -1.6,-3.1 7.4,-6.2 3.6,-4.7 0.5,-0.7 c 0,0 -0.1,-0.1 -0.3,-0.2 -1.4,-0.9 -7.1,-4.6 -7.1,-5.2 0,-0.8 0,-4.6 0,-4.6 0,0 6.6,-10.1 7.4,-10.7 0.7,-0.6 4.6,-0.2 5.6,-0.1 0.2,0 0.3,0.1 0.3,0.1 0,0 5.7,-3.2 8.3,-3.2 l 6.6,1.5 1.6,1.5 h 2.5 c 0,0 3.3,-3.8 4.1,-4.5 0.7,-0.6 1.7,-4 1.7,-4 l 0.5,-0.4 6.1,-4.3 8.3,-3.8 8.2,-3.5 2.8,1.3 3.1,1.4 3.7,-0.2 1.7,-0.1 8.1,6.7 1.9,0.7 6.7,3 7.3,-2.1 3.7,-3.6 1.7,-1.4 v -8 l 6.6,-5.7 4.5,1 2.1,0.5 4.3,2.4 v 5.5 l 14.7,6.9 3.8,9.2 c 0,0 2.1,8.5 3.1,11 1.1,2.5 5.5,4.5 5.5,4.5 l 10.8,4.2 c 0,-0.2 2.5,4.1 2.5,4.6 z"
   id="path38" />
				</g>
				<path
   class="st5"
   d="m 650,377.4 2.8,11.7 -4.1,5.1 -2.3,7.9 9.8,7.6 v 3.8 8.4 l 4.9,5.3 3.1,1.7 h 7.6 4.6 l 9.8,-4.8 11.5,8.4 5,1.1 13.8,-1.1 2.9,-3.4 2.9,-6.7 10.4,-3.9 14.2,3.9 6.5,-10.4 c 0,0 -6.5,-14.2 -9,-15.5 -2.6,-1.3 -2.6,-9 -2.6,-9 v -5.2 l -8.3,-5.2 -4.7,-11.6 -21.4,-1.2 -7.6,-1.5 -11.3,4.6 -9.3,-2.3 -7.3,-0.9 -3.6,6.5 -12.2,0.2 z"
   id="path42" />
				<path
   class="st14"
   d="m 616.2,404 17.3,24 -6.3,-1 -4.2,-5.9 -7.8,-1.3 -8,-5.4 h -3.3 l -8.3,3.4 h -5.7 l -4.5,0.8 -3.2,2.5 H 579 c 0.9,-1 1.7,-2.1 2.1,-2.4 0.8,-0.7 1.8,-4.4 1.8,-4.4 l 0.5,-0.4 7.1,1.2 18.8,-12.5 3.1,1.6 z"
   id="path44" />
				<path
   class="st6"
   d="m 690.1,424.8 -5,0.1 c 0,0 -11,2.9 -13.3,2.5 -2.3,-0.4 -8.7,5.4 -9.5,6.5 -0.8,1.1 -2.4,1.5 -2.4,1.5 l -12.7,-7.2 -8.3,0.4 20.9,-10.1 -0.8,-24.5 0.4,-0.5 1.9,-2.4 c 0.7,0.8 1.1,1.3 1.1,1.3 0,0 3.4,10.1 4.3,11 0.9,1 0.1,7 0.1,7 l 22.1,11 z"
   id="path46" />
			</g>
			<g
   class="st4"
   id="g82">
				<polygon
   class="st15"
   points="543.2,294.4 543.2,299.8 531.9,289.7 522.4,291.6 518.5,299.8 510.9,302.8 502.5,299.8 500,301.9 494.1,304 486.9,304 482.3,299 473,301.9 469.3,315.8 463.8,321.7 457.1,323 447.4,321.7 439.8,328.4 430.6,339.8 443.6,339.4 457.1,337.7 468.8,336.4 473.9,341.4 466.7,346.9 470.1,349.4 482.3,344 491.5,340.2 502.5,346.4 507.5,349.4 521.4,354.5 526.4,346.4 526.4,336 535.2,342.7 546.2,346.4 557.6,349.4 565.6,343.1 565.6,334.7 574.8,340.2 587,346.4 598.7,341.9 601.7,331.4 608.4,333.9 616,336.8 629,333.5 629.5,319.9 619.8,317.9 606.7,319.2 595.4,317.5 586.5,312.8 591.6,310.8 599.6,309.5 603,304 606.6,300.5 595.8,297.7 582.7,302.8 574.8,306.6 568.9,301.9 571.9,289.7 565.1,283.9 556.7,284.7 557.6,293.9 557.1,298.1 554.6,299.4 547.9,293.9 "
   id="polygon50" />
				<polygon
   class="st6"
   points="609.4,121.2 609.4,126.7 620.8,116.6 630.2,118.4 634.2,126.7 641.8,129.6 650.2,126.7 652.8,128.8 658.6,130.9 665.8,130.9 670.4,125.8 679.6,128.8 683.4,142.6 688.9,148.5 695.6,149.8 705.3,148.5 712.9,155.2 722.1,166.6 709.1,166.2 695.6,164.5 683.8,163.2 678.8,168.3 685.9,173.7 682.6,176.3 670.4,170.8 661.2,167 650.2,173.2 645.2,176.3 631.3,181.3 626.2,173.2 626.2,162.8 617.4,169.6 606.5,173.2 595.2,176.3 587.2,170 587.2,161.6 577.9,167 565.7,173.2 553.9,168.7 551,158.2 544.3,160.7 536.7,163.7 523.7,160.3 523.2,146.7 532.9,144.7 546,146 557.3,144.3 566.1,139.7 561,137.6 553.1,136.3 549.7,130.9 546,127.3 556.9,124.6 569.9,129.6 577.9,133.4 583.8,128.8 580.8,116.6 587.6,110.7 596,111.5 595.2,120.8 595.6,125 598.1,126.2 604.8,120.8 "
   id="polygon52" />
				<polygon
   class="st15"
   points="487.4,247.2 498.2,240.9 509.2,247.2 517.4,249.9 530,243.2 540.7,252.8 549,257.2 527.2,262.4 504.3,269 504.3,272.3 511.5,285.3 504.3,285.3 498.2,277.4 493,275.2 495.2,285.3 476.2,285.3 470,285.3 455.4,285.3 449.8,280.2 456.6,275.2 449.8,270.7 436.4,271.8 428,272.9 417.9,270.7 418.5,266.8 431.3,260 428,256.1 404.9,257.8 391,255.5 411.2,249.9 421.7,240.9 421.7,231.5 431.3,231.5 439.2,233.1 443.1,221.9 451,209 459.4,209 455.4,220.8 462.2,229.2 472.3,223.6 480.7,227 482.4,233.7 476.2,243.2 "
   id="polygon54" />
				<polygon
   class="st6"
   points="691.4,290 702.3,283.8 713.3,290 721.5,292.8 734.1,286.1 744.7,295.6 753.1,300.1 731.2,305.3 708.4,311.9 708.4,315.2 715.5,328.1 708.4,328.1 702.3,320.3 697.1,318 699.3,328.1 680.2,328.1 674.1,328.1 659.5,328.1 653.9,323.1 660.6,318 653.9,313.5 640.4,314.7 632,315.8 621.9,313.5 622.5,309.6 635.4,302.9 632,299 608.9,300.7 595.1,298.4 615.2,292.8 625.8,283.8 625.8,274.3 635.4,274.3 643.3,276 647.2,264.7 655,251.9 663.4,251.9 659.5,263.7 666.2,272.1 676.3,266.4 684.7,269.8 686.4,276.6 680.2,286.1 "
   id="polygon56" />
				<g
   class="st7"
   id="g74">
					<path
   class="st8"
   d="m 589.4,426 v -73.3 c 0,0 -0.2,-2.5 -0.5,-6.3 -0.1,-0.6 -0.1,-1.1 -0.1,-1.7 0,-0.2 -0.1,-0.4 -0.1,-0.6 l -15.6,-5.7 -1.6,-0.6 -1.1,-0.4 -1.9,-0.7 -2.5,-0.9 -15.1,-13.8 -1.3,-1.1 -9.2,-8.3 -1.6,-1.4 -4.6,-4.2 -9.3,-7.8 -1.3,-1.1 -3.6,-3 -1.4,-1.2 -3.9,-3.2 -3.9,-1.4 -1.6,-0.6 -9.4,-3.5 -2.1,-0.8 -1.8,-0.7 -6.9,0.7 -1.7,0.2 -5.8,0.6 -1.9,0.2 -7,0.7 -13.6,2.9 -1.7,0.4 -4.4,0.9 -1.6,0.4 -12,2.5 -1.7,0.4 -2.5,0.5 -0.3,-0.7 -1.7,-3.7 4.9,-0.9 1.7,-0.3 10.7,-2 1.7,-0.3 5.5,-1 1.7,-0.3 3.2,-0.6 -3,-1.8 -1.6,-1 -7.5,-4.7 -1.9,-1.2 -6.9,-4.3 -1.6,-1 -7,-4.3 1.7,-4.8 5.8,3.1 1.6,0.9 4.9,2.6 1.9,1 9.5,5.1 1.6,0.9 6.6,3.5 7.3,-1.4 1.8,-0.4 8.5,-1.6 1.7,-0.3 0.3,-0.1 8.3,0.3 1.8,0.1 6.1,0.2 1.5,-14.1 -5.2,-8.5 -1,-1.6 -4.1,-6.6 -6.4,-5.9 -1.4,-1.3 -8.5,-7.9 1.5,-1.4 1.3,-1.2 10.5,8.9 1.5,1.3 3.3,2.8 6.3,5.3 1.3,1.1 7.7,6.6 5,7.7 1.3,2 3,4.7 0.3,9.2 2.4,2.2 1.4,1.3 10.1,9.1 1.3,1.2 5.1,4.7 0.3,0.2 1.4,1.1 16.1,13.3 1.3,1.1 4.7,3.8 0.4,0.4 1.5,0.4 7.7,2.1 1.6,0.5 11.7,3.2 c -0.2,-2.3 -0.3,-4.5 -0.5,-6.4 -0.1,-0.6 -0.1,-1.2 -0.1,-1.7 -0.3,-3.7 -0.4,-6.5 -0.5,-7.4 v -0.2 c 0,-0.4 -0.1,-0.9 -0.1,-1.6 -0.4,-4.3 -1.8,-14.3 -2.7,-20 -0.1,-0.7 -0.2,-1.2 -0.3,-1.7 -0.2,-1.4 -0.4,-2.4 -0.4,-2.4 l -0.5,-0.5 -1.6,-1.5 -18.8,-17.8 -1.2,-1.2 -10.4,-9.8 -0.2,-1.1 -0.2,-1.7 -0.5,-4.6 -0.3,-2.1 -2.6,-22 -0.2,-1.7 -0.4,-3 0.6,-4.3 0.3,-2.5 2.8,-21.5 0.2,-1.7 1.3,-10.1 0.3,-1.9 2.1,-16 0.1,-0.3 0.3,-1.4 3.2,-18.2 0.4,-2 2.3,-12.9 0.3,-1.7 0.6,-3.2 -5.8,-10.7 -0.8,-1.5 -3.6,-6.7 -2.3,-4.3 -0.9,-1.5 -2.8,-5.1 -0.8,-1.5 -1.7,-3.2 2.7,-1.3 1.6,-0.8 1.8,3.1 0.9,1.5 3.5,5.9 0.9,1.5 2.3,3.9 3.5,5.3 0.9,1.4 5.8,8.8 3.4,-14.5 0.6,-2.4 1.8,-7.5 0.4,-1.9 0.7,-3 -1.5,-8.2 -0.3,-1.7 -1,-5.4 h 4.6 l 0.6,3.5 0.3,1.7 1.9,11.7 0.3,1.7 0.3,1.9 -0.4,2.6 -0.3,2.2 -3.7,25.8 -0.3,1.7 -0.5,3.7 -0.7,5.1 -0.3,1.9 -3.5,26.5 -0.3,1.7 -0.9,7 -0.3,1.9 -1,7.1 c 0,0 0.2,4.3 0.4,10 0.1,0.6 0.1,1.1 0.1,1.7 0.1,1.7 0.2,3.5 0.3,5.3 0,0.7 0.1,1.4 0.1,2.2 0.3,7.8 0.7,16 0.8,19.7 0,0.8 0.1,1.3 0.1,1.7 0,0.3 0,0.4 0,0.5 0,0.5 0.9,3.6 2.2,7.7 0.2,0.6 0.4,1.2 0.6,1.8 1.2,3.9 2.7,8.4 4,12.4 0.2,0.6 0.4,1.1 0.5,1.6 0.3,0.9 0.6,1.8 0.9,2.6 0.2,0.7 0.4,1.3 0.6,1.9 0.9,2.7 1.5,4.5 1.5,4.5 l 18.1,16.9 4.1,-6 1,-1.4 2.6,-3.8 1.2,-1.7 7.8,-11.4 1.1,-2.6 0.7,-1.6 4.1,-9.6 0.8,-1.7 1.8,-4.3 -0.8,-8.6 -0.2,-1.9 -1.4,-16.3 -0.2,-1.7 -1.3,-15.6 -0.1,-0.5 0.5,-1.1 2.1,-5 0.7,-1.8 2.2,-5.2 1.7,0.4 3.2,0.8 -0.6,3.3 -0.3,1.7 -1.3,7.2 -0.3,1.6 -1.6,8.7 1,4.2 0.4,1.6 5.1,21.4 0.5,2.1 0.7,2.9 1,-2.2 0.7,-1.5 8.6,-18.5 0.9,-7.8 0.2,-1.8 0.6,-5.6 0.2,-1.7 1.4,-12.6 0.2,-1.3 -0.1,-0.4 -1.1,-8.2 h 4.6 l -0.4,7.8 -0.1,1.7 -0.6,13.6 -0.1,1.7 -0.2,3.9 -0.1,1.8 -0.4,8.9 -6.1,21.5 -0.5,1.6 -1.3,4.7 -0.5,1.7 -5.3,19 -0.5,1.7 -1.3,4.6 -1.1,1.2 -1.5,1.6 -10.1,10.9 -1.2,1.3 -8,8.6 -0.4,0.4 c 0,0 0.2,0.5 0.5,1.3 0.7,1.9 2.2,5.6 3.7,10 0.2,0.6 0.4,1.2 0.7,1.8 0.7,1.9 1.4,4 2.2,6.1 0.2,0.6 0.4,1.1 0.6,1.6 2.4,6.8 4.4,13.1 4.4,15.2 0,0.9 0.5,3.3 1.2,6.8 0.2,0.6 0.3,1.2 0.4,1.8 1,4.2 2.3,9.5 3.7,15.1 0.2,0.6 0.3,1.1 0.4,1.6 3,11.7 6.4,24.5 8.3,31.3 0.2,0.6 0.3,1.2 0.5,1.7 0.6,2.1 0.9,3.3 0.9,3.3 v 42.9 c 0,0 1.5,7.6 3.5,17.1 0.1,0.6 0.3,1.2 0.4,1.7 0.5,2.1 0.9,4.3 1.3,6.5 0.2,0.6 0.3,1.1 0.4,1.7 1.2,5.6 2.5,11.3 3.5,15.8 0.2,0.6 0.3,1.2 0.4,1.7 1.1,4.8 2.1,8.2 2.5,8.6 0.1,0.1 0.2,0.5 0.3,1.1 0.1,0.5 0.1,1 0.2,1.7 0.3,3.8 0.4,11.1 0.3,19.6 0,0.6 0,1.1 0,1.7 0,3.7 -0.1,7.5 -0.1,11.4 0,0.6 0,1.2 0,1.7 -0.2,11.1 -0.4,21.9 -0.5,28 0,0.6 -0.1,1.2 -0.1,1.7 -0.1,2.1 -0.1,3.3 -0.1,3.3 l 0.6,7.8 0.2,1.7 1,12.3 1,13.3 0.1,1.7 0.6,7.3 0.2,1.7 1,12.4 h -80 l 1.3,-8.1 0.3,-1.7 2.6,-15.4 0.3,-1.7 2.5,-14.7 0.3,-1.7 1.3,-8 1.3,-14.5 0.2,-1.7 1.2,-13.5 0.2,-1.7 1.7,-23.1 0.1,-1.6 0.1,-1.7 0.5,-8.8 0.1,-1.7 1.1,-20.2 0.1,-1.7 0.3,-5.2 0.1,-1.7 1,-19.4 z"
   id="path58" />
					<polygon
   class="st10"
   points="641.9,185.4 642.5,179.7 642.8,178 644.1,165.4 644.3,164.1 644.2,163.7 643.1,155.6 645.1,155.6 645.7,159 644.1,195.4 630.5,226.8 630.5,217.3 631.6,215.1 632.3,213.5 640.9,195 641.7,187.1 "
   id="polygon60" />
					<polygon
   class="st10"
   points="478.6,227.8 487.5,234.7 508.1,255.9 511.9,276.5 502.2,275 503.7,261 498.5,252.5 497.4,250.9 493.4,244.4 487,238.4 485.5,237.1 477,229.2 "
   id="polygon62" />
					<polygon
   class="st10"
   points="612.2,239 613.4,236.3 614,234.7 618.1,225.2 618.9,223.4 620.7,219.1 620,210.5 619.8,208.5 618.4,192.3 618.2,190.5 616.9,174.9 616.9,174.4 617.3,173.3 619.4,168.3 620.1,166.4 622.2,161.2 623.9,161.6 619.4,174.8 626.5,220 618.2,245.3 598,272.1 595.5,263.3 599.6,257.3 600.6,255.9 603.3,252 604.4,250.3 "
   id="polygon64" />
					<path
   class="st10"
   d="M 600.9,325.7 587,320.5 c -0.2,-2.3 -0.3,-4.5 -0.5,-6.4 -0.1,-0.6 -0.1,-1.2 -0.1,-1.7 -0.3,-3.7 -0.4,-6.5 -0.5,-7.4 v -0.2 c 0,-0.4 -0.1,-0.9 -0.1,-1.6 -0.4,-4.3 -1.8,-14.3 -2.7,-20 -0.1,-0.7 -0.2,-1.2 -0.3,-1.7 -0.2,-1.4 -0.4,-2.4 -0.4,-2.4 l -0.5,-0.5 -1.6,-1.5 -18.8,-17.8 -1.2,-1.2 -10.4,-9.8 -0.2,-1.1 -0.2,-1.7 -0.5,-4.6 -0.3,-2.1 -2.6,-22 -0.2,-1.7 -0.4,-3 0.6,-4.3 0.3,-2.5 2.8,-21.5 0.2,-1.7 1.3,-10.1 0.3,-1.9 2.1,-16 0.1,-0.3 0.3,-1.4 3.2,-18.2 0.4,-2 2.3,-12.9 0.3,-1.7 0.6,-3.2 -5.8,-10.7 -0.8,-1.5 -3.6,-6.7 -2.3,-4.3 -0.9,-1.5 -2.8,-5.1 -0.8,-1.5 -1.7,-3.2 2.7,-1.3 20.1,37.2 -3.8,23.4 -1.6,40 -2.5,34.3 10.9,33.5 27.4,31 z"
   id="path66" />
					<path
   class="st10"
   d="m 589.4,426 v -73.3 c 0,0 -0.2,-2.5 -0.5,-6.3 -0.1,-0.6 -0.1,-1.1 -0.1,-1.7 0,-0.2 -0.1,-0.4 -0.1,-0.6 l -15.6,-5.7 -1.6,-0.6 -1.1,-0.4 -1.9,-0.7 -2.5,-0.9 -15.1,-13.8 -1.3,-1.1 -9.2,-8.3 -1.6,-1.4 -4.6,-4.2 -9.3,-7.8 -1.3,-1.1 -3.6,-3 -1.4,-1.2 -3.9,-3.2 -3.9,-1.4 -1.6,-0.6 -9.4,-3.5 -2.1,-0.8 -1.8,-0.7 -6.9,0.7 -1.7,0.2 -5.8,0.6 -1.9,0.2 -7,0.7 -13.6,2.9 -1.7,0.4 -4.4,0.9 -1.6,0.4 -12,2.5 -1.7,0.4 -2.5,0.5 -0.3,-0.7 34.9,-11.2 27.5,-3.6 21.6,6.8 51.8,40.4 27.6,4.7 15.8,16.1 c 0,0 -9,37.1 -9.6,41.3 -0.7,4.2 3.3,77.8 3.3,77.8 0,0 -6,38 -6.5,37.4 -0.5,-0.5 0,57.2 0,57.2 l 22,5.9 26.6,-6.5 1,13.3 0.1,1.7 0.6,7.3 0.2,1.7 1,12.4 h -80 l 1.3,-8.1 0.3,-1.7 2.6,-15.4 0.3,-1.7 2.5,-14.7 0.3,-1.7 1.3,-8 1.3,-14.5 0.2,-1.7 1.2,-13.5 0.2,-1.7 2.2,-23.4 0.1,-1.6 0.1,-1.7 0.5,-8.8 0.1,-1.7 1.1,-20.2 0.1,-1.7 0.3,-5.2 0.1,-1.7 1,-19.4 z"
   id="path68" />
					<g
   id="g72">
						<path
   class="st16"
   d="m 629.4,212.4 c -3.1,-1.2 -6.3,-2.5 -9.6,-3.8 l 0.2,1.9 c 3.3,1.3 6.7,2.7 9.9,3.9 z M 547.6,81 c -1.5,0.7 -3,1.4 -4.4,2.1 l 0.8,1.5 c 1.5,-0.7 3,-1.4 4.5,-2.2 z m 4.3,7.4 c -1.7,0.5 -3.4,0.9 -5.1,1.4 l 0.9,1.5 c 1.7,-0.5 3.4,-0.9 5.2,-1.4 z m 6.7,10.7 -5,3.1 0.8,1.5 5.1,-3.2 z m 8.4,112.5 -21,3.4 0.2,1.7 20.8,-3.4 c 0.1,-0.4 0,-0.9 0,-1.7 z m 41.3,62.3 0.4,-0.4 -28.2,3.5 1.6,1.5 26.7,-3.3 c -0.4,-0.9 -0.5,-1.3 -0.5,-1.3 z m 4.2,11.3 -29.6,-3.8 c 0.1,0.5 0.2,1.1 0.3,1.7 l 30,3.8 c -0.2,-0.6 -0.5,-1.2 -0.7,-1.7 z m -11.9,-29.3 -1,1.4 17,7.5 1.2,-1.3 z m 38.6,175.7 C 624.1,430 606,427.9 589.4,426.1 l -0.1,1.7 c 15.1,1.7 34.2,3.8 50.3,5.6 -0.2,-0.7 -0.3,-1.3 -0.4,-1.8 z m -49.8,-14 v 1.7 l 46.3,-9.6 V 408 Z m 0,-31.5 v 1.7 l 46.3,-9.4 v -1.7 z m 0,8.4 v 1.7 l 46.3,3.6 V 398 Z m -3.3,92.1 -0.1,1.7 c 10.1,0.6 20.8,1.1 31.5,1.7 10.5,0.6 20.9,1.1 30.8,1.7 0,-0.6 0,-1.2 0,-1.7 -19.9,-1.1 -42.2,-2.3 -62.2,-3.4 z M 648,468.7 c -19.7,2.4 -41.5,5 -61.2,7.3 l -0.1,1.7 c 10.7,-1.3 22,-2.6 33.1,-3.9 9.8,-1.2 19.4,-2.3 28.4,-3.4 -0.1,-0.7 -0.2,-1.2 -0.2,-1.7 z m -65.6,59.9 -0.2,1.7 65.6,4.3 c 0,-0.5 0.1,-1.1 0.1,-1.7 z m 1.4,-15.3 -0.2,1.7 64.7,-10.2 c 0,-0.6 0,-1.1 0,-1.7 z m 67.3,68.8 c -25.7,1.4 -53.6,2.9 -77.2,4.2 l -0.3,1.7 c 16.6,-0.9 35.1,-1.9 53.1,-2.9 8.2,-0.5 16.5,-0.9 24.5,-1.3 z m -2.8,-36.3 -68.8,7 -0.3,1.7 69.2,-7 z m 2.1,27.3 c -23.4,-1.2 -49.2,-2.6 -73.7,-3.9 l -0.3,1.7 c 24.6,1.3 50.5,2.7 74.1,3.9 z m -5.6,-115.8 c -19.5,-1.1 -40.1,-2.2 -56.9,-3.2 l -0.1,1.7 c 16.9,0.9 37.8,2.1 57.4,3.2 -0.1,-0.5 -0.2,-1.1 -0.4,-1.7 z m -3.9,-17.5 c -15.4,2.2 -34.6,4.9 -52.7,7.4 l -0.1,1.7 c 7.7,-1.1 16.2,-2.3 24.6,-3.4 9.9,-1.4 19.7,-2.8 28.6,-4.1 -0.1,-0.5 -0.2,-1.1 -0.4,-1.6 z M 558,309.1 l -8.4,11.7 1.3,1.1 8.5,-11.8 z m 7.9,5.8 -1.5,-0.4 -0.4,-0.4 4.5,22.6 1.9,0.7 z m 7.7,2 -2.2,20.8 1.6,0.6 2.2,-21 z m 1.7,-76.9 -14.9,18 1.2,1.2 14.3,-17.3 c -0.2,-0.6 -0.4,-1.3 -0.6,-1.9 z m 40.6,54.7 c -0.2,-0.6 -0.4,-1.1 -0.6,-1.6 l -29.5,10.1 c 0.1,0.7 0.1,1.2 0.1,1.6 v 0.2 z m 5.6,22 -35.1,-4.3 c 0.1,0.6 0.1,1.1 0.1,1.7 l 35.4,4.4 c -0.1,-0.7 -0.3,-1.3 -0.4,-1.8 z m -80.9,-22 -0.3,-0.2 -1.5,16.7 1.6,1.4 1.5,-16.8 z m -6.6,-6 -10.4,9.4 1.3,1.1 10.3,-9.3 z m -11.5,-10.4 -3.9,15.5 1.4,1.2 3.9,-15.4 z m -36.9,-3.7 -1.7,0.3 3.3,9.6 1.7,-0.2 z m -12,2.3 5.9,8.5 1.9,-0.2 -6.1,-8.6 z m 16.7,-41.4 -4.8,1.6 1.4,1.3 4.9,-1.7 z m -41.8,33.2 -1.9,-1 1.5,7.7 1.9,1.2 z m 8.9,16.3 -0.3,4.3 1.7,-0.4 0.3,-4.3 z m -7.2,1.3 0.8,4.3 1.6,-0.4 -0.8,-4.2 z m 7.8,-12.5 -0.5,7.4 1.6,1 0.4,-7.5 z m -20.3,14.9 -0.5,4.8 1.7,-0.4 0.5,-4.8 z m 2.3,-24.6 -0.6,6 1.6,1 0.6,-6.1 z m 75.4,-3.9 -6.3,28.4 1.6,0.6 6,-26.9 z m -21.1,14.6 3.4,9.6 2.1,0.8 -3.7,-10.3 z m 7.1,-29.9 -3.9,6.1 1,1.6 4.3,-6.6 z m 124.2,88.6 -36.8,11.2 c 0.1,0.6 0.1,1.2 0.1,1.7 L 626,335.1 c -0.1,-0.5 -0.2,-1 -0.4,-1.6 z m 8.7,33 -44.9,-4.4 v 1.7 l 45.4,4.4 c -0.2,-0.5 -0.3,-1.1 -0.5,-1.7 z m -29.9,-116.2 -1.2,1.7 24.7,0.7 1.5,-1.6 z m 9.6,-15.6 -0.7,1.6 18.5,9 0.5,-1.7 z m 6.1,-68.3 -0.7,1.8 6.8,-0.8 0.3,-1.7 z m 24.1,-2.7 0.1,0.4 -0.2,1.3 3.2,-0.4 0.1,-1.7 z m -11.9,49.8 -0.7,1.5 c 2.8,1.1 5.4,2.2 7.9,3.1 l 0.5,-1.6 c -2.4,-0.9 -5,-1.9 -7.7,-3 z m -2.9,-1.1 c -3.1,-1.2 -6.3,-2.5 -9.6,-3.8 l 0.2,1.9 c 3.3,1.3 6.7,2.7 9.9,3.9 z m -10.5,11 -0.8,1.7 19.5,-0.5 0.5,-1.7 c -5.7,0.2 -12.4,0.4 -19.2,0.5 z m 5,-34.1 -5.6,1.2 0.2,1.7 5.9,-1.3 z m -6.6,-16 -0.5,1.1 0.1,0.5 7.6,1.4 0.3,-1.6 z m 25.5,4.7 -0.2,1.7 4.1,0.8 0.1,-1.7 z m -0.9,7.4 -0.2,1.8 4.7,-1 0.1,-1.8 z m -68,50.3 -24.3,9.5 0.2,1.7 24.6,-9.7 c -0.2,-0.4 -0.4,-0.9 -0.5,-1.5 z m -4.6,-14.1 -20.5,17.1 0.3,2.1 20.8,-17.3 c -0.2,-0.8 -0.4,-1.3 -0.6,-1.9 z m 7.5,-139.9 c -1.7,0.5 -3.5,0.9 -5.2,1.4 l -0.4,1.9 c 2.1,-0.6 4.1,-1.1 5.9,-1.6 z m -7.4,10.8 -0.6,2.4 7.9,-4.9 0.3,-2.2 z m 5.1,-24.3 c -1.3,0.6 -2.7,1.3 -4.2,1.9 l 0.3,1.7 c 1.4,-0.7 2.8,-1.3 4.1,-1.9 z m -14.8,49.4 -0.3,1.7 13.4,-1.8 0.3,-1.7 z m -2.6,14.7 -0.4,2 14.5,-6 0.3,-1.9 z m -5.9,37.8 -0.3,1.9 15.4,-6.5 0.3,-1.9 z m 2.5,-17.7 -0.3,1.4 -0.1,0.3 14.2,2.4 0.3,-1.7 z m 12.1,30.3 -16.2,-0.6 -0.2,1.7 16.5,0.6 c 0,-0.6 0,-1.1 -0.1,-1.7 z m 0.3,7 -19.5,15.6 -0.3,2.5 19.9,-16 c 0,-0.7 0,-1.4 -0.1,-2.1 z"
   id="path70" />
					</g>
				</g>
				<polygon
   class="st5"
   points="499.6,144.7 492.5,150.2 481.6,153.1 474,150.2 472.3,144.7 461.8,142.2 453.4,143 445.4,140.9 446.7,134.2 454.7,132.1 458.5,129.1 461.8,124.5 459.7,120.7 449.2,118.2 441.6,117.3 451.7,111.1 455.5,108.7 467.7,104.5 471.1,104.5 479,106.4 487,100.6 489.5,93.4 496.3,94.3 487.9,86.7 490,79.9 498,80.4 504.7,75.4 504.3,66.9 512.7,75.4 519,70.7 520.7,61.9 519.4,56.4 523.2,50.6 520.3,38.8 527.8,37.1 532.9,32 540,32.5 544.6,21.8 550.1,28.7 553.5,36.7 550.5,43.4 558.5,48 564,50.6 569,55.1 579.5,45.9 582.9,40.7 587.5,37.9 590.9,33.3 604.7,40.7 614.4,35.8 617.8,37.1 622.4,45.9 630,50.6 643.9,50.6 646.8,61.9 636.7,63.1 625.4,68.2 617.4,75.4 626.6,75.4 640.9,75.4 646.8,69.8 653,71.1 669.1,75.4 662.3,79.9 651,82.5 641.3,90 633.7,90 630,96.5 633.7,98.9 646.8,104.5 659,104.5 665.7,112.7 673.7,116.9 677.1,116.1 672.9,119.4 664.4,118.6 655.6,119.9 648.9,122.8 636.7,122.4 629.6,134.2 625.8,141.8 618.2,134.2 609.6,122.8 599.3,117.8 594.2,114.8 583.3,116.1 585.4,125.8 593,132.5 582.1,134.2 572,131.7 564.4,129.1 559.4,134.2 553.9,138 557.8,145.4 556.4,155.6 550.9,158.2 547.1,155.6 540.8,150.6 537.1,144.7 533.3,146.4 527.8,150.2 515.2,146.4 514.4,140.9 503,144.7 "
   id="polygon76" />
				<polygon
   class="st5"
   points="412.9,316.4 409.5,319 404.3,320.4 400.8,319 400,316.4 395,315.2 391.1,315.6 387.3,314.6 387.9,311.4 391.6,310.5 393.4,309.1 395,306.9 394,305.1 389.1,303.9 385.5,303.5 390.2,300.6 392,299.4 397.8,297.5 399.4,297.5 403.2,298.4 406.9,295.6 408.1,292.2 411.3,292.6 407.3,289 408.3,285.8 412.1,286 415.3,283.7 415.1,279.7 419,283.7 422,281.5 422.8,277.3 422.2,274.8 424,272 422.6,266.4 426.1,265.6 428.6,263.2 431.9,263.4 434.1,258.4 436.7,261.7 438.3,265.4 436.9,268.6 440.7,270.8 443.2,272 445.6,274.1 450.6,269.8 452.2,267.3 454.3,266 455.9,263.8 462.5,267.3 467,265 468.6,265.6 470.8,269.8 474.4,272 480.9,272 482.3,277.3 477.5,277.9 472.2,280.3 468.4,283.7 472.8,283.7 479.5,283.7 482.3,281.1 485.2,281.7 492.8,283.7 489.6,285.8 484.3,287.1 479.7,290.6 476.1,290.6 474.4,293.6 476.1,294.8 482.3,297.5 488.1,297.5 491.2,301.3 495,303.3 496.6,302.9 494.6,304.5 490.6,304.1 486.5,304.7 483.3,306.1 477.5,305.9 474.2,311.4 472.4,315 468.8,311.4 464.8,306.1 459.9,303.7 457.5,302.3 452.4,302.9 453.3,307.5 456.9,310.7 451.8,311.4 447,310.3 443.4,309.1 441,311.4 438.5,313.2 440.3,316.8 439.6,321.6 437.1,322.8 435.3,321.6 432.3,319.2 430.5,316.4 428.8,317.2 426.1,319 420.2,317.2 419.8,314.6 414.5,316.4 "
   id="polygon78" />
				<polygon
   class="st5"
   points="552.9,270.8 542,268.3 549.6,264.1 556.3,255.6 555.5,250.6 540.7,251.5 533.6,251.9 526.4,247.7 523.9,243.1 528.9,231.7 539.9,229.6 550.8,225.4 545.8,217 542,207.8 549.6,209.5 556.7,210.3 559.7,206.9 576.9,201.5 590.6,201.5 597.5,204.2 601.7,201.5 607.2,196.4 607.2,188.4 610.1,180.4 617.7,180.4 625.7,188 632.8,185.9 631.1,174.5 634.9,172.9 645,171.2 650.9,160.3 654.4,152.3 662.2,154 664.3,156.5 667.3,164.5 667.3,172 667.3,182.5 677.4,177.9 683.7,177.9 692.5,179.6 699.2,191.5 706.9,196.4 715.6,203.6 724.1,196.8 734.6,206.9 743.8,216.6 743.8,228.4 757.6,231.7 769,231.7 778.7,243.1 778.7,251.9 759.8,251.5 745.9,249 737.1,257.4 736.2,260.3 743.4,263.7 751.8,262.9 757.2,265.8 771.5,272.9 782.5,272.5 789.3,280.1 771.5,281.8 757.2,289.3 748,294.8 739.2,293.5 728.7,302.8 718.1,310.8 705.1,305.7 699.2,299.8 695,291.4 697.5,281.3 690,279.2 681.6,286.4 682.4,293.1 690,310.8 680.3,307.4 672.8,315.8 664.8,309.9 670.7,298.6 667.3,291 666.9,280.5 654.4,277.6 650.9,285.5 651.7,291.4 652.1,295.2 659.1,301.4 654.4,306 645.8,308.3 632.8,309.2 624.4,307.4 613.9,309.5 612.6,303.2 611,296.5 603,304 597.5,302.8 591.4,301.1 574.8,297.7 569.3,296.9 571,292.2 587.8,291.4 598.3,286 599.2,279.7 608.4,279.2 612.2,266.2 602.1,266.2 590.7,270 579,269.6 566,274.2 "
   id="polygon80" />
			</g>
			<g
   class="st4"
   id="g126">
				<g
   class="st7"
   id="g98">
					<polygon
   class="st17"
   points="314.7,403.2 332.1,414.3 342.7,416.7 351.4,421.7 356.9,428.1 342.7,429.8 335.3,429.1 329.9,431.6 323.6,437.3 319.7,439.8 314.7,444.7 308.4,450.7 318.3,450.7 323.3,446.8 329.9,446.8 329.9,450.7 326.1,455.3 317.9,461 312.3,464.2 311.6,470.5 312.6,474.1 316.5,475.9 323.3,479.1 329.9,482.2 335.3,480.5 337.4,472.3 337.4,467.4 347,470.5 348.7,475.9 347,482.2 355.1,484.7 357.5,484.7 365.7,488.6 367.2,493.6 371.4,495.7 370.7,490.7 374.5,490.4 379.5,492.5 385.7,492.1 388.4,488.2 395.1,487.9 397.9,495.7 400.4,499.3 406.7,498.5 406.7,491.5 412.8,490 419.1,493.2 423.8,495.7 425.6,486.5 436.6,491.8 440.1,494.3 445.1,487.9 441.2,480.1 447.9,475.9 453.5,474.8 458.2,473.7 464.2,474.8 464.5,466.6 453.5,462.7 464.2,463.1 470.5,461 475.5,459.9 481.9,461.4 487.2,462.1 489,459.9 498.2,461 498.5,454.9 485.8,451.4 480.5,448.6 480.5,444 489,444 497.1,442.2 503.5,438 507.8,433.7 504.6,431.6 494.3,433.4 492.2,429.8 481.2,432 473,433.7 474.5,429.8 481.9,423.5 490.4,419.9 497.1,418.1 503.1,417.5 507.8,411 501.4,410.7 495.3,412.5 485.1,417.5 473.7,415.3 464.5,413.2 465.2,406.8 470.5,403.6 472.7,402.2 476.2,399.7 476.9,396.2 481.2,389.8 478.7,386.3 470.5,386.3 464.5,387.3 453.2,389.4 448.3,387 462.1,380.3 474.1,376 486.2,377.4 496.1,378.1 502.1,379.5 506,379.2 507.8,375.3 500.3,372.8 496.8,370.7 495.7,368.9 491.8,366.8 494.6,363.6 498.2,360.4 496.8,356.9 489,348.4 485.4,350.2 480.5,353.7 475.8,348.4 473,348.4 467,352.6 463.5,353.7 458.5,351.9 455,348.4 450.4,350.2 446.5,351.9 440.8,351.5 435.8,357.6 436.6,361.5 430.6,367.5 423.8,363.6 417.3,359.7 410.7,357.6 404.8,353.3 398.7,350.5 390.2,352.6 385.7,356.2 400.4,357.6 406.7,360.4 400.8,360.4 398.7,367.5 399,371.8 392.3,371.8 383.8,372.1 377.8,379.2 374.5,378.8 367.5,381.7 361.8,384.5 356.9,392.3 353.7,395.1 342.4,393.3 334.6,397.2 329.9,403.2 321.5,404.3 "
   id="polygon84" />
					<polygon
   class="st17"
   points="342.2,461.6 324.9,472.5 314.2,475 305.6,480 300.1,486.3 314.2,488.1 321.7,487.4 327,489.9 333.4,495.5 337.3,498 342.2,503 348.6,509 338.7,509 333.7,505.1 327,505.1 327,509 330.9,513.6 339.1,519.3 344.7,522.4 345.4,528.8 344.3,532.3 340.4,534.1 333.7,537.3 327,540.5 321.7,538.8 319.6,530.6 319.6,525.6 310,528.8 308.2,534.1 310,540.5 301.9,543 299.5,543 291.2,546.9 289.8,551.8 285.6,554 286.3,549 282.5,548.7 277.4,550.8 271.3,550.5 268.6,546.6 261.9,546.2 259,554 256.5,557.5 250.3,556.8 250.3,549.7 244.1,548.3 237.9,551.5 233.1,554 231.4,544.8 220.4,550.1 216.9,552.6 211.9,546.2 215.8,538.4 209.1,534.1 203.4,533.1 198.8,532 192.8,533.1 192.4,524.9 203.4,521.1 192.8,521.4 186.5,519.3 181.4,518.2 175.1,519.6 169.8,520.3 168,518.2 158.8,519.3 158.5,513.3 171.2,509.7 176.5,506.9 176.5,502.3 168,502.3 159.8,500.5 153.5,496.2 149.2,492 152.4,489.9 162.7,491.7 164.8,488.1 175.8,490.2 183.9,492 182.5,488.1 175.1,481.7 166.6,478.2 159.8,476.4 153.8,475.7 149.2,469.4 155.6,469 161.6,470.7 171.9,475.7 183.2,473.6 192.4,471.5 191.7,465.1 186.5,461.9 184.3,460.5 180.8,458 180,454.5 175.8,448.1 178.2,444.5 186.5,444.5 192.4,445.6 203.7,447.7 208.7,445.3 194.9,438.5 182.9,434.3 170.8,435.7 160.9,436.4 154.9,437.8 151,437.5 149.2,433.6 156.7,431.1 160.2,428.9 161.3,427.2 165.2,425.1 162.3,421.9 158.8,418.7 160.2,415.1 168,406.7 171.5,408.4 176.5,412 181.1,406.7 183.9,406.7 189.9,410.9 193.5,412 198.5,410.2 202,406.7 206.6,408.4 210.5,410.2 216.2,409.9 221.1,415.9 220.4,419.8 226.4,425.8 233.1,421.9 239.6,418 246.3,415.9 252.2,411.6 258.3,408.8 266.8,410.9 271.3,414.4 256.5,415.9 250.3,418.7 256.2,418.7 258.3,425.8 258,430 264.7,430 273.2,430.4 279.2,437.5 282.5,437.1 289.5,440 295.1,442.8 300.1,450.6 303.2,453.4 314.6,451.6 322.4,455.5 327,461.6 335.5,462.6 "
   id="polygon86" />
					<polygon
   class="st17"
   points="70.1,360.3 87.4,371.2 98,373.7 106.6,378.7 112.2,385 98,386.8 90.6,386.1 85.3,388.6 78.9,394.3 75,396.7 70.1,401.7 63.7,407.7 73.6,407.7 78.5,403.8 85.3,403.8 85.3,407.7 81.4,412.3 73.3,418 67.6,421.1 66.8,427.6 67.9,431.1 71.8,432.8 78.5,436 85.3,439.3 90.6,437.5 92.7,429.3 92.7,424.4 102.3,427.6 104,432.8 102.3,439.3 110.4,441.7 112.8,441.7 121.1,445.6 122.4,450.5 126.7,452.7 126,447.7 129.8,447.4 134.9,449.5 141,449.2 143.7,445.3 150.4,444.9 153.3,452.7 155.7,456.2 161.9,455.5 161.9,448.4 168.1,447 174.4,450.2 179.1,452.7 180.9,443.5 191.9,448.8 195.4,451.3 200.4,444.9 196.5,437.1 203.2,432.8 208.9,431.8 213.5,430.7 219.5,431.8 219.8,423.7 208.9,419.8 219.5,420.1 225.8,418 230.8,416.9 237.2,418.3 242.5,419 244.3,416.9 253.5,418 253.9,412 241.1,408.4 235.8,405.6 235.8,401 244.3,401 252.4,399.2 258.8,395 263,390.7 259.9,388.6 249.6,390.4 247.5,386.8 236.5,388.9 228.4,390.7 229.7,386.8 237.2,380.4 245.7,376.9 252.4,375.1 258.5,374.4 263,368.1 256.7,367.7 250.7,369.4 240.4,374.4 229.1,372.3 219.8,370.2 220.6,363.8 225.8,360.6 228,359.2 231.5,356.7 232.3,353.2 236.5,346.8 234,343.3 225.8,343.3 219.8,344.3 208.5,346.5 203.5,344 217.4,337.2 229.4,333 241.4,334.4 251.4,335.1 257.4,336.5 261.3,336.2 263,332.3 255.6,329.8 252.1,327.7 251,325.9 247.1,323.8 250,320.6 253.5,317.4 252.1,313.8 244.3,305.4 240.7,307.1 235.8,310.7 231.2,305.4 228.4,305.4 222.3,309.6 218.8,310.7 213.8,308.9 210.3,305.4 205.7,307.1 201.8,308.9 196.1,308.6 191.2,314.6 191.9,318.5 185.8,324.5 179.1,320.6 172.7,316.7 166,314.6 160.1,310.3 154,307.5 145.5,309.6 141,313.2 155.7,314.6 161.9,317.4 156.1,317.4 154,324.5 154.3,328.7 147.6,328.7 139.1,329.1 133.1,336.2 129.8,335.8 122.8,338.7 117.2,341.5 112.2,349.3 109,352.1 97.7,350.4 89.9,354.3 85.3,360.3 76.8,361.3 "
   id="polygon88" />
					<polygon
   class="st12"
   points="217.7,393.5 220.7,396.6 217.5,393.5 "
   id="polygon90" />
					<polygon
   class="st13"
   points="393.8,416.5 392.7,425.4 384.1,419.8 377,420.1 372.1,429.5 365.4,429.5 358.3,431.8 356.4,433.6 356.1,446.4 350.8,439.2 347.5,429.5 340.3,425.4 332.5,422.4 329.5,416.5 318.6,412.5 306,414.5 311.9,410.1 317.2,407 329.2,405.7 330.3,400.3 323.2,399.6 317.2,397.7 317.2,394.8 313,386.6 305.6,386.6 301.8,391 294.5,393.5 284.3,393.5 287,389.9 294.5,383.9 300.7,377.9 306,374.9 310.4,373.4 308.2,365.9 302.9,358.6 294.5,363.3 289.9,362.6 280.5,355.1 275.7,360.7 270.9,366.7 270.9,360 262.9,355.1 257.3,362.9 258.8,371.4 255.1,375.9 259.2,386.6 253.6,384.2 248.4,374.5 243.9,367.4 241.6,372.7 238.9,370.8 234.2,368.5 230.4,374.5 230.8,380.5 227.4,378.6 221.4,376.4 217.3,379.4 211.3,386.6 214.3,390.4 217.5,393.5 209.8,393.5 203.4,397 197.8,394.7 191.8,395.4 191.8,403.3 187.7,405.6 184,404.4 179.5,403.3 179.2,411.9 189.3,427.2 179.5,426.9 177.7,432.1 171.7,446.4 165.7,442.9 160.8,446.4 159,441.8 151.1,440 145.5,441.1 143.3,435.9 139.2,433.6 129.4,432.8 126.8,428 119.4,425.4 113,422.4 114.4,419.8 129.8,413.4 129.4,409.3 121.2,410.4 108.5,410.4 97.6,405.9 95,404.8 92.7,396.2 97.6,391.7 101,393.5 104.5,398.5 112.6,401.4 119.4,399.6 138,393.5 126.4,389.1 130.9,389.5 142.9,384.2 148.1,377.9 160.5,373.4 160.5,368.9 151.1,362.9 142.9,358.6 137.4,368.9 131.3,363.7 122.3,367.4 117.1,370.8 107.4,373.8 92,378.6 90.5,371.5 101.4,362.2 104.5,351.7 107,345 112.6,343.5 117.1,340.1 124.5,331.1 127.2,334.5 132.8,329.3 144.8,327.4 136.9,319.5 130.2,322.2 122.7,323.6 113,322.5 104.5,322.9 93.5,320.3 98.7,317.3 104.5,313.2 114.1,309.1 127.2,309.1 133.2,307.2 135.4,300.7 148.9,294.9 158.6,294.9 165,286.6 166.1,282.9 178,278.7 179.5,273.9 175.1,272 165,273.2 149.2,273.5 141,278.7 134.7,275.8 127.5,274.3 119.4,278.7 101.7,280.2 98.7,273.2 104.5,271.7 109.6,267.2 115.2,257.5 125.7,261.6 131.3,257.5 135,251.1 141.4,246.2 152.2,245.9 145.9,244 145.9,239.5 151.6,236.1 156,234.6 160.8,222.7 163.4,223.4 167.6,222.7 177.3,220.1 181,219.3 183.6,227.2 198.6,223.8 196.4,220.4 189.6,215.6 188.5,211.8 183.6,207.8 187.7,204.3 193.4,201.4 199.4,196.8 203.9,201.4 204.4,209.1 208.7,215.2 214.5,217.1 224.1,216.3 219.2,210.7 216.2,207.8 222.2,201.4 224.4,197.3 225.9,193.1 234.9,191.3 234.2,184.5 236,180.8 238.9,189.4 243.5,198.4 250.7,200.6 257.7,196.5 254.7,190.5 260.7,185.7 265.5,181.9 262.2,176.8 270.9,171.8 276,174.4 277.9,176.8 286,176.8 283.9,185.7 282.8,193.1 282.4,201.4 287,207.8 293.2,207.8 298.5,205.5 297.4,196.1 294.5,185.3 294.5,183.4 299.2,184.9 307,183.8 309.3,181.9 311.9,173.3 313.8,179.3 322,179.7 326.5,176.8 328.4,173.7 332.9,171.8 340.3,180.4 342.8,184.1 347.5,183 354.2,186.8 355,198.7 356.1,204.3 360.2,201.4 371.8,201 375.5,204.3 369.5,204.3 365.1,207.8 362.4,214.1 365.1,219 365.1,225.7 368.7,228.6 376.2,227.2 381.1,230.1 381.9,227.2 392.3,228.3 395,236.1 392,237.3 388.2,243.6 386,247 393.8,247 396,254.9 396.4,256.3 402.4,258.2 409.5,260.1 417.4,263.1 417,265.1 407.7,272.8 414.8,275.8 420.4,278.7 419.5,280.6 415.5,289.2 423.7,293.4 428.2,294.9 437.3,297.1 449.6,298.6 448.8,302.7 445.1,304.2 441.7,315.1 435.4,312.8 430.1,310.9 422.2,308.3 417.5,314.4 407.3,314.3 413.7,321.5 403.6,326.3 402,332.6 402.8,341.6 429.7,341.6 435,348 443.6,346.5 451.4,341.9 455.2,349.4 449.2,349.4 450.3,355.1 445.1,360.3 437.3,364.4 430.5,362.6 421.1,358.6 417.8,368.5 410.3,365.5 402.4,364.4 402.4,372.7 395.3,375.2 389,376 386,380.5 386,386.6 394.2,389.1 402.8,386.6 411.8,386.6 404.7,391.3 400.6,396.6 402.9,400.7 413.3,400.7 423.7,402.9 432.4,402.9 437.3,405.6 426.4,410.1 415.5,407.5 415.2,414.2 404.7,416.5 "
   id="polygon92" />
					<path
   class="st17"
   d="m 273.9,231.2 c 0,0 -18.7,-0.1 -19.4,-0.1 -0.8,0.1 -15.3,3.4 -15.3,3.4 l -15.7,-4.7 -5.9,2.7 -4.5,9.3 -8.2,-14.6 -6.3,-3.4 -11.1,-3.2 -3.8,6.6 -6.2,14.2 18.4,-5.5 9,5 -7.2,14 11.2,4.7 11.3,-1.6 4.5,0.8 c 3.6,-0.6 7.2,-1.3 10.8,-2.1 l -2.5,-4.4 9.5,-1.8 14.6,-4.5 4.5,1.1 6.7,-6.7 c 0,0 4.7,1.6 4.6,1.9 -0.1,0.3 17.8,-7.5 17.8,-7.5 z"
   id="path94" />
					<path
   class="st17"
   d="m 358.1,256.1 -2.1,1 -11.1,-9.2 -12.9,5.8 -5.6,0.7 -8.9,2.7 -3.9,-8.1 -18,11.6 -4.1,3.4 2.2,-10.5 c 0,0 -5.2,-2.5 -4.9,-4.2 0.1,-0.3 0.3,-0.9 0.6,-1.6 -2.1,-1.4 -4.2,-3 -6.3,-4.4 l -0.3,1.7 -2.3,15.8 7.6,15.1 11.9,-3.5 3.9,-1.4 c 0,0 13.6,4.3 14.6,4.6 1,0.3 10.6,-7.2 10.6,-7.2 l 3.8,-7 24.9,10.1 4.5,-12.8 7.7,-4.7 z"
   id="path96" />
				</g>
				<g
   class="st7"
   id="g122">
					<path
   class="st8"
   d="m 421.8,322 v 2.3 l -10.5,-1.5 -1.5,-0.2 -3.7,-0.5 -14.7,3.5 -1.3,0.3 -7.5,1.8 -2.7,1.9 -0.9,0.7 -8.7,6.2 -1,0.7 -2.4,1.7 0.3,1.6 0.2,1.1 2.9,15.2 5.2,-3 1.1,-0.6 5.5,-3.2 1,-0.6 10.7,-6.3 1.1,-0.7 4.2,-2.5 1.4,0.6 1.2,0.5 -6.7,5 -1.2,0.7 -7.4,5.5 -0.9,0.7 -8.5,6.2 -1.1,0.8 -0.1,0.1 -9,7.8 -0.6,0.3 -1,0.6 -9.8,5.4 -1,0.6 -8.3,4.5 -1.1,0.6 -0.6,0.4 -9.6,15.4 -0.6,1 -1,1.5 -15.7,15.7 -0.2,0.5 -4.6,13.2 -0.4,1 -3.2,9.3 -0.4,1.1 -0.6,1.6 -14.3,16.9 -0.9,1.1 -0.1,0.1 c 0,0 -0.3,15.2 -0.6,30.7 0,0.4 0,0.8 0,1.1 -0.2,8.6 -0.3,17.2 -0.4,23.1 0,0.4 0,0.8 0,1.1 -0.1,3.9 -0.1,6.5 -0.1,6.7 0,0.5 2.8,11.6 5.7,23.2 0.1,0.4 0.2,0.8 0.3,1.2 2.3,8.9 4.5,17.8 5.6,22.2 0.1,0.4 0.2,0.8 0.3,1.1 0.3,1.1 0.4,1.6 0.4,1.6 l 4.3,22.3 0.2,1.1 3.7,19 1.6,8.1 0.2,1.1 2.2,11.2 0.2,1.1 1.4,7.1 h -89.9 v -107 l 2.1,-5.8 0.4,-1.1 8.5,-23.3 0.4,-1.1 7.7,-21.1 0.4,-1.1 8.6,-23.5 0.4,-1.1 3,-8.2 -0.8,-10.5 -0.1,-1.1 -1.6,-20.1 -0.1,-1.2 -0.1,-1.3 -12.7,-14.2 -0.7,-0.8 -12.7,-14.2 -0.9,-1 -6.7,-7.4 -1,-0.5 -10.6,-11.8 -0.8,-0.8 -1.8,-2.1 -7.3,-3 -1.1,-0.5 -8.4,-3.4 -1.1,-0.5 -8.1,-3.3 -1.1,-0.5 -6.2,-2.5 -10.5,-5 -1.2,-0.6 -6.7,-3.2 0.4,-0.7 0.8,-1.5 8.5,3.6 1.3,0.5 5.9,2.6 -1.6,-5.2 -0.4,-1.1 -4.7,-15 2.3,-2.3 6.4,14.9 0.5,1 3.3,7.6 3.1,0.8 1.1,0.3 12.1,3.2 1.2,0.3 3.6,1 1.1,0.3 7,1.9 1.7,-17.6 0.1,-1.1 1.8,-17.8 0.1,-1.1 0.4,-4 0.2,-1.5 0.2,-1.6 -8,-16 -0.5,-1 -6.2,-12.5 -1,-1.9 -0.2,-0.1 -0.3,-0.1 -1.3,-0.6 -11.7,-5.2 -1,-0.5 -5.7,-2.5 0.3,-0.6 0.1,-0.2 0.6,-1.1 0.2,-0.4 0.7,0.3 2,0.8 3.3,1.3 1.1,0.4 13.1,5.1 0.5,0.9 0.6,1 8.5,14.9 0.6,1 3.8,6.9 0.6,1.1 0.4,-0.9 3.8,-9.3 0.5,-1.3 3.8,-9.4 0.5,-1.1 1.1,-2.8 2.3,2.3 -0.7,1.9 -0.4,1.1 -2.5,6.9 -0.5,1.3 -4,11 -0.4,1.1 -0.5,1.4 1.5,4.6 0.4,1.1 0.3,1 v 47.1 l 0.5,0.5 0.8,0.8 23.4,23.4 7.5,-16 0.5,-1 1,-2.1 -5.6,-20.2 0.7,-3.1 0.3,-1.1 3,-12.6 h 2.7 l -1.9,13.7 -0.2,1.1 -0.1,0.8 5.2,18.4 1.5,6.2 -0.4,1.8 -0.3,1.1 -3.6,16.4 -0.2,0.9 0.2,0.3 3.5,5.3 0.6,0.9 12.6,18.8 0.5,0.7 0.1,0.4 6,23 12.3,-6.7 1.3,-3.5 0.4,-1 5.5,-15.5 0.4,-1 1,-2.6 20.3,-13 c 0,0 0.5,-0.7 1.1,-1.7 0.2,-0.3 0.4,-0.6 0.6,-0.9 2.9,-4.4 8.2,-12.7 8.2,-13.5 0,-0.3 -0.5,-1.7 -1.3,-3.5 -0.3,-0.6 -0.5,-1.2 -0.8,-1.8 -1.6,-3.7 -3.8,-8.6 -4.9,-11.4 -0.2,-0.4 -0.3,-0.8 -0.4,-1.1 -0.3,-0.6 -0.4,-1 -0.4,-1.2 0,-0.3 0.5,-2.1 1.3,-4.5 0.1,-0.4 0.2,-0.7 0.4,-1.1 0.9,-2.7 1.9,-6 3,-9.1 0.2,-0.4 0.3,-0.8 0.4,-1.2 1.5,-4.6 2.8,-8.5 2.8,-8.5 v -17.3 l 0.4,-0.4 0.7,-0.7 0.3,4.3 0.1,1.1 0.8,11.3 v 0.1 l 0.1,-0.1 5.9,-10.8 0.6,-1.1 4.6,-8.3 1.1,1.1 -3.4,7.3 -0.5,1.1 -5,10.6 -0.5,1.7 -0.4,1.1 -1.9,6 -0.3,1.4 -3.7,11.7 -0.4,1.1 -0.6,1.8 0.8,1.4 0.6,1 7.6,14.3 c 0,0 7.3,-2.5 14.1,-5.1 0.4,-0.2 0.7,-0.3 1.1,-0.4 2.2,-0.8 4.4,-1.6 6.1,-2.4 0.4,-0.2 0.8,-0.3 1.1,-0.5 2.1,-0.9 3.4,-1.5 3.4,-1.8 v -17.7 c 0,-2.2 0,-3.7 0,-3.7 l 6.5,-5.6 0.9,-0.8 5.5,-4.8 0.9,-0.7 4.1,-3.5 13,-1.7 1.2,-0.2 10.1,-1.3 1.7,-2.8 0.6,-1.1 4.6,-7.5 h 2.3 l -5.1,10.2 -0.6,1.1 -0.1,0.1 0.2,0.1 1.6,0.4 z"
   id="path100" />
					<path
   class="st10"
   d="m 411.8,307.4 -6.5,13.4 -24.9,5 -16.1,12.3 v 24.1 l -28.8,10.2 V 369 c 0,0 7.3,-2.5 14.1,-5.1 0.4,-0.2 0.7,-0.3 1.1,-0.4 2.2,-0.8 4.4,-1.6 6.1,-2.4 0.4,-0.2 0.8,-0.3 1.1,-0.5 2.1,-0.9 3.4,-1.5 3.4,-1.8 v -17.7 c 0,-2.2 0,-3.7 0,-3.7 l 6.5,-5.6 0.9,-0.8 5.5,-4.8 0.9,-0.7 4.1,-3.5 13,-1.7 1.2,-0.2 10.1,-1.3 1.7,-2.8 0.6,-1.1 4.6,-7.5 z"
   id="path102" />
					<path
   class="st10"
   d="m 400.4,340.5 c -10.9,7.6 -31.2,21.7 -31.5,21.7 -0.2,-0.1 1.2,-5.5 1.2,-5.5 l 5.2,-3 1.1,-0.6 5.5,-3.2 1,-0.6 10.7,-6.3 1.1,-0.7 4.2,-2.5 z"
   id="path104" />
					<path
   class="st10"
   d="m 334.8,374.8 -6.1,15.5 -24.6,15.7 c 0,0 -6.7,23.5 -7,24.3 -0.3,0.7 -17.6,14.9 -17.6,14.9 l -2.3,-13.4 12.3,-6.7 1.3,-3.5 0.4,-1 5.8,-15.3 0.4,-1 1,-2.6 20.3,-13 c 0,0 0.5,-0.7 1.1,-1.7 0.2,-0.3 0.4,-0.6 0.6,-0.9 2.9,-4.4 8.2,-12.7 8.2,-13.5 0,-0.3 -0.5,-1.7 -1.3,-3.5 -0.3,-0.6 -0.5,-1.2 -0.8,-1.8 -1.6,-3.7 -3.8,-8.6 -4.9,-11.4 -0.2,-0.4 -0.3,-0.8 -0.4,-1.1 -0.3,-0.6 -0.4,-1 -0.4,-1.2 0,-0.3 0.5,-2.1 1.3,-4.5 0.1,-0.4 0.2,-0.7 0.4,-1.1 0.9,-2.7 1.9,-6 3,-9.1 0.2,-0.4 0.3,-0.8 0.4,-1.2 1.5,-4.6 2.8,-8.5 2.8,-8.5 v -17.3 l 0.4,-0.4 1.1,18.8 -7.2,22.7 z"
   id="path106" />
					<polygon
   class="st10"
   points="248,334.6 250.9,322 253.2,322 248.3,338.8 254.4,359.4 247.7,384.4 243.6,378 251.1,362.1 251.6,361.1 252.6,359 247,338.8 247.7,335.6 "
   id="polygon108" />
					<g
   class="st18"
   id="g114">
						<polygon
   class="st19"
   points="177.5,265.9 183.2,268.4 184.2,268.9 195.9,274.1 197.2,274.7 197.5,274.9 195.9,272 177.8,265.2 177.7,265.4 "
   id="polygon110" />
						<polygon
   class="st10"
   points="204.9,289.3 205.4,290.3 213.3,306.3 213.2,307.9 213,309.4 212.6,313.5 212.5,314.6 210.7,332.4 210.6,333.5 208.9,351.1 214.8,354.3 215.8,348.4 214.8,305.4 198.7,276.9 "
   id="polygon112" />
					</g>
					<path
   class="st10"
   d="m 256.3,456.7 3,-8.2 -0.8,-10.5 -0.1,-1.1 -1.6,-20.1 -0.1,-1.2 -0.1,-1.3 -12.7,-14.2 -0.7,-0.8 -12.7,-14.2 -0.9,-1 -6.7,-7.4 -0.8,-0.8 -10.6,-11.8 -0.8,-0.8 -1.8,-2.1 -7.3,-3 -1.1,-0.5 -8.4,-3.4 -1.1,-0.5 -8.1,-3.3 -1.1,-0.5 -6.2,-2.5 -10.5,-5 -1.2,-0.6 -6.7,-3.2 0.4,-0.7 18.8,7.5 19.4,4.9 18.9,7.7 12.7,15.3 19.4,19.5 13.4,18.7 7.8,12.2 v 48.6 l -15.7,43.4 -8.5,32.5 4.8,31.4 v 29.1 l 11.1,4.5 40.7,4.5 c 0,0 5.8,-2.4 11.6,-4.7 l 1.6,8.1 0.2,1.1 2.2,11.2 0.2,1.1 1.4,7.1 H 227.7 V 534.9 l 2.1,-5.8 0.4,-1.1 8.5,-23.3 0.4,-1.1 7.7,-21.1 0.4,-1.1 8.6,-23.5 z"
   id="path116" />
					<g
   id="g120">
						<path
   class="st10"
   d="m 331,327.5 v 0.1 z m -135,20.1 -5,6.2 1.1,0.5 5.1,-6.3 z m 101.5,197.1 -67,-16.7 -0.4,1.1 67.8,16.8 c -0.2,-0.5 -0.3,-0.8 -0.4,-1.2 z m -58.2,-41.1 -0.4,1.1 c 16.9,3.2 36.4,7 53,10.1 0,-0.4 0,-0.8 0,-1.1 -16.5,-3.2 -35.8,-6.8 -52.6,-10.1 z m 77,129.9 h -88.4 v 1.1 h 88.6 z m -2.4,-12.3 h -86 v 1.1 h 86.2 z M 308.4,593 c -19.1,0.9 -45.2,2.3 -80.5,4.1 v 1.1 c 26.4,-1.4 56.1,-2.9 80.7,-4.1 z m -5,-25 -75.5,-2.9 v 1.1 l 75.8,2.9 c -0.1,-0.3 -0.2,-0.6 -0.3,-1.1 z m -56.1,-86.5 -0.4,1.1 45.4,8 c 0,-0.4 0,-0.8 0,-1.1 z m 9,-24.8 -0.4,1.1 c 12,0.2 24.8,0.5 37.1,0.7 l 0.9,-1.1 c -12.4,-0.1 -25.4,-0.4 -37.6,-0.7 z m 41.3,-52.5 -0.4,1 20.3,9.2 0.2,-0.5 0.5,-0.5 z m -6.3,16.3 -0.4,1 21.5,7 0.4,-1 z m -32.9,16.5 0.1,1.1 50.3,0.9 0.4,-1.1 z m 99.5,-76.3 c -0.4,0.2 -0.7,0.3 -1.1,0.5 l 8.5,7.6 1,-0.6 z m -7.3,2.9 c -0.4,0.1 -0.7,0.3 -1.1,0.4 l 4.9,10.8 1,-0.6 z m 25.9,-10.6 -1.1,0.6 0.5,6.4 1.1,-0.8 z m 6.6,-3.7 -1,0.6 3.4,3.2 0.9,-0.7 z m -15.9,-8.9 -5.9,0.8 v 1.1 l 6.1,-0.8 z m 1.5,-9.4 -0.9,0.8 1.5,5.2 1,-0.7 z m -46.2,16.8 c -0.1,0.4 -0.3,0.7 -0.4,1.1 l 4.9,1.5 0.4,-1.1 z m 3.4,-10.3 c -0.2,0.4 -0.3,0.8 -0.4,1.2 l 5.7,-1.2 0.4,-1.2 z m 1.4,16.2 -6,0.9 c 0.1,0.3 0.3,0.7 0.4,1.1 l 6.2,-0.9 z M 176,334.6 l -3.9,2.4 0.4,1.1 4,-2.4 z m 6.9,9.5 -1,5.9 1.1,0.5 1,-6.1 z m 27.8,-11.7 -0.1,1.1 8.3,2.1 v -1.2 z m -43.8,7.8 -2.9,1.8 1.2,0.6 3,-1.8 z m 29.1,7.4 -5,6.2 1.1,0.5 5.1,-6.3 z m 4.8,1.3 -0.3,8.8 1.1,0.5 0.3,-9 z m 11.8,-35.4 -0.1,1.1 6.4,-0.6 v -1.1 z m 5.7,-9.3 -5.1,3.7 -0.2,1.5 5.6,-4.1 z m -10,-15.8 -3.4,0.9 0.5,1 3.5,-0.9 z m -9,-15.9 -3.4,1.6 1.3,0.6 2.6,-1.3 z m -20,-8.5 c -0.3,0.1 -0.6,0.1 -0.9,0.2 l -0.6,1.2 c 1.2,-0.2 2.4,-0.4 3.5,-0.6 z m 5.3,2 -1.4,2.4 1,0.5 1.5,-2.5 z m 37.7,9.4 -0.5,1.1 2.7,1.4 0.4,-1.1 z m -4.2,10.4 -0.5,1.3 4.1,-1.1 0.5,-1.3 z m -4.4,10.6 -0.4,0.9 -0.6,-1.1 -4.8,-0.8 0.6,1.2 8.7,1.4 0.4,-1.1 z m 18.5,70.2 -10.1,9.3 0.8,0.8 10.2,-9.4 z m 19.4,-5.5 -0.5,1 c 2.5,1.3 4.6,2.4 6.4,3.2 l 0.3,-1.1 c -2,-1 -4.1,-2 -6.2,-3.1 z m -32.2,-7.3 -8.7,9.4 0.8,0.8 8.7,-9.5 z m 28.6,-19.2 -0.3,1.1 3.8,1.2 0.2,-1.1 z m 9.4,53.5 c -4.2,3.4 -9.3,7.4 -14.3,11.4 l 0.7,0.8 c 4.6,-3.7 9.6,-7.6 14.2,-11.3 z m -3.5,-6.4 -24.4,2.6 0.9,1 23.5,-2.5 -0.2,-0.3 z m 17.2,26.7 -0.5,-0.7 -14,8 0.1,1.2 14.4,-8.2 z M 331,327.5 v 0 l -2.3,-1.4 v 1.3 l 4.7,3 0.4,-1.1 z m 6.6,-11.8 -0.6,1.1 2.4,0.2 0.5,-1.1 z m -7.4,-0.6 -1.4,-0.1 v 1.1 l 1.5,0.1 z m 44.9,10.4 -0.9,0.7 4.7,3.9 0.9,-0.7 z m 17.1,-5.2 -2.1,5.5 1.3,-0.3 2.1,-5.3 z m 16.7,-1.1 -1.6,-0.4 2.6,3.6 1.5,0.2 z m -3,-4.2 -0.6,1.1 1.8,2.7 0.6,-1.1 z m -12.1,28 v 3.8 l 1.1,-0.8 v -3.6 z m -67.1,24 c 0.3,0.7 0.5,1.2 0.8,1.8 l 17.6,11.1 1.1,-0.6 z m -6.1,18.9 c -0.2,0.4 -0.4,0.7 -0.6,0.9 l 14.3,9.8 0.6,-1 z"
   id="path118" />
					</g>
				</g>
				<polygon
   class="st5"
   points="338.1,514.5 346.5,516.8 351.2,517.3 354.5,508.4 363.1,510.1 369.7,513.7 376.2,513.4 382.9,515.1 387.8,512.3 408.7,514 412,517.3 417.5,517.6 413.9,510.1 405.3,507.6 400.9,504.3 407.8,501.8 412,498.2 405.1,492.6 399.8,489.4 404.8,485 411.2,475.1 398.7,472.1 407.8,468.7 406.1,458.7 396.7,448.7 389.8,447.1 380.3,443.5 375.6,436.4 364.2,436.3 358.7,439.6 353.2,444.6 349.3,448.7 343.2,450.1 338.9,447.1 334,443.8 328.5,439.5 323.7,441.3 324,448.7 318.2,451.3 309.8,444 302.1,442.1 297.9,440.1 290.7,441.3 288.7,444 284.6,447.1 289.3,447.1 294.5,445.4 296,447.1 297.6,448.7 292.9,451.5 284.6,454.6 284.6,458.2 282.6,457.4 274.3,463.2 269.3,466.5 267.3,469.3 259.5,469.8 248.5,467.9 253.8,476.2 253.4,479.6 246.8,480.1 242.4,480.7 248.5,485.1 254.9,489.4 259.5,492.3 259.5,499.8 268.2,510.7 276.3,515.1 273.2,520.9 271.8,525.6 282.1,524 289,518.7 292.3,522.9 293.1,525.9 296,531.2 302.1,530.1 307.6,522.9 309.6,530.7 313.7,533.2 315.1,534.8 318.2,532.9 322.3,536.5 326.5,527.9 329.5,524.2 337.1,520.9 "
   id="polygon124" />
			</g>
			<g
   id="g424">
				<polygon
   class="st20"
   points="422,353.8 421.9,352.1 421.6,341.2 420.9,321 420.7,312.5 420.5,306.2 419.7,282 486.2,261 486.5,271.8 486.7,278.8 486.9,283.1 487.2,295 488.3,329.1 423.4,398.3 "
   id="polygon128" />
				<path
   class="st21"
   d="m 488.3,329.1 -64.9,69.2 -1.4,-44.5 c 15.7,-14.3 46.5,-41.9 65.3,-58.8 z"
   id="path130" />
				<path
   class="st22"
   d="m 486.5,271.8 c -16.6,8.6 -48,24.9 -66.1,34.4 l -0.8,-24.2 66.5,-21 z"
   id="path132" />
				<rect
   x="374.20001"
   y="640.5"
   class="st11"
   width="325"
   height="7.6999998"
   id="rect134" />
				<g
   id="g266">
					<polygon
   class="st1"
   points="488.9,293 501.8,275.5 503.1,273.6 515.8,256.3 517.2,254.3 527.2,240.5 536.2,253.7 537.4,255.6 551,275.4 552.3,277.4 563,293 564.3,295 577.6,314.5 578.9,316.4 590.4,333.2 591.7,335.1 608.3,359.5 609.7,361.5 618,373.9 619.4,375.8 629.3,390.4 630.6,392.3 640.5,406.8 641.8,408.8 649.8,420.4 649.8,640.5 396,640.5 396,420.4 400.3,414.5 401.7,412.5 416.5,392.3 417.9,390.4 430.7,372.9 432,371 442.4,356.8 443.8,354.9 456.5,337.5 457.9,335.6 472.9,315 474.3,313.1 487.5,295 "
   id="polygon136" />
					<polygon
   class="st23"
   points="603.5,638.5 603.5,640.6 535.9,640.6 533.3,599.9 526,484 608.1,484 603.8,629 "
   id="polygon138" />
					<path
   class="st23"
   d="m 553,385.9 c -0.3,-0.7 -0.5,-1.3 -0.8,-1.8 -1.5,-3.2 -3.5,-6.2 -6.1,-8.7 -1.4,-1.4 -3,-2.7 -4.6,-3.8 -1.4,-1 -3,-1.8 -4.7,-2.6 -1,-0.5 -2,-0.8 -3,-1.1 -3,-1 -6.1,-1.4 -9.3,-1.4 -14.6,0 -27.1,10.4 -29.8,24.6 -0.4,1.8 -0.5,3.7 -0.5,5.7 0,0.6 0,1.2 0.1,1.7 0.2,4.1 1.3,8.1 3.1,11.7 0.8,1.7 1.8,3.3 3,4.8 2.6,3.4 6,6.4 9.8,8.4 l 1.5,0.8 h 0.1 c 0.7,0.3 1.3,0.6 2,0.8 3.4,1.3 7.1,2 10.8,2 16.7,0 30.3,-13.6 30.3,-30.3 0.1,-3.8 -0.5,-7.4 -1.9,-10.8 z"
   id="path140" />
					<polygon
   class="st23"
   points="529.2,267.7 396,450.6 396,420.4 400.3,414.5 401.7,412.5 416.5,392.3 417.9,390.4 430.7,372.9 432,371 442.4,356.8 443.8,354.9 456.5,337.5 457.9,335.6 472.9,315 474.3,313.1 487.5,295 488.9,293 501.8,275.5 503.1,273.6 515.8,256.3 517.2,254.3 527.2,240.5 536.2,253.7 537.4,255.6 551,275.4 552.3,277.4 563,293 564.3,295 577.6,314.5 578.9,316.4 590.4,333.2 591.7,335.1 608.3,359.5 609.7,361.5 618,373.9 619.4,375.8 629.3,390.4 630.6,392.3 640.5,406.8 641.8,408.8 649.8,420.4 649.8,457.6 "
   id="polygon142" />
					<g
   id="g220">
						<g
   id="g146">
							<polygon
   class="st24"
   points="537.4,255.6 515.8,256.3 517.2,254.3 536.2,253.7 "
   id="polygon144" />
						</g>
						<g
   id="g150">
							<polygon
   class="st24"
   points="552.3,277.4 501.8,275.5 503.1,273.6 551,275.4 "
   id="polygon148" />
						</g>
						<g
   id="g154">
							<polygon
   class="st24"
   points="564.3,295 487.5,295 488.9,293 563,293 "
   id="polygon152" />
						</g>
						<g
   id="g158">
							<path
   class="st24"
   d="m 578.9,316.4 c -34.3,-0.5 -71.9,-0.9 -106,-1.3 l 1.4,-1.9 c 33.3,0.4 69.9,0.9 103.3,1.3 z"
   id="path156" />
						</g>
						<g
   id="g162">
							<polygon
   class="st24"
   points="591.7,335.1 456.5,337.5 457.9,335.6 590.4,333.2 "
   id="polygon160" />
						</g>
						<g
   id="g166">
							<polygon
   class="st24"
   points="609.7,361.5 442.4,356.8 443.8,354.9 608.3,359.5 "
   id="polygon164" />
						</g>
						<g
   id="g170">
							<polygon
   class="st24"
   points="619.4,375.8 430.7,372.9 432,371 618,373.9 "
   id="polygon168" />
						</g>
						<g
   id="g174">
							<polygon
   class="st24"
   points="630.6,392.3 416.5,392.3 417.9,390.4 629.3,390.4 "
   id="polygon172" />
						</g>
						<g
   id="g178">
							<path
   class="st24"
   d="m 641.8,408.8 c -69.7,1.7 -179,4.3 -241.5,5.7 l 1.4,-2 c 62.4,-1.5 169.8,-4.1 238.8,-5.7 z"
   id="path176" />
						</g>
						<g
   id="g182">
							<rect
   x="396"
   y="430.70001"
   class="st24"
   width="253.8"
   height="1.9"
   id="rect180" />
						</g>
						<g
   id="g186">
							<polygon
   class="st24"
   points="649.8,446.2 649.8,448.1 396,454.8 396,452.9 "
   id="polygon184" />
						</g>
						<g
   id="g190">
							<polygon
   class="st24"
   points="649.8,482.8 649.8,484.8 396,480.4 396,478.4 "
   id="polygon188" />
						</g>
						<g
   id="g194">
							<polygon
   class="st24"
   points="649.8,497.6 649.8,499.6 396,506.2 396,504.2 "
   id="polygon192" />
						</g>
						<g
   id="g198">
							<path
   class="st24"
   d="m 649.8,463.2 v 1.9 C 581.3,465 454.4,465.2 396,465.2 v -1.9 c 58.6,0 185.3,-0.1 253.8,-0.1 z"
   id="path196" />
						</g>
						<g
   id="g202">
							<polygon
   class="st24"
   points="649.8,522.9 649.8,524.8 396,528.3 396,526.3 "
   id="polygon200" />
						</g>
						<g
   id="g206">
							<polygon
   class="st24"
   points="649.8,547.8 649.8,549.7 396,539.9 396,538 "
   id="polygon204" />
						</g>
						<g
   id="g218">
							<polygon
   class="st24"
   points="649.8,577.4 649.8,579.3 396,588.3 396,586.4 "
   id="polygon208" />
							<polygon
   class="st24"
   points="396,607.9 649.8,596.8 649.8,598.8 396,609.8 "
   id="polygon210" />
							<rect
   x="396"
   y="620.29999"
   class="st24"
   width="253.8"
   height="1.9"
   id="rect212" />
							<polygon
   class="st24"
   points="396,632.1 649.8,636.5 649.8,638.4 396,634 "
   id="polygon214" />
							<polygon
   class="st24"
   points="649.8,561.8 649.8,563.8 396,566.8 396,564.8 "
   id="polygon216" />
						</g>
					</g>
					<polygon
   class="st25"
   points="527.2,249.1 393.5,438.9 375,438.9 527.2,232 672,438.9 652.7,438.9 "
   id="polygon222" />
					<polygon
   class="st26"
   points="527.2,249.1 393.5,438.9 382.4,438.9 527.2,240.5 664.6,438.9 652.7,438.9 "
   id="polygon224" />
					<g
   id="g240">
						<path
   class="st27"
   d="m 527.2,422.3 c -3.7,0 -7.4,-0.7 -10.8,-2 -0.7,-0.3 -1.3,-0.5 -2,-0.8 h -0.1 l -1.5,-0.8 c -3.8,-2.1 -7.2,-5 -9.8,-8.4 -1.1,-1.5 -2.2,-3.1 -3,-4.8 -1.8,-3.7 -2.9,-7.6 -3.1,-11.7 -0.1,-0.6 -0.1,-1.1 -0.1,-1.7 0,-1.9 0.2,-3.8 0.5,-5.7 2.7,-14.3 15.2,-24.6 29.8,-24.6 3.2,0 6.3,0.5 9.3,1.4 1,0.3 2.1,0.7 3,1.1 1.6,0.7 3.2,1.6 4.7,2.6 1.6,1.1 3.2,2.4 4.6,3.8 2.5,2.6 4.6,5.5 6.1,8.7 0.3,0.6 0.5,1.2 0.8,1.8 1.3,3.4 2,7.1 2,10.8 0,16.7 -13.6,30.3 -30.4,30.3 z"
   id="path226" />
						<path
   class="st28"
   d="m 527.2,419.7 c -3.4,0 -6.7,-0.6 -9.9,-1.8 -0.8,-0.3 -1.5,-0.6 -2.3,-1 v 0 l -0.9,-0.5 c -3.5,-1.9 -6.6,-4.5 -9,-7.7 -1,-1.4 -1.9,-2.9 -2.7,-4.4 -1.6,-3.3 -2.6,-6.9 -2.8,-10.7 -0.1,-0.5 -0.1,-1 -0.1,-1.6 0,-1.7 0.2,-3.5 0.5,-5.2 2.5,-13 13.9,-22.5 27.2,-22.5 2.9,0 5.7,0.5 8.5,1.3 0.9,0.3 1.8,0.7 2.8,1 1.5,0.7 2.9,1.4 4.3,2.4 1.5,1 2.9,2.2 4.2,3.4 2.3,2.3 4.2,5 5.5,8 0.3,0.5 0.5,1.1 0.7,1.7 1.2,3.1 1.8,6.5 1.8,9.8 -0.1,15.4 -12.5,27.8 -27.8,27.8 z"
   id="path228" />
						<path
   class="st29"
   d="m 551,392 c 0,13.1 -10.6,23.7 -23.7,23.7 -3,0 -5.8,-0.6 -8.5,-1.5 -1,-0.4 -1.9,-0.8 -2.8,-1.3 v 0 c -3,-1.6 -5.6,-3.9 -7.7,-6.6 -0.9,-1.2 -1.7,-2.5 -2.4,-3.8 -1.4,-2.8 -2.2,-5.9 -2.4,-9.2 -0.1,-0.5 -0.1,-0.9 -0.1,-1.3 0,-1.5 0.2,-3 0.4,-4.5 2.1,-11 11.7,-19.3 23.3,-19.3 2.5,0 5,0.4 7.2,1.1 0.8,0.3 1.6,0.6 2.4,0.9 1.3,0.6 2.5,1.2 3.6,2 1.3,0.9 2.5,1.8 3.6,3 1.9,1.9 3.6,4.3 4.7,6.8 0.2,0.5 0.4,0.9 0.6,1.4 1.2,2.8 1.8,5.6 1.8,8.6 z"
   id="path230" />
						<g
   class="st18"
   id="g238">
							<path
   class="st28"
   d="m 544.1,375.3 -35.8,31 c -0.9,-1.2 -1.7,-2.5 -2.4,-3.8 l 34.5,-30.2 c 1.4,0.9 2.6,1.9 3.7,3 z"
   id="path232" />
							<path
   class="st28"
   d="m 549.4,383.5 -30.6,30.6 c -1,-0.4 -1.9,-0.8 -2.8,-1.3 L 548.8,382 c 0.2,0.6 0.4,1.1 0.6,1.5 z"
   id="path234" />
							<path
   class="st28"
   d="m 536.9,370.3 -33.3,23 c -0.1,-0.5 -0.1,-0.9 -0.1,-1.3 0,-1.5 0.2,-3 0.4,-4.5 l 30.6,-18.2 c 0.8,0.4 1.6,0.7 2.4,1 z"
   id="path236" />
						</g>
					</g>
					<g
   id="g264">
						<polygon
   class="st30"
   points="606.9,640.9 540,640.9 529.7,477.4 611.8,477.4 607.2,632 "
   id="polygon242" />
						<polygon
   class="st29"
   points="602.8,520.3 602.6,531.6 602.3,547.2 600.5,632.8 544.3,632.8 542.2,596.8 541,577.2 540.3,565.7 540.2,562.8 538.3,530.7 537.9,523.6 535.4,482.9 603.6,482.9 602.9,518 "
   id="polygon244" />
						<g
   id="g252">
							<polygon
   class="st31"
   points="601.6,482.9 538.3,530.7 537.9,523.6 593.3,482.9 "
   id="polygon246" />
							<polygon
   class="st31"
   points="602.6,531.6 602.3,547.2 542.2,596.8 541,577.2 "
   id="polygon248" />
							<polygon
   class="st31"
   points="602.9,518 602.8,520.3 540.3,565.7 540.2,562.8 "
   id="polygon250" />
						</g>
						<polygon
   class="st32"
   points="534.5,512.7 608.3,510.9 608.3,519.6 534.5,517.6 "
   id="polygon254" />
						<polygon
   class="st33"
   points="538.1,559.1 608.3,557.9 607.2,563.4 538.1,563.4 "
   id="polygon256" />
						<path
   class="st34"
   d="m 540,593.1 c 0.4,0 65.7,0 65.7,0 l -1.9,41.9 h -61.2 z"
   id="path258" />
						<polygon
   class="st35"
   points="540,640.9 529.7,477.4 531.1,477.4 542.3,632 607.2,632 606.9,640.9 "
   id="polygon260" />
						<path
   class="st36"
   d="m 609.1,560.8 c 0,1.8 -1.5,3.3 -3.3,3.3 -1.8,0 -3.3,-1.5 -3.3,-3.3 0,-1.8 1.5,-3.3 3.3,-3.3 1.8,0 3.3,1.5 3.3,3.3 z"
   id="path262" />
					</g>
				</g>
				<g
   id="g404">
					<polygon
   class="st1"
   points="342.1,370.7 351.1,358.2 352.4,356.3 363.8,340.4 365.2,338.4 372.7,327.9 379.8,338.3 381.1,340.2 392.1,356.3 393.4,358.2 401,369.2 402.2,371.1 413,386.8 414.3,388.8 423.8,402.7 425.1,404.6 436.1,420.6 437.4,422.6 448,438 449.3,440 462.1,458.7 463.4,460.7 472,473.2 473.3,475.1 486,493.7 487.3,495.6 492.6,503.3 492.6,642.1 243,642.1 243,509.2 243.2,508.9 244.6,507 255.7,491.5 257.1,489.6 267.4,475.1 268.8,473.2 280.6,456.6 282,454.7 292.5,440 293.9,438 303.6,424.5 305,422.6 314.2,409.8 315.6,407.8 329.2,388.7 330.6,386.8 340.7,372.6 "
   id="polygon268" />
					<path
   class="st23"
   d="m 392.8,452.6 c -0.2,-0.6 -0.4,-1.1 -0.7,-1.6 -1.3,-2.8 -3,-5.3 -5.2,-7.5 -1.2,-1.2 -2.5,-2.3 -3.9,-3.2 -1.2,-0.9 -2.6,-1.6 -4,-2.2 -0.8,-0.4 -1.7,-0.7 -2.6,-1 -2.6,-0.8 -5.2,-1.2 -8,-1.2 -12.5,0 -23.3,8.9 -25.6,21.2 -0.3,1.6 -0.5,3.2 -0.5,4.9 0,0.5 0,1 0.1,1.5 0.2,3.5 1.1,6.9 2.7,10.1 0.7,1.5 1.6,2.9 2.6,4.2 2.3,3 5.2,5.5 8.5,7.2 l 1.3,0.7 h 0.1 c 0.6,0.3 1.1,0.5 1.7,0.7 3,1.1 6.1,1.7 9.3,1.7 14.4,0 26.1,-11.7 26.1,-26.1 -0.2,-3.3 -0.8,-6.4 -1.9,-9.4 z"
   id="path270" />
					<polygon
   class="st23"
   points="421.8,604.1 309,604.1 304.4,521.7 427.8,521.7 423.8,577.4 "
   id="polygon272" />
					<path
   class="st23"
   d="m 492.6,503.3 v 41.4 L 372.4,351.8 c 0,0 -93.2,135.9 -129.4,189.3 v -32 l 0.2,-0.3 1.4,-1.9 11.1,-15.5 1.4,-1.9 10.4,-14.5 1.4,-1.9 11.8,-16.5 1.4,-1.9 10.5,-14.7 1.4,-1.9 9.6,-13.5 1.4,-1.9 9.2,-12.8 1.4,-2 13.6,-19 1.4,-1.9 10.1,-14.2 1.4,-2 8.9,-12.5 1.4,-1.9 11.4,-15.9 1.4,-1.9 7.5,-10.5 7.1,10.3 1.3,1.9 11,16.1 1.3,1.9 7.5,11 1.3,1.9 10.7,15.7 1.3,1.9 9.5,14 1.3,1.9 10.9,16 1.3,1.9 10.6,15.5 1.3,1.9 12.8,18.7 1.3,1.9 8.5,12.5 1.3,1.9 12.7,18.6 1.3,1.9 z"
   id="path274" />
					<g
   id="g352">
						<g
   id="g278">
							<polygon
   class="st37"
   points="381.1,340.2 363.8,340.4 365.2,338.4 379.8,338.3 "
   id="polygon276" />
						</g>
						<g
   id="g282">
							<polygon
   class="st37"
   points="393.4,358.2 351.1,358.2 352.4,356.3 392.1,356.3 "
   id="polygon280" />
						</g>
						<g
   id="g286">
							<polygon
   class="st37"
   points="402.2,371.1 340.7,372.6 342.1,370.7 401,369.2 "
   id="polygon284" />
						</g>
						<g
   id="g290">
							<path
   class="st37"
   d="m 414.3,388.8 c -28.2,0 -58,0 -85.1,-0.1 l 1.4,-1.9 c 26.3,0 55.1,0.1 82.4,0.1 z"
   id="path288" />
						</g>
						<g
   id="g294">
							<polygon
   class="st37"
   points="425.1,404.6 314.2,409.8 315.6,407.8 423.8,402.7 "
   id="polygon292" />
						</g>
						<g
   id="g298">
							<polygon
   class="st37"
   points="437.4,422.6 303.6,424.5 305,422.6 436.1,420.6 "
   id="polygon296" />
						</g>
						<g
   id="g302">
							<polygon
   class="st37"
   points="449.3,440 292.5,440 293.9,438 448,438 "
   id="polygon300" />
						</g>
						<g
   id="g306">
							<path
   class="st37"
   d="m 463.4,460.7 c -57.8,-1.1 -133.7,-2.9 -182.8,-4.1 l 1.4,-1.9 c 57.8,1.4 127.3,3 180.1,4 z"
   id="path304" />
						</g>
						<g
   id="g310">
							<polygon
   class="st37"
   points="473.3,475.1 267.4,475.1 268.8,473.2 472,473.2 "
   id="polygon308" />
						</g>
						<g
   id="g314">
							<path
   class="st37"
   d="m 487.3,495.6 c -61.1,-1.1 -170,-3 -231.6,-4.1 l 1.4,-1.9 c 61.3,1.1 168,3 228.9,4.1 z"
   id="path312" />
						</g>
						<g
   id="g318">
							<polygon
   class="st37"
   points="492.6,504.9 492.6,506.8 243.2,508.9 244.6,507 "
   id="polygon316" />
						</g>
						<g
   id="g322">
							<polygon
   class="st37"
   points="492.6,526.1 492.6,528.1 243,519.4 243,517.5 "
   id="polygon320" />
						</g>
						<g
   id="g326">
							<polygon
   class="st37"
   points="492.6,538.7 492.6,540.6 243,538.7 243,536.8 "
   id="polygon324" />
						</g>
						<g
   id="g330">
							<polygon
   class="st37"
   points="492.6,562.3 492.6,564.3 243,573 243,571.1 "
   id="polygon328" />
						</g>
						<g
   id="g334">
							<polygon
   class="st37"
   points="492.6,582.3 492.6,584.2 243,587 243,585.1 "
   id="polygon332" />
						</g>
						<g
   id="g338">
							<polygon
   class="st37"
   points="492.6,595.9 492.6,597.8 243,602.3 243,600.4 "
   id="polygon336" />
						</g>
						<g
   id="g342">
							<rect
   x="243"
   y="614.5"
   class="st37"
   width="249.60001"
   height="1.9"
   id="rect340" />
						</g>
						<g
   id="g346">
							<polygon
   class="st37"
   points="492.6,630.2 492.6,632.2 243,638.2 243,636.3 "
   id="polygon344" />
						</g>
						<g
   id="g350">
							<polygon
   class="st37"
   points="492.6,552.7 492.6,554.6 243,559.2 243,557.3 "
   id="polygon348" />
						</g>
					</g>
					<polygon
   class="st25"
   points="372.7,336.5 238.9,526.3 220.5,526.3 372.7,319.4 517.5,526.3 498.2,526.3 "
   id="polygon354" />
					<polygon
   class="st26"
   points="372.7,336.5 238.9,526.3 228,526.3 372.7,327.9 510.1,526.3 498.2,526.3 "
   id="polygon356" />
					<polygon
   class="st38"
   points="311.7,597.8 423.5,597.8 426.1,596.3 308.6,513.9 307.2,515.5 "
   id="polygon358" />
					<polygon
   class="st28"
   points="426.1,596.3 313.3,596.3 308.6,513.9 432.1,513.9 428,569.7 "
   id="polygon360" />
					<polygon
   class="st34"
   points="428,569.7 426.1,596.3 313.3,596.3 308.6,513.9 311.3,513.9 332.6,570.9 367.2,570.4 374.1,570.4 "
   id="polygon362" />
					<polygon
   class="st29"
   points="319.1,592.4 318.8,588 318.4,581.3 318.1,575.8 317.1,560 317,557.9 316.9,556.5 315.6,533.8 315.2,527.1 314.6,517.8 324.3,517.9 331.4,518 355.2,518.2 356.7,518.2 358.9,518.3 375.5,518.4 381.2,518.5 388.3,518.5 427.4,519 427.2,521.1 427,522.9 425.7,534.7 425.5,536.4 422.2,566 421.3,574 419.3,592.4 "
   id="polygon364" />
					<g
   class="st18"
   id="g380">
						<polygon
   class="st28"
   points="331.4,518 315.6,533.8 315.2,527.1 324.3,517.9 "
   id="polygon366" />
						<polygon
   class="st28"
   points="422.2,566 421.3,574 403.1,592.4 395.9,592.4 "
   id="polygon368" />
						<polygon
   class="st28"
   points="388.3,518.5 318.8,588 318.4,581.3 381.2,518.5 "
   id="polygon370" />
						<polygon
   class="st28"
   points="427.2,521.1 427,522.9 357.6,592.4 356,592.4 "
   id="polygon372" />
						<polygon
   class="st28"
   points="425.7,534.7 425.5,536.4 369.6,592.4 368,592.4 "
   id="polygon374" />
						<polygon
   class="st28"
   points="356.7,518.2 317,557.9 316.9,556.5 355.2,518.2 "
   id="polygon376" />
						<polygon
   class="st28"
   points="375.5,518.4 318.1,575.8 317.1,560 358.9,518.3 "
   id="polygon378" />
					</g>
					<path
   class="st28"
   d="m 367.6,594.3 -0.7,-35.1 -0.9,-43.7 h 7.2 c 0,0 0.3,25.8 0.7,47.9 0.3,16.3 0.6,30.6 0.8,30.9 0.7,0.8 -7.1,0 -7.1,0 z"
   id="path382" />
					<path
   class="st39"
   d="m 367.6,594.3 -0.7,-35.1 7,4.2 c 0.3,16.3 0.6,30.6 0.8,30.9 0.7,0.8 -7.1,0 -7.1,0 z"
   id="path384" />
					<rect
   x="206.10001"
   y="640.5"
   class="st19"
   width="325"
   height="7.6999998"
   id="rect386" />
					<g
   id="g402">
						<path
   class="st40"
   d="m 370.8,482.5 c -3.2,0 -6.3,-0.6 -9.3,-1.7 -0.6,-0.2 -1.1,-0.5 -1.7,-0.7 h -0.1 l -1.3,-0.7 c -3.3,-1.7 -6.2,-4.3 -8.5,-7.2 -1,-1.3 -1.8,-2.7 -2.6,-4.2 -1.5,-3.1 -2.5,-6.5 -2.7,-10.1 -0.1,-0.5 -0.1,-1 -0.1,-1.5 0,-1.6 0.2,-3.3 0.5,-4.9 2.3,-12.3 13.1,-21.2 25.6,-21.2 2.7,0 5.4,0.4 8,1.2 0.9,0.3 1.7,0.6 2.6,1 1.4,0.6 2.7,1.4 4,2.2 1.4,0.9 2.7,2.1 3.9,3.2 2.2,2.2 3.9,4.7 5.2,7.5 0.2,0.5 0.5,1 0.7,1.6 1.1,2.9 1.7,6.1 1.7,9.3 0.1,14.5 -11.5,26.2 -25.9,26.2 z"
   id="path388" />
						<path
   class="st28"
   d="m 370.8,480.2 c -2.9,0 -5.8,-0.5 -8.5,-1.5 -0.7,-0.3 -1.3,-0.6 -2,-0.9 h -0.1 l -0.8,-0.4 c -3,-1.6 -5.6,-3.9 -7.7,-6.6 -0.9,-1.2 -1.7,-2.5 -2.4,-3.8 -1.4,-2.9 -2.3,-5.9 -2.4,-9.2 -0.1,-0.5 -0.1,-0.9 -0.1,-1.3 0,-1.5 0.2,-3 0.4,-4.5 2.1,-11.2 12,-19.3 23.3,-19.3 2.5,0 4.9,0.4 7.3,1.1 0.8,0.3 1.6,0.6 2.4,0.9 1.3,0.6 2.5,1.2 3.6,2 1.3,0.9 2.5,1.8 3.6,3 2,2 3.6,4.3 4.7,6.8 0.2,0.5 0.4,0.9 0.6,1.4 1,2.7 1.5,5.5 1.5,8.5 0.3,13.2 -10.3,23.8 -23.4,23.8 z"
   id="path390" />
						<path
   class="st29"
   d="m 391.2,456.5 c 0,11.2 -9.1,20.4 -20.4,20.4 -2.6,0 -5,-0.5 -7.3,-1.3 -0.8,-0.3 -1.6,-0.7 -2.4,-1.1 v 0 c -2.6,-1.4 -4.8,-3.3 -6.6,-5.7 -0.8,-1 -1.4,-2.1 -2,-3.2 -1.2,-2.4 -1.9,-5 -2.1,-7.8 0,-0.4 -0.1,-0.8 -0.1,-1.2 0,-1.3 0.1,-2.6 0.4,-3.8 1.8,-9.4 10.1,-16.6 20,-16.6 2.2,0 4.3,0.4 6.2,1 0.7,0.2 1.4,0.5 2.1,0.8 1.1,0.5 2.2,1.1 3.1,1.7 1.1,0.8 2.2,1.6 3.1,2.6 1.7,1.7 3.1,3.7 4.1,5.8 0.2,0.4 0.4,0.8 0.5,1.2 0.9,2.2 1.4,4.6 1.4,7.2 z"
   id="path392" />
						<g
   class="st18"
   id="g400">
							<path
   class="st28"
   d="m 385.3,442.1 -30.7,26.6 c -0.8,-1 -1.4,-2.1 -2,-3.2 l 29.6,-26 c 1.1,0.8 2.1,1.6 3.1,2.6 z"
   id="path394" />
							<path
   class="st28"
   d="m 389.8,449.2 -26.3,26.3 c -0.8,-0.3 -1.6,-0.7 -2.4,-1.1 L 389.3,448 c 0.2,0.4 0.4,0.8 0.5,1.2 z"
   id="path396" />
							<path
   class="st28"
   d="m 379.1,437.8 -28.6,19.8 c 0,-0.4 -0.1,-0.8 -0.1,-1.2 0,-1.3 0.1,-2.6 0.4,-3.8 L 377,437 c 0.7,0.3 1.4,0.6 2.1,0.8 z"
   id="path398" />
						</g>
					</g>
				</g>
				<g
   id="g410">
					<polygon
   class="st25"
   points="409.1,296.6 409.8,283.6 410,279 492.7,248.2 492.7,266.9 "
   id="polygon406" />
					<path
   class="st26"
   d="m 492.7,257.7 v 9.1 l -83.6,29.7 0.7,-12.9 c 24.4,-7.7 62,-19.4 82.9,-25.9 z"
   id="path408" />
				</g>
				<g
   id="g422">
					<polygon
   class="st41"
   points="445.7,298.4 445.7,306.6 420.9,321 420.7,312.5 "
   id="polygon412" />
					<polygon
   class="st41"
   points="432.9,296.6 432.9,302.1 456.5,292.3 455.1,286.1 "
   id="polygon414" />
					<polygon
   class="st41"
   points="486.9,283.1 464.5,293 464.5,286.1 486.7,278.8 "
   id="polygon416" />
					<polygon
   class="st41"
   points="465.5,310 464.5,304.7 441,313.5 442.4,317.1 442.4,322.3 "
   id="polygon418" />
					<polygon
   class="st41"
   points="435,333.2 435,342.1 421.9,352.1 421.6,341.2 "
   id="polygon420" />
				</g>
			</g>
		</g>
	</g>
</g>














<path
   id="Vector_19"
   class="st3"
   d="m 250.50642,117.88257 6.6,-5.2 c -5.1,-0.6 -7.2,2.2 -8.1,4.4 -4,-1.7 -8.3,0.5 -8.3,0.5 l 13.1,4.8 c -0.7,-1.8 -1.8,-3.3 -3.3,-4.5 z" />
<path
   id="Vector_20"
   class="st3"
   d="m 9.4064222,115.88257 6.5999998,-5.2 c -5.1,-0.6 -7.1999998,2.2 -8.0999998,4.4 -4,-1.7 -8.30000004,0.5 -8.30000004,0.5 l 13.09999984,4.8 c -0.7,-1.9 -1.8,-3.4 -3.2999998,-4.5 z" />
<path
   id="Vector_21"
   class="st3"
   d="m 236.10642,215.88257 6.6,-5.2 c -5.1,-0.6 -7.2,2.2 -8.1,4.4 -4,-1.7 -8.3,0.5 -8.3,0.5 l 13.1,4.8 c -0.6,-1.8 -1.8,-3.4 -3.3,-4.5 z" />
</svg>
