<?xml version="1.0" encoding="utf-8"?>
<!-- Generator: Adobe Illustrator 25.0.1, SVG Export Plug-In . SVG Version: 6.00 Build 0)  -->
<svg version="1.1" id="Layer_1" xmlns="http://www.w3.org/2000/svg" xmlns:xlink="http://www.w3.org/1999/xlink" x="0px" y="0px"
	 viewBox="0 0 814 792" style="enable-background:new 0 0 814 792;" xml:space="preserve">
<style type="text/css">
	.st0{opacity:0.1;fill:#004D40;enable-background:new    ;}
	.st1{fill:#004D40;}
	.st2{opacity:0.2;enable-background:new    ;}
	.st3{fill:#3F3D56;}
	.st4{display:none;}
	.st5{display:inline;fill:#00604E;}
	.st6{display:inline;fill:#00352B;}
	.st7{display:inline;}
	.st8{fill:#C69C6D;}
	.st9{opacity:0.5;fill:#B3B3B3;enable-background:new    ;}
	.st10{fill:#C19161;}
	.st11{fill:#999999;}
	.st12{fill:#FBB03B;}
	.st13{fill:#00604E;}
	.st14{display:inline;fill:#EF9D30;}
	.st15{display:inline;fill:#004D40;}
	.st16{fill:#A67C52;}
	.st17{fill:#00352B;}
	.st18{opacity:0.5;}
	.st19{fill:#B3B3B3;}
	.st20{fill:#1C1C1C;}
	.st21{fill:#111111;}
	.st22{fill:#3A3A3A;}
	.st23{fill:#01382D;}
	.st24{fill:#D3A97A;}
	.st25{fill:#365568;}
	.st26{fill:#1D3744;}
	.st27{fill:#EAEAEA;}
	.st28{fill:#FFFFFF;}
	.st29{fill:#C5FCF9;}
	.st30{fill:#EDEDED;}
	.st31{opacity:0.5;fill:#FFFFFF;enable-background:new    ;}
	.st32{fill:#EFEFEF;}
	.st33{fill:#E5E5E5;}
	.st34{fill:#F2F2F2;}
	.st35{fill:#C9C9C9;}
	.st36{fill:#B2B2B2;}
	.st37{fill:#E0BE94;}
	.st38{fill:#CECECE;}
	.st39{fill:#E8E8E8;}
	.st40{fill:#F4F4F4;}
	.st41{fill:#494949;}
	.st42{fill:#2F2E41;}
	.st43{fill:#FFB8B8;}
	.st44{opacity:0.4;enable-background:new    ;}
</style>
<path class="st0" d="M289.9,326.4c-43.2,17.9-40.6,46.3-70.3,51.3c-29.3,5-36.6-20.2-92.5-30.9c-20.8-4-44.7-4.6-61.5,6.6
	c-16.2,10.8-21.4,29.3-24.2,46.5c-2.1,13-3.4,26.6,2.4,38.7c4,8.4,11.2,15.5,16.1,23.6c17.2,28.1,5,62.7-13.6,90.1
	c-8.7,12.9-18.8,25.1-25.6,38.8s-9.8,29.4-4,43.3c5.8,13.8,19.8,24.2,34.8,31.5c30.6,14.8,66.7,19.1,101.9,21.5
	c77.9,5.3,156.2,3,234.2,0.7c59.2-1.8,48.7-4.4,86.3-6.2c170.8-8,230.3,19.2,262.4-17.5c15.3-17.5,13.7-45.1,10.4-100.4
	c-6.9-115.8-44.9-138-47.3-226.2c-2.6-94.9,39.9-121.7,15-155.8c-36.8-50.4-157.3-29.6-225,1.2c-32.9,14.9-63.6,28.8-87.7,61.2
	c-21.2,28.4-22.6,51.2-49.6,66.9C329,324.9,320.4,313.7,289.9,326.4z"/>
<g>
	<g>
		<g>
			<g id="group-1">
				<path id="Vector_5" class="st1" d="M664.6,391.2c79.2,0,143.3-64.2,143.3-143.3c0-79.2-64.2-143.3-143.3-143.3
					c-79.2,0-143.3,64.2-143.3,143.3C521.3,327,585.4,391.2,664.6,391.2z"/>
				<path id="Vector_6" class="st2" d="M558.8,152.1c-31.1,72.8,2.7,157,75.5,188.2c27.6,11.8,58.2,14.6,87.6,8.1
					c29.3-6.5,55.8-22.1,75.8-44.6c-31.1,72.8-115.4,106.6-188.2,75.5c-72.8-31.1-106.6-115.4-75.5-188.2
					C540.1,176.8,548.5,163.7,558.8,152.1L558.8,152.1z"/>
			</g>
			<g id="Group_2">
				<path id="Vector_7" class="st3" d="M672.4,647.1l-14.6-4.1l0-1.6l4.4-238.4l0.2-11.9l0-0.3l0.8-41.7l1.1-60.4v0l0.8-40.9h0.4
					l0.8,44.3l1,57.7l0.7,40.9v0.3l0,1.7v0l1.4,79.8l0.1,7.9l2.9,165L672.4,647.1z"/>
				<path id="Vector_8" class="st3" d="M687.8,462.9l-23.7,12.5l3.3,6.3l23.7-12.5L687.8,462.9z"/>
			</g>
			<g class="st4">
				<path class="st5" d="M820.4,524.8l-0.7,1l-18.3,26.9l-30.4,4.2l-24.5-5.9L733,571.5l-24.3-8.6l-14.1,17.5l-19.7-5.1l-51.4-3.1
					l-10.1-23.6l-28.7-5.1l-28.7-36.3l5.4-10.6l2-3.9l4.8-9.3l2.9-5.7l-5.3-6.5L550,451.5l1.1-4.3l0.3-1l5.9-22.6
					c0.2,0,0.3,0.1,0.3,0.1s5.9-3.4,8.4-3.4l6.8,1.7l1.7,1.7h2.5c0,0,1-1.3,2.1-2.5c0.9-1,1.7-2.1,2.1-2.4c0.8-0.7,1.8-4.4,1.8-4.4
					l0.5-0.4l7.1,1.2l18.8-12.5l3.1,1.6l3.7-0.2l17.3,24l1.7,2.4l3.6-1.7l20.9-10.1l-0.8-24.5l0.4-0.5l1.9-2.4l16.3-20.7l31.2-3.1
					l28.7,16.6l-4.2,22h24.5l27,16.9l-0.4,5.8l-1.3,23.6l18.2,5.6l9.7,3l-0.7,31.4L820.4,524.8z"/>
				<path class="st6" d="M804,512.1l-11,5.1l-5,4.7l-3.5-2.9l-9.7-3.4c0,0-9.5-4.4-12.6-4.2c-3,0.2-20.1,7.1-20.1,7.1l-15.1,7.2
					h-7.5l-2.6-2.5h-6.7l-4.6-4.2l-7.7-8.8l1.4-11.4l-2.6-6.2l-4,0.4l-5,6.9h-8.1c0,0-4.8,1.2-6.4,1.8c-1.5,0.6-4.3,1.2-4.3,1.2
					l-4.7-3l-7.5,1.8c0,0-5.7,0.3-7,0.8c-1.3,0.6-6.7-5.4-6.7-5.4s-5.5-3.6-7.4-3.5c-1.9,0.1-4.7-4.7-4.7-4.7l-2.2-7.2l-5.9-10.7
					l-4.3,6.6l-3.5,2.6c0,0-3.6,9.2-4.5,9.2s-3.4,0-5.2-0.7c-1.8-0.7-3.9,1.8-3.9,1.8l-2.5,0.3h-7.2l-5.2,6.8c0,0-4.7,1.9-5.5,1.6
					c-0.8-0.3-5.1-3.1-6.3-3.7c-1.2-0.6-5.5-1.9-6.8-1.8c-0.6,0-3.7,1.4-6.9,2.9l2-3.9l4.8-9.3l2.9-5.7l-5.3-6.5l16.2-6.2l17-0.8
					c0,0,14.4-9.3,16.3-8.9c1.9,0.4,24.2-3.2,24.2-3.2H669l31.1-7.3l5.6-7l1.1-1l6.5,1.5v-9.9l2.5-7.1l8-4.4l8.5-2.5l9.2,3.6
					l14.4,3.9l7.1,5.1l5.3-3.1l11.2,5.6l4.7-0.9l-1.3,23.6l18.2,5.6c-4.7,2.4-9.8,5.1-10.8,5.5c-1.9,0.8-2.3,0-2.3,0l-2.8,5.7
					l-8.4,0.5l2,6.1l5,6.2l7.5,3.6l8.5,5.1v3.5l1.9,10L804,512.1z"/>
				<path class="st6" d="M819.8,525.7l-18.3,26.9l-30.4,4.2l-24.5-5.9L733,571.4l-24.3-8.6l-14.1,17.5l-19.7-5.1l-51.4-3.1
					l-10.1-23.6l-28.7-5.1l-28.7-36.3l7.4-14.5l1.4,5.1l4.5,5.3l8.3,3.4l10.1,1.3l3,3.7v7.2l4.9,4.4l6.2,1.6l7.3,1l4.5-2.5l3.5-2.1
					l6.1,2.1l1.8,1.4l6.1,11.5c0,0,0.7,3.8,0,5.9c-0.7,2.1,2.6,5.2,2.6,5.2l2.4,3l1.7,2.4l4.5,4.7l5.1,1.6l5.1-4.2h3.6l4-2.1
					l4.6-1.9l8.9-1.6l5.3,3.5l2.8,2.1h6.2l8.5-6.3l9.5,4.2h7.6l2.5-5.3l4.7-7.5l6.4-2.9l2.2-4.6l2-4.4l11.4,4.4l4.7-10.2l0.8-3.4
					l9.2-3.5l3.1-0.9l7.8,6.8l2.3,2.1c0,0,4.1-0.7,5.6,0c1.6,0.7,7.1,1.4,7.1,1.4s1.9,3.2,4.1,5c2.2,1.8,9.7,2.6,9.7,2.6l3.7-4.4
					c0,0,8.1,0.7,9.7,0.5C811.8,528.3,815.8,526.8,819.8,525.7z"/>
				<path class="st5" d="M734.1,444.8c-1.8,1-4.7,4.1-4.7,4.1l-3.4,6.6l-5.2,1.4l-5.6,2.7l-5.9-1.2l-6.1,9l-3.1,6.5l-4.3,11
					l-4.7,1.2l0.8,12.6l13.1,3.5c0,0,4.4,4.6,6.2,5c1.8,0.4,8.5,5.6,8.5,5.6l5.2,3c0,0,2.2-4.9,3-4.5c0.8,0.4,7.7,3.3,7.7,3.3h7
					l6.4-2l2.6,8h4.7l6.6-1l3.6-3.8l2.2-8c0,0,0.1-1.1,2.3-2.2c2.2-1.1,6.4-3.7,7.5-2.4c1.1,1.3,6.7-3,6.7-3l3.5-7.4l-4.1-4.8
					l-8-4.5l3.3-3.6l5.2-7.8l1.7-6l-4.4-1.2l-5.7-5.3l-4.1-4.2l-8.2-2.1l-9.7,2.1l-2.8-3.6l-6.7-1.7l-3.3-1.9l-4.4-5.4L734.1,444.8z
					"/>
				<g class="st7">
					<path class="st8" d="M768.4,509.5v2.8l-6.2-0.8l-0.7-0.1l-2.1-0.3l-0.7-0.1l-6.1-0.8l-0.6-0.1l-9.4-1.2l-0.7-0.1l-5.2-0.7
						l-1.3,0.5l-0.6,0.2l-5.7,2.1l-0.6,0.2l-8.1,2.9l-0.6,0.2l-4.2,1.5l-2.5,0.9l-0.1,0.1l-0.4,0.4l-5.1,5.4l-0.4,0.5l-1.6,1.7
						l-0.4,0.4l-6.2,6.5l-3,4l-0.4,0.5l-6.5,8.6l-0.4,0.5l-1.3,1.7c-0.1,4.6,0.1,10,0.3,15.3c0,0.2,0,0.4,0.1,0.6
						c0.2,2.9,0.4,5.6,0.5,8.3c0,0.2,0.1,0.4,0.1,0.6c0.7,8.5,1.4,15.1,1.4,15.1l6,16l0.3,0.8l2.6,6.9l0.2,0.6l2.3,6.2l0.3,0.6
						l2.6,6.8l0.2,0.6l2.9,7.7l2.7,7.2h-70c0,0,0.7-2.2,1.9-5.8c0.1-0.2,0.2-0.4,0.2-0.6c1.7-5.4,4.4-13.5,7.2-22.5
						c0.1-0.2,0.1-0.4,0.2-0.6c0.2-0.4,0.3-0.9,0.4-1.3c0.1-0.2,0.1-0.4,0.2-0.6c2.1-6.6,4.2-13.4,6-19.7c0.3-0.8,0.5-1.6,0.7-2.5
						c0.1-0.2,0.1-0.4,0.2-0.6c1.1-3.7,2.4-8.2,3.7-12.8c0.1-0.2,0.1-0.4,0.2-0.6c1.8-6,3.7-12.3,5.5-17.6c0.1-0.2,0.1-0.4,0.2-0.6
						c1.2-3.6,2.4-6.8,3.3-9.2c-0.5-1.2-1.1-2.3-1.6-3.4c-0.1-0.2-0.2-0.4-0.3-0.6c-1.9-3.6-3.9-6.9-5.5-9.3
						c-0.1-0.2-0.2-0.3-0.3-0.5c-0.9-1.3-1.6-2.3-2.1-2.9c-0.2-0.2-0.3-0.4-0.4-0.5c-0.1-0.1-0.2-0.2-0.2-0.2l-3.4-3.5l-0.4-0.5
						l-2.2-2.2l-0.4-0.4l-5.8-6l-0.4-0.4l-7.2-7.5l-0.4-0.4l-7.9-8.2l-0.4-0.4l-3.7-3.8l-0.4-0.4l-1.5-1.5l-11.5-7.6l-0.6-0.4
						l-7.4-4.9l-0.5-0.4l-2.8-1.8l-0.1-0.6l-1-4.8c0,0,3,2.3,6.8,5c0.2,0.1,0.3,0.3,0.5,0.4c2.4,1.8,5.1,3.7,7.4,5.4
						c0.2,0.2,0.4,0.3,0.5,0.4c3.3,2.4,5.8,4.1,5.8,3.8s-0.6-2.8-1.4-6.2c-0.1-0.2-0.1-0.4-0.2-0.6c-0.7-3.1-1.6-6.7-2.4-9.7
						c-0.1-0.2-0.1-0.4-0.2-0.6c-0.8-3.2-1.3-5.5-1.3-5.5h2.3l1.4,4l0.2,0.6l3.3,9.5l0.2,0.6l2.9,8.4l2.7,2.5l0.4,0.4l4.5,4.3
						l0.4,0.4l7,6.7l0.4,0.4l5.6,5.3l0.8,0.8l0.3-7.2v-0.6l0.1-1.1l2.2-3.5l0.3-0.5l1.4-2.3l0.4-0.6l3.8-6.2l-1.6-9l-0.1-0.7
						l-1.3-7.3l1.2-0.5l0.7-0.3l1.3,6.4l0.2,0.7l2,9.5l9.6-5.3l0.5-0.3l3.7-2.1l0.4,3.4l-2.9,1.7l-0.5,0.3l-9.3,5.3l-2.1,3.7
						l-0.4,0.6l-3.2,5.6l-0.3,0.5l-1,1.8l0.3,1l0.2,0.6l2.1,7.3l0.2,0.6l1.1,4l0.8,0.6l0.5,0.4l5.7,4l0.6,0.4l2.2,1.5l0.5,0.4
						l2.3,1.6l3.7,2.6l0.6,0.4l2.6,1.8l0.5,0.3l1.7,1.2l1.1-0.7l0.5-0.3l7.6-4.8l0.5-0.3l6.7-4.2l0.5-0.4l5.3-3.4l0.5-0.3l2.2-1.3
						l0.3-1.9l0.1-0.7l1.2-9.1l0.1-0.6l0.7-5.7l1.1-0.2l2-0.3v14.7l8.8-2.5l0.6-0.2l4.7-1.3l0.6-0.2l9.6-2.7l0.6-0.2h0.1l3.6-1.5
						l0.5-0.2l6.8-2.8l0.6-0.2l3.3-1.3l0.6-0.3l7.6-3.1l0.6-0.3l5.2-2.2v1.9l-4,1.7l-0.6,0.3l-9.1,3.8l-0.6,0.3l-2.1,0.9l-0.6,0.2
						l-7.1,3l-0.5,0.2l-1.2,0.5l1.5,0.3l0.7,0.2l12.7,2.5l0.6,0.1l3.3,0.6l0.7,0.2l5.7,1.1l0.7,0.2L768.4,509.5z"/>
					<polygon class="st9" points="659.4,488.8 652.8,500 652.8,504.6 651.2,512.1 648.9,507.9 649.7,508.7 650,501.5 650,501 
						650,499.9 652.2,496.4 652.5,495.9 653.9,493.6 654.3,493 658.1,486.8 656.6,477.8 656.4,477.2 655.1,469.9 656.3,469.4 					
						"/>
					<polygon class="st10" points="708.8,495.5 708.4,518.5 681.6,535 671.4,523.2 675.1,525.7 675.7,526.1 678.2,527.9 
						678.8,528.2 680.5,529.4 681.6,528.7 682,528.4 689.7,523.6 690.2,523.3 696.9,519.1 697.4,518.8 702.8,515.4 703.3,515.1 
						705.4,513.7 705.6,511.7 705.7,511.1 706.9,501.9 707,501.3 707.7,495.6 					"/>
					<path class="st10" d="M768.4,510.8v1.5l-6.2-0.8l-0.7-0.1l-2.1-0.3l-0.7-0.1l-6.1-0.8l-0.6-0.1l-9.4-1.2l-0.7-0.1l-5.2-0.7
						l-1.3,0.5l-0.6,0.2l-5.7,2.1l-0.6,0.2l-8.1,2.9l-0.6,0.2l-4.2,1.5c1-2.1,1.8-3.7,1.8-3.7l17.6-6.2L768.4,510.8z"/>
					<path class="st10" d="M666.8,554.8c1.2-3.6,2.4-6.8,3.3-9.2c-0.5-1.2-1.1-2.3-1.6-3.4c-0.1-0.2-0.2-0.4-0.3-0.6
						c-1.9-3.6-3.9-6.9-5.5-9.3c-0.1-0.2-0.2-0.3-0.3-0.5c-0.9-1.3-1.6-2.3-2.1-2.9c-0.2-0.2-0.3-0.4-0.4-0.5s-0.2-0.2-0.2-0.2
						l-3.4-3.5l-0.4-0.5l-2.2-2.2l-0.4-0.4l-5.8-6l-0.4-0.4l-7.2-7.5l-0.4-0.4l-7.9-8.2l-0.4-0.4l-3.7-3.8l-0.4-0.4l-1.5-1.5
						l-11.5-7.6l-0.6-0.4l-7.4-4.9l-0.5-0.4l-2.8-1.8l-0.1-0.6l3.6,1.8l0.6,0.3l4.4,2.2l3.9,2.4l0.6,0.4l13.2,7.8l0.5,0.3l4,4.3
						l0.4,0.4l7.2,7.7l0.4,0.5l7.2,7.7l0.4,0.4l5.9,6.4l0.4,0.4l2.7,2.9l0.4,0.5l3.1,3.3l0.4,0.4l2.9,3.1l0.4,0.5l5.9,6.4l0.4,0.5
						l2.9,3.2l-2.3,15.8l-0.1,0.6l-2.1,15L670,573l-2.5,17.7l-0.1,0.6l6.5,18.5l0.2,0.6l1.3,3.7l0.2,0.6l1.7,4.9l6.6,8.2l0.4,0.5
						l5.9,7.3l17-2.6l2.7,7.2h-69.9c0,0,0.7-2.2,1.9-5.8c0.1-0.2,0.2-0.4,0.2-0.6c1.7-5.4,4.4-13.5,7.2-22.5
						c0.1-0.2,0.1-0.4,0.2-0.6c0.2-0.4,0.3-0.9,0.4-1.3c0.1-0.2,0.1-0.4,0.2-0.6c2.1-6.6,4.2-13.4,6-19.7c0.3-0.8,0.5-1.6,0.7-2.5
						c0.1-0.2,0.1-0.4,0.2-0.6c1.1-3.7,2.4-8.2,3.7-12.8c0.1-0.2,0.1-0.4,0.2-0.6c1.8-6,3.7-12.3,5.5-17.6
						C666.6,555.1,666.7,554.9,666.8,554.8z"/>
					<g>
						<path class="st11" d="M698.9,610.7l-25-0.9l-23.7-0.8c-0.1,0.2-0.1,0.4-0.2,0.6l24.1,0.8l25,0.9L698.9,610.7z M701.4,617.5
							l-26.1-3.3l-25.7-3.3c-0.1,0.2-0.1,0.4-0.2,0.6l26.2,3.3l26.1,3.3L701.4,617.5z M688.6,571.4l-18.5,1l-9.1,0.5
							c-0.1,0.2-0.1,0.4-0.2,0.6l9.1-0.5l18.6-1C688.7,571.8,688.7,571.6,688.6,571.4z M696,603l-28.5-12.3l-10.4-4.5
							c-0.1,0.2-0.1,0.4-0.2,0.6l10.5,4.5l28.8,12.5L696,603z M616.4,483.4l-1.2,0.7l-1.7,0.9l0.6,0.4l1.8-1l1.2-0.6
							C616.8,483.7,616.6,483.5,616.4,483.4z M658.3,475.5c-0.6,0.6-1.3,1.1-1.9,1.6l0.1,0.7c0.7-0.6,1.3-1.1,1.9-1.7L658.3,475.5z
							 M635.4,495.2c-0.6,0.6-1.3,1.1-1.9,1.6c-0.8,0.7-1.6,1.3-2.4,2l0.4,0.4c0.8-0.7,1.5-1.3,2.4-2c0.7-0.6,1.3-1.1,1.9-1.6
							L635.4,495.2z M630.5,490.5c-0.5,0.6-1,1.1-1.5,1.7c-0.7,0.8-1.3,1.5-2,2.3l0.4,0.4c0.7-0.8,1.4-1.6,2.1-2.4
							c0.5-0.5,0.9-1.1,1.4-1.6L630.5,490.5z M655.4,502l-5.4-1v0.6l5.6,1.1L655.4,502z M652.5,495.9l-0.3,0.5l3.9,2.9l0.3-0.5
							L652.5,495.9z M670.6,480l-0.5,0.3l1.2,3.1l0.5-0.3L670.6,480z M654.3,493l-0.4,0.6l5.6-0.5l0.4-0.6L654.3,493z M657.6,509.9
							l-7.4,1.1l-1.5,2.1l-1.6,2.2l0.4,0.4l1.5-2.2l1.4-2l7.3-1.1L657.6,509.9z M642.9,502.2l-1.8,2.7l-1.6,2.5l0.4,0.4l1.6-2.4
							l1.8-2.7L642.9,502.2z M665.9,519.4l-7.9,3.8l-2.2,1.1l0.4,0.5l2.2-1.1l8-3.9L665.9,519.4z M659.7,515.1l-4.8,4.9l-1.7,1.7
							l0.4,0.4l1.7-1.7l4.8-5L659.7,515.1z M675.1,525.7l-10.3,4.8l-2.7,1.3c0.1,0.2,0.2,0.3,0.3,0.5l2.8-1.3l10.4-4.9L675.1,525.7z
							 M668.7,521.2l-7,5.8l-1.7,1.4c0.1,0.1,0.2,0.3,0.4,0.5l1.8-1.5l7.1-5.9L668.7,521.2z M688,562.5l-15.7-5.7l-5.6-2.1
							c-0.1,0.2-0.1,0.4-0.2,0.6l5.7,2.1l15.8,5.7C688.1,562.9,688,562.7,688,562.5z M678.2,527.9l-7,9.4l-3.1,4.2
							c0.1,0.2,0.2,0.4,0.3,0.6l3.2-4.3l7.1-9.5L678.2,527.9z M624.7,479l-3.4,1.8c0.1,0.2,0.1,0.4,0.2,0.6l3.4-1.8L624.7,479z
							 M616.4,483.4l-1.2,0.7l-1.7,0.9l0.6,0.4l1.8-1l1.2-0.6C616.8,483.7,616.6,483.5,616.4,483.4z M658.3,475.5
							c-0.6,0.6-1.3,1.1-1.9,1.6l0.1,0.7c0.7-0.6,1.3-1.1,1.9-1.7L658.3,475.5z M635.4,495.2c-0.6,0.6-1.3,1.1-1.9,1.6
							c-0.8,0.7-1.6,1.3-2.4,2l0.4,0.4c0.8-0.7,1.5-1.3,2.4-2c0.7-0.6,1.3-1.1,1.9-1.6L635.4,495.2z M630.5,490.5
							c-0.5,0.6-1,1.1-1.5,1.7c-0.7,0.8-1.3,1.5-2,2.3l0.4,0.4c0.7-0.8,1.4-1.6,2.1-2.4c0.5-0.5,0.9-1.1,1.4-1.6L630.5,490.5z
							 M688,562.5l-15.7-5.7l-5.6-2.1c-0.1,0.2-0.1,0.4-0.2,0.6l5.7,2.1l15.8,5.7C688.1,562.9,688,562.7,688,562.5z M655.4,502
							l-5.4-1v0.6l5.6,1.1L655.4,502z M652.5,495.9l-0.3,0.5l3.9,2.9l0.3-0.5L652.5,495.9z M670.6,480l-0.5,0.3l1.2,3.1l0.5-0.3
							L670.6,480z M654.3,493l-0.4,0.6l5.6-0.5l0.4-0.6L654.3,493z M688,562.5l-15.7-5.7l-5.6-2.1c-0.1,0.2-0.1,0.4-0.2,0.6l5.7,2.1
							l15.8,5.7C688.1,562.9,688,562.7,688,562.5z M657.6,509.9l-7.4,1.1l-1.5,2.1l-1.6,2.2l0.4,0.4l1.5-2.2l1.4-2l7.3-1.1
							L657.6,509.9z M642.9,502.2l-1.8,2.7l-1.6,2.5l0.4,0.4l1.6-2.4l1.8-2.7L642.9,502.2z M665.9,519.4l-7.9,3.8l-2.2,1.1l0.4,0.5
							l2.2-1.1l8-3.9L665.9,519.4z M659.7,515.1l-4.8,4.9l-1.7,1.7l0.4,0.4l1.7-1.7l4.8-5L659.7,515.1z M675.1,525.7l-10.3,4.8
							l-2.7,1.3c0.1,0.2,0.2,0.3,0.3,0.5l2.8-1.3l10.4-4.9L675.1,525.7z M668.7,521.2l-7,5.8l-1.7,1.4c0.1,0.1,0.2,0.3,0.4,0.5
							l1.8-1.5l7.1-5.9L668.7,521.2z M608.5,477.6l-2.2,1.6l-0.7,0.6l0.5,0.4l0.8-0.6l2.1-1.5C608.8,477.9,608.7,477.8,608.5,477.6z
							 M688,562.5l-15.7-5.7l-5.6-2.1c-0.1,0.2-0.1,0.4-0.2,0.6l5.7,2.1l15.8,5.7C688.1,562.9,688,562.7,688,562.5z M678.2,527.9
							l-7,9.4l-3.1,4.2c0.1,0.2,0.2,0.4,0.3,0.6l3.2-4.3l7.1-9.5L678.2,527.9z M682,528.4l-0.5,0.3l7.4,16.7l0.4-0.5L682,528.4z
							 M690.2,523.3l-0.5,0.3l6.2,12.7l0.4-0.5L690.2,523.3z M704.2,625l-20.3,2.9l-41.7,6.1c-0.1,0.2-0.2,0.4-0.2,0.6l42.3-6.2
							l20.1-2.9L704.2,625z M698.9,610.7l-25-0.9l-23.7-0.8c-0.1,0.2-0.1,0.4-0.2,0.6l24.1,0.8l25,0.9L698.9,610.7z M701.4,617.5
							l-26.1-3.3l-25.7-3.3c-0.1,0.2-0.1,0.4-0.2,0.6l26.2,3.3l26.1,3.3L701.4,617.5z M688.6,571.4l-18.5,1l-9.1,0.5
							c-0.1,0.2-0.1,0.4-0.2,0.6l9.1-0.5l18.6-1C688.7,571.8,688.7,571.6,688.6,571.4z M696,603l-28.5-12.3l-10.4-4.5
							c-0.1,0.2-0.1,0.4-0.2,0.6l10.5,4.5l28.8,12.5L696,603z M707,501.3l-0.1,0.6l3.8,1.1v-0.6L707,501.3z M705.7,511.1l-0.1,0.7
							c3,2.3,5.4,4.1,7.3,5.5l0.4-0.4C711.1,515.1,708.4,513.1,705.7,511.1z M720.2,507.3l-0.6,0.2c0.2,2.3,0.4,4.7,0.5,6.9l0.6-0.2
							C720.5,512,720.3,509.6,720.2,507.3z M739.9,501.2l-0.5,0.2l0.6,1.7l0.5-0.2L739.9,501.2z M740.9,504.1l-0.7-0.2l1.8,5
							l0.7,0.1L740.9,504.1z M753.6,506.6l-1.5,3.6l0.6,0.1l1.5-3.6L753.6,506.6z M759.3,493.2l-0.6,0.3l1.2,1.4l0.6-0.3
							L759.3,493.2z M763.9,508.6l-2.4,2.8l0.7,0.1l2.4-2.8L763.9,508.6z M758.2,507.5l-0.7-0.2l1.3,3.7l0.7,0.1L758.2,507.5z
							 M747.2,498.2l-0.6,0.2l1,1.5l0.6-0.2L747.2,498.2z M750.5,496.9l-0.3,2.1l0.6-0.3l0.3-2.1L750.5,496.9z M725.4,505.8
							l-0.6,0.2l3.9,5.2l0.6-0.2L725.4,505.8z M735.1,503.1L735,509l0.6-0.2l0.1-5.8L735.1,503.1z M697.4,518.8l-0.5,0.4l8.5,6.2
							l0.4-0.4L697.4,518.8z M703.3,515.1l-0.5,0.3l4.7,7.7l0.4-0.5L703.3,515.1z M688,562.5l-15.7-5.7l-5.6-2.1
							c-0.1,0.2-0.1,0.4-0.2,0.6l5.7,2.1l15.8,5.7C688.1,562.9,688,562.7,688,562.5z M688,562.5l-15.7-5.7l-5.6-2.1
							c-0.1,0.2-0.1,0.4-0.2,0.6l5.7,2.1l15.8,5.7C688.1,562.9,688,562.7,688,562.5z M688,562.5l-15.7-5.7l-5.6-2.1
							c-0.1,0.2-0.1,0.4-0.2,0.6l5.7,2.1l15.8,5.7C688.1,562.9,688,562.7,688,562.5z M624.7,479l-3.4,1.8c0.1,0.2,0.1,0.4,0.2,0.6
							l3.4-1.8L624.7,479z M621.2,468.9l-2.4,1.5c0.1,0.2,0.1,0.4,0.2,0.6l2.4-1.5L621.2,468.9z"/>
					</g>
				</g>
				<g class="st7">
					<path class="st12" d="M556.9,475c0-0.1,0-0.1,0-0.1C556.3,475,556.5,475,556.9,475z"/>
					<path class="st13" d="M709.1,448.9c0.1,0.5-9.2,18.3-9.2,18.3v2.1c0,0-6.6,16.3-8.3,17.8c-1.6,1.6-9.9,3-12.5,1.9
						c-2.6-1.1-3.8-1-3.8-1l-11.2,3.1l-9.6-0.3l-6.6-3.7l-11.8-5l-6.4,0.1l-6.8-3c0,0-2.8-3.8-3-4.3c-0.2,0.3-4.5,1.3-5.3,1.3
						c-0.8,0-4.2,2.8-4.2,2.8s-4.9,0.4-5.5,0c-0.6-0.3-2.9,1.1-2.9,1.1s-4.8,3.1-5.4,3.2c-0.7,0.1-3.2,3.8-3.2,3.8l-8.3-2.8
						c0,0-6.9-2.7-7.3-3.6c-0.3-0.5-2.6,0.5-4.9,1.5c-2.3,1-4.5,2.2-4.5,2.2s-8.4-2.7-9.5-3.4c-1.1-0.7-2.1-5.3-2.2-5.9
						c0.9,0,3.3-0.1,3.3-0.1s-6.6-0.2-8.5,0c-1.9,0.2,1.1-1.7,2.7-5.6c1.6-3.8,0-1.8,0-1.8l-7.4-4.4l-1.6-3.1l7.4-6.2l3.6-4.7
						l0.5-0.7c0,0-0.1-0.1-0.3-0.2c-1.4-0.9-7.1-4.6-7.1-5.2c0-0.8,0-4.6,0-4.6s6.6-10.1,7.4-10.7c0.7-0.6,4.6-0.2,5.6-0.1
						c0.2,0,0.3,0.1,0.3,0.1s5.7-3.2,8.3-3.2l6.6,1.5l1.6,1.5h2.5c0,0,3.3-3.8,4.1-4.5c0.7-0.6,1.7-4,1.7-4l0.5-0.4l6.1-4.3l8.3-3.8
						l8.2-3.5l2.8,1.3l3.1,1.4l3.7-0.2l1.7-0.1l8.1,6.7l1.9,0.7l6.7,3l7.3-2.1l3.7-3.6l1.7-1.4v-8l6.6-5.7l4.5,1l2.1,0.5l4.3,2.4
						v5.5l14.7,6.9l3.8,9.2c0,0,2.1,8.5,3.1,11c1.1,2.5,5.5,4.5,5.5,4.5l10.8,4.2C706.6,444.1,709.1,448.4,709.1,448.9z"/>
				</g>
				<path class="st5" d="M650,377.4l2.8,11.7l-4.1,5.1l-2.3,7.9l9.8,7.6v3.8v8.4l4.9,5.3l3.1,1.7h7.6h4.6l9.8-4.8l11.5,8.4l5,1.1
					l13.8-1.1l2.9-3.4l2.9-6.7l10.4-3.9l14.2,3.9l6.5-10.4c0,0-6.5-14.2-9-15.5c-2.6-1.3-2.6-9-2.6-9v-5.2l-8.3-5.2l-4.7-11.6
					l-21.4-1.2l-7.6-1.5l-11.3,4.6l-9.3-2.3l-7.3-0.9l-3.6,6.5l-12.2,0.2L650,377.4z"/>
				<path class="st14" d="M616.2,404l17.3,24l-6.3-1l-4.2-5.9l-7.8-1.3l-8-5.4h-3.3l-8.3,3.4h-5.7l-4.5,0.8l-3.2,2.5H579
					c0.9-1,1.7-2.1,2.1-2.4c0.8-0.7,1.8-4.4,1.8-4.4l0.5-0.4l7.1,1.2l18.8-12.5l3.1,1.6L616.2,404z"/>
				<path class="st6" d="M690.1,424.8l-5,0.1c0,0-11,2.9-13.3,2.5s-8.7,5.4-9.5,6.5s-2.4,1.5-2.4,1.5l-12.7-7.2l-8.3,0.4l20.9-10.1
					l-0.8-24.5l0.4-0.5l1.9-2.4c0.7,0.8,1.1,1.3,1.1,1.3s3.4,10.1,4.3,11c0.9,1,0.1,7,0.1,7l22.1,11L690.1,424.8z"/>
			</g>
			<g class="st4">
				<polygon class="st15" points="554.6,299.4 547.9,293.9 543.2,294.4 543.2,299.8 531.9,289.7 522.4,291.6 518.5,299.8 
					510.9,302.8 502.5,299.8 500,301.9 494.1,304 486.9,304 482.3,299 473,301.9 469.3,315.8 463.8,321.7 457.1,323 447.4,321.7 
					439.8,328.4 430.6,339.8 443.6,339.4 457.1,337.7 468.8,336.4 473.9,341.4 466.7,346.9 470.1,349.4 482.3,344 491.5,340.2 
					502.5,346.4 507.5,349.4 521.4,354.5 526.4,346.4 526.4,336 535.2,342.7 546.2,346.4 557.6,349.4 565.6,343.1 565.6,334.7 
					574.8,340.2 587,346.4 598.7,341.9 601.7,331.4 608.4,333.9 616,336.8 629,333.5 629.5,319.9 619.8,317.9 606.7,319.2 
					595.4,317.5 586.5,312.8 591.6,310.8 599.6,309.5 603,304 606.6,300.5 595.8,297.7 582.7,302.8 574.8,306.6 568.9,301.9 
					571.9,289.7 565.1,283.9 556.7,284.7 557.6,293.9 557.1,298.1 				"/>
				<polygon class="st6" points="598.1,126.2 604.8,120.8 609.4,121.2 609.4,126.7 620.8,116.6 630.2,118.4 634.2,126.7 
					641.8,129.6 650.2,126.7 652.8,128.8 658.6,130.9 665.8,130.9 670.4,125.8 679.6,128.8 683.4,142.6 688.9,148.5 695.6,149.8 
					705.3,148.5 712.9,155.2 722.1,166.6 709.1,166.2 695.6,164.5 683.8,163.2 678.8,168.3 685.9,173.7 682.6,176.3 670.4,170.8 
					661.2,167 650.2,173.2 645.2,176.3 631.3,181.3 626.2,173.2 626.2,162.8 617.4,169.6 606.5,173.2 595.2,176.3 587.2,170 
					587.2,161.6 577.9,167 565.7,173.2 553.9,168.7 551,158.2 544.3,160.7 536.7,163.7 523.7,160.3 523.2,146.7 532.9,144.7 
					546,146 557.3,144.3 566.1,139.7 561,137.6 553.1,136.3 549.7,130.9 546,127.3 556.9,124.6 569.9,129.6 577.9,133.4 
					583.8,128.8 580.8,116.6 587.6,110.7 596,111.5 595.2,120.8 595.6,125 				"/>
				<polygon class="st15" points="493,275.2 495.2,285.3 476.2,285.3 470,285.3 455.4,285.3 449.8,280.2 456.6,275.2 449.8,270.7 
					436.4,271.8 428,272.9 417.9,270.7 418.5,266.8 431.3,260 428,256.1 404.9,257.8 391,255.5 411.2,249.9 421.7,240.9 
					421.7,231.5 431.3,231.5 439.2,233.1 443.1,221.9 451,209 459.4,209 455.4,220.8 462.2,229.2 472.3,223.6 480.7,227 
					482.4,233.7 476.2,243.2 487.4,247.2 498.2,240.9 509.2,247.2 517.4,249.9 530,243.2 540.7,252.8 549,257.2 527.2,262.4 
					504.3,269 504.3,272.3 511.5,285.3 504.3,285.3 498.2,277.4 				"/>
				<polygon class="st6" points="697.1,318 699.3,328.1 680.2,328.1 674.1,328.1 659.5,328.1 653.9,323.1 660.6,318 653.9,313.5 
					640.4,314.7 632,315.8 621.9,313.5 622.5,309.6 635.4,302.9 632,299 608.9,300.7 595.1,298.4 615.2,292.8 625.8,283.8 
					625.8,274.3 635.4,274.3 643.3,276 647.2,264.7 655,251.9 663.4,251.9 659.5,263.7 666.2,272.1 676.3,266.4 684.7,269.8 
					686.4,276.6 680.2,286.1 691.4,290 702.3,283.8 713.3,290 721.5,292.8 734.1,286.1 744.7,295.6 753.1,300.1 731.2,305.3 
					708.4,311.9 708.4,315.2 715.5,328.1 708.4,328.1 702.3,320.3 				"/>
				<g class="st7">
					<path class="st8" d="M589.4,426v-73.3c0,0-0.2-2.5-0.5-6.3c-0.1-0.6-0.1-1.1-0.1-1.7c0-0.2-0.1-0.4-0.1-0.6l-15.6-5.7l-1.6-0.6
						l-1.1-0.4l-1.9-0.7l-2.5-0.9L550.9,322l-1.3-1.1l-9.2-8.3l-1.6-1.4l-4.6-4.2l-9.3-7.8l-1.3-1.1l-3.6-3l-1.4-1.2l-3.9-3.2
						l-3.9-1.4l-1.6-0.6l-9.4-3.5l-2.1-0.8l-1.8-0.7l-6.9,0.7l-1.7,0.2l-5.8,0.6l-1.9,0.2l-7,0.7l-13.6,2.9l-1.7,0.4l-4.4,0.9
						l-1.6,0.4l-12,2.5l-1.7,0.4l-2.5,0.5l-0.3-0.7l-1.7-3.7l4.9-0.9l1.7-0.3l10.7-2l1.7-0.3l5.5-1l1.7-0.3l3.2-0.6l-3-1.8l-1.6-1
						l-7.5-4.7l-1.9-1.2l-6.9-4.3l-1.6-1l-7-4.3l1.7-4.8l5.8,3.1l1.6,0.9l4.9,2.6l1.9,1l9.5,5.1l1.6,0.9l6.6,3.5l7.3-1.4l1.8-0.4
						l8.5-1.6l1.7-0.3l0.3-0.1l8.3,0.3l1.8,0.1l6.1,0.2l1.5-14.1l-5.2-8.5l-1-1.6l-4.1-6.6l-6.4-5.9l-1.4-1.3l-8.5-7.9l1.5-1.4
						l1.3-1.2l10.5,8.9l1.5,1.3l3.3,2.8l6.3,5.3l1.3,1.1l7.7,6.6l5,7.7l1.3,2l3,4.7l0.3,9.2l2.4,2.2l1.4,1.3l10.1,9.1l1.3,1.2
						l5.1,4.7l0.3,0.2l1.4,1.1l16.1,13.3l1.3,1.1l4.7,3.8l0.4,0.4l1.5,0.4l7.7,2.1l1.6,0.5l11.7,3.2c-0.2-2.3-0.3-4.5-0.5-6.4
						c-0.1-0.6-0.1-1.2-0.1-1.7c-0.3-3.7-0.4-6.5-0.5-7.4v-0.2c0-0.4-0.1-0.9-0.1-1.6c-0.4-4.3-1.8-14.3-2.7-20
						c-0.1-0.7-0.2-1.2-0.3-1.7c-0.2-1.4-0.4-2.4-0.4-2.4l-0.5-0.5l-1.6-1.5l-18.8-17.8l-1.2-1.2l-10.4-9.8l-0.2-1.1l-0.2-1.7
						l-0.5-4.6l-0.3-2.1l-2.6-22l-0.2-1.7l-0.4-3l0.6-4.3l0.3-2.5l2.8-21.5l0.2-1.7l1.3-10.1l0.3-1.9l2.1-16l0.1-0.3l0.3-1.4
						l3.2-18.2l0.4-2l2.3-12.9l0.3-1.7l0.6-3.2l-5.8-10.7l-0.8-1.5l-3.6-6.7l-2.3-4.3l-0.9-1.5l-2.8-5.1l-0.8-1.5l-1.7-3.2l2.7-1.3
						l1.6-0.8l1.8,3.1l0.9,1.5l3.5,5.9l0.9,1.5l2.3,3.9l3.5,5.3l0.9,1.4l5.8,8.8l3.4-14.5l0.6-2.4l1.8-7.5l0.4-1.9l0.7-3l-1.5-8.2
						l-0.3-1.7l-1-5.4h4.6l0.6,3.5l0.3,1.7l1.9,11.7l0.3,1.7l0.3,1.9l-0.4,2.6l-0.3,2.2l-3.7,25.8l-0.3,1.7l-0.5,3.7l-0.7,5.1
						l-0.3,1.9l-3.5,26.5l-0.3,1.7l-0.9,7l-0.3,1.9l-1,7.1c0,0,0.2,4.3,0.4,10c0.1,0.6,0.1,1.1,0.1,1.7c0.1,1.7,0.2,3.5,0.3,5.3
						c0,0.7,0.1,1.4,0.1,2.2c0.3,7.8,0.7,16,0.8,19.7c0,0.8,0.1,1.3,0.1,1.7c0,0.3,0,0.4,0,0.5c0,0.5,0.9,3.6,2.2,7.7
						c0.2,0.6,0.4,1.2,0.6,1.8c1.2,3.9,2.7,8.4,4,12.4c0.2,0.6,0.4,1.1,0.5,1.6c0.3,0.9,0.6,1.8,0.9,2.6c0.2,0.7,0.4,1.3,0.6,1.9
						c0.9,2.7,1.5,4.5,1.5,4.5l18.1,16.9l4.1-6l1-1.4l2.6-3.8l1.2-1.7l7.8-11.4l1.1-2.6l0.7-1.6l4.1-9.6l0.8-1.7l1.8-4.3l-0.8-8.6
						l-0.2-1.9l-1.4-16.3l-0.2-1.7l-1.3-15.6l-0.1-0.5l0.5-1.1l2.1-5l0.7-1.8l2.2-5.2l1.7,0.4l3.2,0.8l-0.6,3.3l-0.3,1.7l-1.3,7.2
						l-0.3,1.6l-1.6,8.7l1,4.2l0.4,1.6l5.1,21.4l0.5,2.1l0.7,2.9l1-2.2l0.7-1.5l8.6-18.5l0.9-7.8l0.2-1.8l0.6-5.6l0.2-1.7l1.4-12.6
						l0.2-1.3l-0.1-0.4l-1.1-8.2h4.6l-0.4,7.8l-0.1,1.7l-0.6,13.6l-0.1,1.7l-0.2,3.9l-0.1,1.8l-0.4,8.9l-6.1,21.5l-0.5,1.6l-1.3,4.7
						l-0.5,1.7l-5.3,19l-0.5,1.7l-1.3,4.6l-1.1,1.2l-1.5,1.6l-10.1,10.9l-1.2,1.3l-8,8.6l-0.4,0.4c0,0,0.2,0.5,0.5,1.3
						c0.7,1.9,2.2,5.6,3.7,10c0.2,0.6,0.4,1.2,0.7,1.8c0.7,1.9,1.4,4,2.2,6.1c0.2,0.6,0.4,1.1,0.6,1.6c2.4,6.8,4.4,13.1,4.4,15.2
						c0,0.9,0.5,3.3,1.2,6.8c0.2,0.6,0.3,1.2,0.4,1.8c1,4.2,2.3,9.5,3.7,15.1c0.2,0.6,0.3,1.1,0.4,1.6c3,11.7,6.4,24.5,8.3,31.3
						c0.2,0.6,0.3,1.2,0.5,1.7c0.6,2.1,0.9,3.3,0.9,3.3v42.9c0,0,1.5,7.6,3.5,17.1c0.1,0.6,0.3,1.2,0.4,1.7c0.5,2.1,0.9,4.3,1.3,6.5
						c0.2,0.6,0.3,1.1,0.4,1.7c1.2,5.6,2.5,11.3,3.5,15.8c0.2,0.6,0.3,1.2,0.4,1.7c1.1,4.8,2.1,8.2,2.5,8.6c0.1,0.1,0.2,0.5,0.3,1.1
						c0.1,0.5,0.1,1,0.2,1.7c0.3,3.8,0.4,11.1,0.3,19.6c0,0.6,0,1.1,0,1.7c0,3.7-0.1,7.5-0.1,11.4c0,0.6,0,1.2,0,1.7
						c-0.2,11.1-0.4,21.9-0.5,28c0,0.6-0.1,1.2-0.1,1.7c-0.1,2.1-0.1,3.3-0.1,3.3l0.6,7.8l0.2,1.7l1,12.3l1,13.3l0.1,1.7l0.6,7.3
						l0.2,1.7l1,12.4h-80l1.3-8.1l0.3-1.7l2.6-15.4l0.3-1.7l2.5-14.7l0.3-1.7l1.3-8l1.3-14.5l0.2-1.7l1.2-13.5l0.2-1.7L586,490
						l0.1-1.6l0.1-1.7l0.5-8.8l0.1-1.7l1.1-20.2l0.1-1.7l0.3-5.2l0.1-1.7l1-19.4L589.4,426z"/>
					<polygon class="st10" points="645.7,159 644.1,195.4 630.5,226.8 630.5,217.3 631.6,215.1 632.3,213.5 640.9,195 641.7,187.1 
						641.9,185.4 642.5,179.7 642.8,178 644.1,165.4 644.3,164.1 644.2,163.7 643.1,155.6 645.1,155.6 					"/>
					<polygon class="st10" points="502.2,275 503.7,261 498.5,252.5 497.4,250.9 493.4,244.4 487,238.4 485.5,237.1 477,229.2 
						478.6,227.8 487.5,234.7 508.1,255.9 511.9,276.5 					"/>
					<polygon class="st10" points="626.5,220 618.2,245.3 598,272.1 595.5,263.3 599.6,257.3 600.6,255.9 603.3,252 604.4,250.3 
						612.2,239 613.4,236.3 614,234.7 618.1,225.2 618.9,223.4 620.7,219.1 620,210.5 619.8,208.5 618.4,192.3 618.2,190.5 
						616.9,174.9 616.9,174.4 617.3,173.3 619.4,168.3 620.1,166.4 622.2,161.2 623.9,161.6 619.4,174.8 					"/>
					<path class="st10" d="M600.9,325.7l-13.9-5.2c-0.2-2.3-0.3-4.5-0.5-6.4c-0.1-0.6-0.1-1.2-0.1-1.7c-0.3-3.7-0.4-6.5-0.5-7.4
						v-0.2c0-0.4-0.1-0.9-0.1-1.6c-0.4-4.3-1.8-14.3-2.7-20c-0.1-0.7-0.2-1.2-0.3-1.7c-0.2-1.4-0.4-2.4-0.4-2.4l-0.5-0.5l-1.6-1.5
						l-18.8-17.8l-1.2-1.2l-10.4-9.8l-0.2-1.1l-0.2-1.7l-0.5-4.6l-0.3-2.1l-2.6-22l-0.2-1.7l-0.4-3l0.6-4.3l0.3-2.5l2.8-21.5
						l0.2-1.7l1.3-10.1l0.3-1.9l2.1-16l0.1-0.3l0.3-1.4l3.2-18.2l0.4-2l2.3-12.9l0.3-1.7l0.6-3.2l-5.8-10.7l-0.8-1.5l-3.6-6.7
						l-2.3-4.3l-0.9-1.5l-2.8-5.1l-0.8-1.5l-1.7-3.2l2.7-1.3l20.1,37.2l-3.8,23.4l-1.6,40l-2.5,34.3l10.9,33.5l27.4,31L600.9,325.7z
						"/>
					<path class="st10" d="M589.4,426v-73.3c0,0-0.2-2.5-0.5-6.3c-0.1-0.6-0.1-1.1-0.1-1.7c0-0.2-0.1-0.4-0.1-0.6l-15.6-5.7
						l-1.6-0.6l-1.1-0.4l-1.9-0.7l-2.5-0.9L550.9,322l-1.3-1.1l-9.2-8.3l-1.6-1.4l-4.6-4.2l-9.3-7.8l-1.3-1.1l-3.6-3l-1.4-1.2
						l-3.9-3.2l-3.9-1.4l-1.6-0.6l-9.4-3.5l-2.1-0.8l-1.8-0.7l-6.9,0.7l-1.7,0.2l-5.8,0.6l-1.9,0.2l-7,0.7l-13.6,2.9l-1.7,0.4
						l-4.4,0.9l-1.6,0.4l-12,2.5l-1.7,0.4l-2.5,0.5l-0.3-0.7l34.9-11.2l27.5-3.6l21.6,6.8l51.8,40.4l27.6,4.7l15.8,16.1
						c0,0-9,37.1-9.6,41.3c-0.7,4.2,3.3,77.8,3.3,77.8s-6,38-6.5,37.4c-0.5-0.5,0,57.2,0,57.2l22,5.9l26.6-6.5l1,13.3l0.1,1.7
						l0.6,7.3l0.2,1.7l1,12.4h-80l1.3-8.1l0.3-1.7l2.6-15.4l0.3-1.7l2.5-14.7l0.3-1.7l1.3-8l1.3-14.5l0.2-1.7l1.2-13.5l0.2-1.7
						l2.2-23.4l0.1-1.6l0.1-1.7l0.5-8.8l0.1-1.7l1.1-20.2l0.1-1.7l0.3-5.2l0.1-1.7l1-19.4L589.4,426z"/>
					<g>
						<path class="st16" d="M629.4,212.4c-3.1-1.2-6.3-2.5-9.6-3.8l0.2,1.9c3.3,1.3,6.7,2.7,9.9,3.9L629.4,212.4z M547.6,81
							c-1.5,0.7-3,1.4-4.4,2.1l0.8,1.5c1.5-0.7,3-1.4,4.5-2.2L547.6,81z M551.9,88.4c-1.7,0.5-3.4,0.9-5.1,1.4l0.9,1.5
							c1.7-0.5,3.4-0.9,5.2-1.4L551.9,88.4z M558.6,99.1l-5,3.1l0.8,1.5l5.1-3.2L558.6,99.1z M567,211.6l-21,3.4l0.2,1.7l20.8-3.4
							C567.1,212.9,567,212.4,567,211.6z M608.3,273.9l0.4-0.4l-28.2,3.5l1.6,1.5l26.7-3.3C608.4,274.3,608.3,273.9,608.3,273.9z
							 M612.5,285.2l-29.6-3.8c0.1,0.5,0.2,1.1,0.3,1.7l30,3.8C613,286.3,612.7,285.7,612.5,285.2z M600.6,255.9l-1,1.4l17,7.5
							l1.2-1.3L600.6,255.9z M639.2,431.6c-15.1-1.6-33.2-3.7-49.8-5.5l-0.1,1.7c15.1,1.7,34.2,3.8,50.3,5.6
							C639.4,432.7,639.3,432.1,639.2,431.6z M589.4,417.6v1.7l46.3-9.6V408L589.4,417.6z M589.4,386.1v1.7l46.3-9.4v-1.7
							L589.4,386.1z M589.4,394.5v1.7l46.3,3.6V398L589.4,394.5z M586.1,486.6l-0.1,1.7c10.1,0.6,20.8,1.1,31.5,1.7
							c10.5,0.6,20.9,1.1,30.8,1.7c0-0.6,0-1.2,0-1.7C628.4,488.9,606.1,487.7,586.1,486.6z M648,468.7c-19.7,2.4-41.5,5-61.2,7.3
							l-0.1,1.7c10.7-1.3,22-2.6,33.1-3.9c9.8-1.2,19.4-2.3,28.4-3.4C648.1,469.7,648,469.2,648,468.7z M582.4,528.6l-0.2,1.7
							l65.6,4.3c0-0.5,0.1-1.1,0.1-1.7L582.4,528.6z M583.8,513.3l-0.2,1.7l64.7-10.2c0-0.6,0-1.1,0-1.7L583.8,513.3z M651.1,582.1
							c-25.7,1.4-53.6,2.9-77.2,4.2l-0.3,1.7c16.6-0.9,35.1-1.9,53.1-2.9c8.2-0.5,16.5-0.9,24.5-1.3L651.1,582.1z M648.3,545.8
							l-68.8,7l-0.3,1.7l69.2-7L648.3,545.8z M650.4,573.1c-23.4-1.2-49.2-2.6-73.7-3.9l-0.3,1.7c24.6,1.3,50.5,2.7,74.1,3.9
							L650.4,573.1z M644.8,457.3c-19.5-1.1-40.1-2.2-56.9-3.2l-0.1,1.7c16.9,0.9,37.8,2.1,57.4,3.2
							C645.1,458.5,645,457.9,644.8,457.3z M640.9,439.8c-15.4,2.2-34.6,4.9-52.7,7.4l-0.1,1.7c7.7-1.1,16.2-2.3,24.6-3.4
							c9.9-1.4,19.7-2.8,28.6-4.1C641.2,440.9,641.1,440.3,640.9,439.8z M558,309.1l-8.4,11.7l1.3,1.1l8.5-11.8L558,309.1z
							 M565.9,314.9l-1.5-0.4l-0.4-0.4l4.5,22.6l1.9,0.7L565.9,314.9z M573.6,316.9l-2.2,20.8l1.6,0.6l2.2-21L573.6,316.9z
							 M575.3,240l-14.9,18l1.2,1.2l14.3-17.3C575.7,241.3,575.5,240.6,575.3,240z M615.9,294.7c-0.2-0.6-0.4-1.1-0.6-1.6
							l-29.5,10.1c0.1,0.7,0.1,1.2,0.1,1.6v0.2L615.9,294.7z M621.5,316.7l-35.1-4.3c0.1,0.6,0.1,1.1,0.1,1.7l35.4,4.4
							C621.8,317.8,621.6,317.2,621.5,316.7z M540.6,294.7l-0.3-0.2l-1.5,16.7l1.6,1.4l1.5-16.8L540.6,294.7z M534,288.7l-10.4,9.4
							l1.3,1.1l10.3-9.3L534,288.7z M522.5,278.3l-3.9,15.5l1.4,1.2l3.9-15.4L522.5,278.3z M485.6,274.6l-1.7,0.3l3.3,9.6l1.7-0.2
							L485.6,274.6z M473.6,276.9l5.9,8.5l1.9-0.2l-6.1-8.6L473.6,276.9z M490.3,235.5l-4.8,1.6l1.4,1.3l4.9-1.7L490.3,235.5z
							 M448.5,268.7l-1.9-1l1.5,7.7l1.9,1.2L448.5,268.7z M457.4,285l-0.3,4.3l1.7-0.4l0.3-4.3L457.4,285z M450.2,286.3l0.8,4.3
							l1.6-0.4l-0.8-4.2L450.2,286.3z M458,273.8l-0.5,7.4l1.6,1l0.4-7.5L458,273.8z M437.7,288.7l-0.5,4.8l1.7-0.4l0.5-4.8
							L437.7,288.7z M440,264.1l-0.6,6l1.6,1l0.6-6.1L440,264.1z M515.4,260.2l-6.3,28.4l1.6,0.6l6-26.9L515.4,260.2z M494.3,274.8
							l3.4,9.6l2.1,0.8l-3.7-10.3L494.3,274.8z M501.4,244.9l-3.9,6.1l1,1.6l4.3-6.6L501.4,244.9z M625.6,333.5l-36.8,11.2
							c0.1,0.6,0.1,1.2,0.1,1.7l37.1-11.3C625.9,334.6,625.8,334.1,625.6,333.5z M634.3,366.5l-44.9-4.4v1.7l45.4,4.4
							C634.6,367.7,634.5,367.1,634.3,366.5z M604.4,250.3l-1.2,1.7l24.7,0.7l1.5-1.6L604.4,250.3z M614,234.7l-0.7,1.6l18.5,9
							l0.5-1.7L614,234.7z M620.1,166.4l-0.7,1.8l6.8-0.8l0.3-1.7L620.1,166.4z M644.2,163.7l0.1,0.4l-0.2,1.3l3.2-0.4l0.1-1.7
							L644.2,163.7z M632.3,213.5l-0.7,1.5c2.8,1.1,5.4,2.2,7.9,3.1l0.5-1.6C637.6,215.6,635,214.6,632.3,213.5z M629.4,212.4
							c-3.1-1.2-6.3-2.5-9.6-3.8l0.2,1.9c3.3,1.3,6.7,2.7,9.9,3.9L629.4,212.4z M618.9,223.4l-0.8,1.7l19.5-0.5l0.5-1.7
							C632.4,223.1,625.7,223.3,618.9,223.4z M623.9,189.3l-5.6,1.2l0.2,1.7l5.9-1.3L623.9,189.3z M617.3,173.3l-0.5,1.1l0.1,0.5
							l7.6,1.4l0.3-1.6L617.3,173.3z M642.8,178l-0.2,1.7l4.1,0.8l0.1-1.7L642.8,178z M641.9,185.4l-0.2,1.8l4.7-1l0.1-1.8
							L641.9,185.4z M573.9,235.7l-24.3,9.5l0.2,1.7l24.6-9.7C574.2,236.8,574,236.3,573.9,235.7z M569.3,221.6l-20.5,17.1l0.3,2.1
							l20.8-17.3C569.7,222.7,569.5,222.2,569.3,221.6z M576.8,81.7c-1.7,0.5-3.5,0.9-5.2,1.4l-0.4,1.9c2.1-0.6,4.1-1.1,5.9-1.6
							L576.8,81.7z M569.4,92.5l-0.6,2.4l7.9-4.9l0.3-2.2L569.4,92.5z M574.5,68.2c-1.3,0.6-2.7,1.3-4.2,1.9l0.3,1.7
							c1.4-0.7,2.8-1.3,4.1-1.9L574.5,68.2z M559.7,117.6l-0.3,1.7l13.4-1.8l0.3-1.7L559.7,117.6z M557.1,132.3l-0.4,2l14.5-6
							l0.3-1.9L557.1,132.3z M551.2,170.1l-0.3,1.9l15.4-6.5l0.3-1.9L551.2,170.1z M553.7,152.4l-0.3,1.4l-0.1,0.3l14.2,2.4l0.3-1.7
							L553.7,152.4z M565.8,182.7l-16.2-0.6l-0.2,1.7l16.5,0.6C565.9,183.8,565.9,183.3,565.8,182.7z M566.1,189.7l-19.5,15.6
							l-0.3,2.5l19.9-16C566.2,191.1,566.2,190.4,566.1,189.7z"/>
					</g>
				</g>
				<polygon class="st5" points="547.1,155.6 540.8,150.6 537.1,144.7 533.3,146.4 527.8,150.2 515.2,146.4 514.4,140.9 503,144.7 
					499.6,144.7 492.5,150.2 481.6,153.1 474,150.2 472.3,144.7 461.8,142.2 453.4,143 445.4,140.9 446.7,134.2 454.7,132.1 
					458.5,129.1 461.8,124.5 459.7,120.7 449.2,118.2 441.6,117.3 451.7,111.1 455.5,108.7 467.7,104.5 471.1,104.5 479,106.4 
					487,100.6 489.5,93.4 496.3,94.3 487.9,86.7 490,79.9 498,80.4 504.7,75.4 504.3,66.9 512.7,75.4 519,70.7 520.7,61.9 
					519.4,56.4 523.2,50.6 520.3,38.8 527.8,37.1 532.9,32 540,32.5 544.6,21.8 550.1,28.7 553.5,36.7 550.5,43.4 558.5,48 
					564,50.6 569,55.1 579.5,45.9 582.9,40.7 587.5,37.9 590.9,33.3 604.7,40.7 614.4,35.8 617.8,37.1 622.4,45.9 630,50.6 
					643.9,50.6 646.8,61.9 636.7,63.1 625.4,68.2 617.4,75.4 626.6,75.4 640.9,75.4 646.8,69.8 653,71.1 669.1,75.4 662.3,79.9 
					651,82.5 641.3,90 633.7,90 630,96.5 633.7,98.9 646.8,104.5 659,104.5 665.7,112.7 673.7,116.9 677.1,116.1 672.9,119.4 
					664.4,118.6 655.6,119.9 648.9,122.8 636.7,122.4 629.6,134.2 625.8,141.8 618.2,134.2 609.6,122.8 599.3,117.8 594.2,114.8 
					583.3,116.1 585.4,125.8 593,132.5 582.1,134.2 572,131.7 564.4,129.1 559.4,134.2 553.9,138 557.8,145.4 556.4,155.6 
					550.9,158.2 				"/>
				<polygon class="st5" points="435.3,321.6 432.3,319.2 430.5,316.4 428.8,317.2 426.1,319 420.2,317.2 419.8,314.6 414.5,316.4 
					412.9,316.4 409.5,319 404.3,320.4 400.8,319 400,316.4 395,315.2 391.1,315.6 387.3,314.6 387.9,311.4 391.6,310.5 
					393.4,309.1 395,306.9 394,305.1 389.1,303.9 385.5,303.5 390.2,300.6 392,299.4 397.8,297.5 399.4,297.5 403.2,298.4 
					406.9,295.6 408.1,292.2 411.3,292.6 407.3,289 408.3,285.8 412.1,286 415.3,283.7 415.1,279.7 419,283.7 422,281.5 
					422.8,277.3 422.2,274.8 424,272 422.6,266.4 426.1,265.6 428.6,263.2 431.9,263.4 434.1,258.4 436.7,261.7 438.3,265.4 
					436.9,268.6 440.7,270.8 443.2,272 445.6,274.1 450.6,269.8 452.2,267.3 454.3,266 455.9,263.8 462.5,267.3 467,265 
					468.6,265.6 470.8,269.8 474.4,272 480.9,272 482.3,277.3 477.5,277.9 472.2,280.3 468.4,283.7 472.8,283.7 479.5,283.7 
					482.3,281.1 485.2,281.7 492.8,283.7 489.6,285.8 484.3,287.1 479.7,290.6 476.1,290.6 474.4,293.6 476.1,294.8 482.3,297.5 
					488.1,297.5 491.2,301.3 495,303.3 496.6,302.9 494.6,304.5 490.6,304.1 486.5,304.7 483.3,306.1 477.5,305.9 474.2,311.4 
					472.4,315 468.8,311.4 464.8,306.1 459.9,303.7 457.5,302.3 452.4,302.9 453.3,307.5 456.9,310.7 451.8,311.4 447,310.3 
					443.4,309.1 441,311.4 438.5,313.2 440.3,316.8 439.6,321.6 437.1,322.8 				"/>
				<polygon class="st5" points="559.7,206.9 576.9,201.5 590.6,201.5 597.5,204.2 601.7,201.5 607.2,196.4 607.2,188.4 
					610.1,180.4 617.7,180.4 625.7,188 632.8,185.9 631.1,174.5 634.9,172.9 645,171.2 650.9,160.3 654.4,152.3 662.2,154 
					664.3,156.5 667.3,164.5 667.3,172 667.3,182.5 677.4,177.9 683.7,177.9 692.5,179.6 699.2,191.5 706.9,196.4 715.6,203.6 
					724.1,196.8 734.6,206.9 743.8,216.6 743.8,228.4 757.6,231.7 769,231.7 778.7,243.1 778.7,251.9 759.8,251.5 745.9,249 
					737.1,257.4 736.2,260.3 743.4,263.7 751.8,262.9 757.2,265.8 771.5,272.9 782.5,272.5 789.3,280.1 771.5,281.8 757.2,289.3 
					748,294.8 739.2,293.5 728.7,302.8 718.1,310.8 705.1,305.7 699.2,299.8 695,291.4 697.5,281.3 690,279.2 681.6,286.4 
					682.4,293.1 690,310.8 680.3,307.4 672.8,315.8 664.8,309.9 670.7,298.6 667.3,291 666.9,280.5 654.4,277.6 650.9,285.5 
					651.7,291.4 652.1,295.2 659.1,301.4 654.4,306 645.8,308.3 632.8,309.2 624.4,307.4 613.9,309.5 612.6,303.2 611,296.5 
					603,304 597.5,302.8 591.4,301.1 574.8,297.7 569.3,296.9 571,292.2 587.8,291.4 598.3,286 599.2,279.7 608.4,279.2 
					612.2,266.2 602.1,266.2 590.7,270 579,269.6 566,274.2 552.9,270.8 542,268.3 549.6,264.1 556.3,255.6 555.5,250.6 
					540.7,251.5 533.6,251.9 526.4,247.7 523.9,243.1 528.9,231.7 539.9,229.6 550.8,225.4 545.8,217 542,207.8 549.6,209.5 
					556.7,210.3 				"/>
			</g>
			<g class="st4">
				<g class="st7">
					<polygon class="st17" points="406.7,360.4 400.8,360.4 398.7,367.5 399,371.8 392.3,371.8 383.8,372.1 377.8,379.2 
						374.5,378.8 367.5,381.7 361.8,384.5 356.9,392.3 353.7,395.1 342.4,393.3 334.6,397.2 329.9,403.2 321.5,404.3 314.7,403.2 
						332.1,414.3 342.7,416.7 351.4,421.7 356.9,428.1 342.7,429.8 335.3,429.1 329.9,431.6 323.6,437.3 319.7,439.8 314.7,444.7 
						308.4,450.7 318.3,450.7 323.3,446.8 329.9,446.8 329.9,450.7 326.1,455.3 317.9,461 312.3,464.2 311.6,470.5 312.6,474.1 
						316.5,475.9 323.3,479.1 329.9,482.2 335.3,480.5 337.4,472.3 337.4,467.4 347,470.5 348.7,475.9 347,482.2 355.1,484.7 
						357.5,484.7 365.7,488.6 367.2,493.6 371.4,495.7 370.7,490.7 374.5,490.4 379.5,492.5 385.7,492.1 388.4,488.2 395.1,487.9 
						397.9,495.7 400.4,499.3 406.7,498.5 406.7,491.5 412.8,490 419.1,493.2 423.8,495.7 425.6,486.5 436.6,491.8 440.1,494.3 
						445.1,487.9 441.2,480.1 447.9,475.9 453.5,474.8 458.2,473.7 464.2,474.8 464.5,466.6 453.5,462.7 464.2,463.1 470.5,461 
						475.5,459.9 481.9,461.4 487.2,462.1 489,459.9 498.2,461 498.5,454.9 485.8,451.4 480.5,448.6 480.5,444 489,444 497.1,442.2 
						503.5,438 507.8,433.7 504.6,431.6 494.3,433.4 492.2,429.8 481.2,432 473,433.7 474.5,429.8 481.9,423.5 490.4,419.9 
						497.1,418.1 503.1,417.5 507.8,411 501.4,410.7 495.3,412.5 485.1,417.5 473.7,415.3 464.5,413.2 465.2,406.8 470.5,403.6 
						472.7,402.2 476.2,399.7 476.9,396.2 481.2,389.8 478.7,386.3 470.5,386.3 464.5,387.3 453.2,389.4 448.3,387 462.1,380.3 
						474.1,376 486.2,377.4 496.1,378.1 502.1,379.5 506,379.2 507.8,375.3 500.3,372.8 496.8,370.7 495.7,368.9 491.8,366.8 
						494.6,363.6 498.2,360.4 496.8,356.9 489,348.4 485.4,350.2 480.5,353.7 475.8,348.4 473,348.4 467,352.6 463.5,353.7 
						458.5,351.9 455,348.4 450.4,350.2 446.5,351.9 440.8,351.5 435.8,357.6 436.6,361.5 430.6,367.5 423.8,363.6 417.3,359.7 
						410.7,357.6 404.8,353.3 398.7,350.5 390.2,352.6 385.7,356.2 400.4,357.6 					"/>
					<polygon class="st17" points="250.3,418.7 256.2,418.7 258.3,425.8 258,430 264.7,430 273.2,430.4 279.2,437.5 282.5,437.1 
						289.5,440 295.1,442.8 300.1,450.6 303.2,453.4 314.6,451.6 322.4,455.5 327,461.6 335.5,462.6 342.2,461.6 324.9,472.5 
						314.2,475 305.6,480 300.1,486.3 314.2,488.1 321.7,487.4 327,489.9 333.4,495.5 337.3,498 342.2,503 348.6,509 338.7,509 
						333.7,505.1 327,505.1 327,509 330.9,513.6 339.1,519.3 344.7,522.4 345.4,528.8 344.3,532.3 340.4,534.1 333.7,537.3 
						327,540.5 321.7,538.8 319.6,530.6 319.6,525.6 310,528.8 308.2,534.1 310,540.5 301.9,543 299.5,543 291.2,546.9 289.8,551.8 
						285.6,554 286.3,549 282.5,548.7 277.4,550.8 271.3,550.5 268.6,546.6 261.9,546.2 259,554 256.5,557.5 250.3,556.8 
						250.3,549.7 244.1,548.3 237.9,551.5 233.1,554 231.4,544.8 220.4,550.1 216.9,552.6 211.9,546.2 215.8,538.4 209.1,534.1 
						203.4,533.1 198.8,532 192.8,533.1 192.4,524.9 203.4,521.1 192.8,521.4 186.5,519.3 181.4,518.2 175.1,519.6 169.8,520.3 
						168,518.2 158.8,519.3 158.5,513.3 171.2,509.7 176.5,506.9 176.5,502.3 168,502.3 159.8,500.5 153.5,496.2 149.2,492 
						152.4,489.9 162.7,491.7 164.8,488.1 175.8,490.2 183.9,492 182.5,488.1 175.1,481.7 166.6,478.2 159.8,476.4 153.8,475.7 
						149.2,469.4 155.6,469 161.6,470.7 171.9,475.7 183.2,473.6 192.4,471.5 191.7,465.1 186.5,461.9 184.3,460.5 180.8,458 
						180,454.5 175.8,448.1 178.2,444.5 186.5,444.5 192.4,445.6 203.7,447.7 208.7,445.3 194.9,438.5 182.9,434.3 170.8,435.7 
						160.9,436.4 154.9,437.8 151,437.5 149.2,433.6 156.7,431.1 160.2,428.9 161.3,427.2 165.2,425.1 162.3,421.9 158.8,418.7 
						160.2,415.1 168,406.7 171.5,408.4 176.5,412 181.1,406.7 183.9,406.7 189.9,410.9 193.5,412 198.5,410.2 202,406.7 
						206.6,408.4 210.5,410.2 216.2,409.9 221.1,415.9 220.4,419.8 226.4,425.8 233.1,421.9 239.6,418 246.3,415.9 252.2,411.6 
						258.3,408.8 266.8,410.9 271.3,414.4 256.5,415.9 					"/>
					<polygon class="st17" points="161.9,317.4 156.1,317.4 154,324.5 154.3,328.7 147.6,328.7 139.1,329.1 133.1,336.2 
						129.8,335.8 122.8,338.7 117.2,341.5 112.2,349.3 109,352.1 97.7,350.4 89.9,354.3 85.3,360.3 76.8,361.3 70.1,360.3 
						87.4,371.2 98,373.7 106.6,378.7 112.2,385 98,386.8 90.6,386.1 85.3,388.6 78.9,394.3 75,396.7 70.1,401.7 63.7,407.7 
						73.6,407.7 78.5,403.8 85.3,403.8 85.3,407.7 81.4,412.3 73.3,418 67.6,421.1 66.8,427.6 67.9,431.1 71.8,432.8 78.5,436 
						85.3,439.3 90.6,437.5 92.7,429.3 92.7,424.4 102.3,427.6 104,432.8 102.3,439.3 110.4,441.7 112.8,441.7 121.1,445.6 
						122.4,450.5 126.7,452.7 126,447.7 129.8,447.4 134.9,449.5 141,449.2 143.7,445.3 150.4,444.9 153.3,452.7 155.7,456.2 
						161.9,455.5 161.9,448.4 168.1,447 174.4,450.2 179.1,452.7 180.9,443.5 191.9,448.8 195.4,451.3 200.4,444.9 196.5,437.1 
						203.2,432.8 208.9,431.8 213.5,430.7 219.5,431.8 219.8,423.7 208.9,419.8 219.5,420.1 225.8,418 230.8,416.9 237.2,418.3 
						242.5,419 244.3,416.9 253.5,418 253.9,412 241.1,408.4 235.8,405.6 235.8,401 244.3,401 252.4,399.2 258.8,395 263,390.7 
						259.9,388.6 249.6,390.4 247.5,386.8 236.5,388.9 228.4,390.7 229.7,386.8 237.2,380.4 245.7,376.9 252.4,375.1 258.5,374.4 
						263,368.1 256.7,367.7 250.7,369.4 240.4,374.4 229.1,372.3 219.8,370.2 220.6,363.8 225.8,360.6 228,359.2 231.5,356.7 
						232.3,353.2 236.5,346.8 234,343.3 225.8,343.3 219.8,344.3 208.5,346.5 203.5,344 217.4,337.2 229.4,333 241.4,334.4 
						251.4,335.1 257.4,336.5 261.3,336.2 263,332.3 255.6,329.8 252.1,327.7 251,325.9 247.1,323.8 250,320.6 253.5,317.4 
						252.1,313.8 244.3,305.4 240.7,307.1 235.8,310.7 231.2,305.4 228.4,305.4 222.3,309.6 218.8,310.7 213.8,308.9 210.3,305.4 
						205.7,307.1 201.8,308.9 196.1,308.6 191.2,314.6 191.9,318.5 185.8,324.5 179.1,320.6 172.7,316.7 166,314.6 160.1,310.3 
						154,307.5 145.5,309.6 141,313.2 155.7,314.6 					"/>
					<polygon class="st12" points="220.7,396.6 217.5,393.5 217.7,393.5 					"/>
					<polygon class="st13" points="449.2,349.4 450.3,355.1 445.1,360.3 437.3,364.4 430.5,362.6 421.1,358.6 417.8,368.5 
						410.3,365.5 402.4,364.4 402.4,372.7 395.3,375.2 389,376 386,380.5 386,386.6 394.2,389.1 402.8,386.6 411.8,386.6 
						404.7,391.3 400.6,396.6 402.9,400.7 413.3,400.7 423.7,402.9 432.4,402.9 437.3,405.6 426.4,410.1 415.5,407.5 415.2,414.2 
						404.7,416.5 393.8,416.5 392.7,425.4 384.1,419.8 377,420.1 372.1,429.5 365.4,429.5 358.3,431.8 356.4,433.6 356.1,446.4 
						350.8,439.2 347.5,429.5 340.3,425.4 332.5,422.4 329.5,416.5 318.6,412.5 306,414.5 311.9,410.1 317.2,407 329.2,405.7 
						330.3,400.3 323.2,399.6 317.2,397.7 317.2,394.8 313,386.6 305.6,386.6 301.8,391 294.5,393.5 284.3,393.5 287,389.9 
						294.5,383.9 300.7,377.9 306,374.9 310.4,373.4 308.2,365.9 302.9,358.6 294.5,363.3 289.9,362.6 280.5,355.1 275.7,360.7 
						270.9,366.7 270.9,360 262.9,355.1 257.3,362.9 258.8,371.4 255.1,375.9 259.2,386.6 253.6,384.2 248.4,374.5 243.9,367.4 
						241.6,372.7 238.9,370.8 234.2,368.5 230.4,374.5 230.8,380.5 227.4,378.6 221.4,376.4 217.3,379.4 211.3,386.6 214.3,390.4 
						217.5,393.5 209.8,393.5 203.4,397 197.8,394.7 191.8,395.4 191.8,403.3 187.7,405.6 184,404.4 179.5,403.3 179.2,411.9 
						189.3,427.2 179.5,426.9 177.7,432.1 171.7,446.4 165.7,442.9 160.8,446.4 159,441.8 151.1,440 145.5,441.1 143.3,435.9 
						139.2,433.6 129.4,432.8 126.8,428 119.4,425.4 113,422.4 114.4,419.8 129.8,413.4 129.4,409.3 121.2,410.4 108.5,410.4 
						97.6,405.9 95,404.8 92.7,396.2 97.6,391.7 101,393.5 104.5,398.5 112.6,401.4 119.4,399.6 138,393.5 126.4,389.1 130.9,389.5 
						142.9,384.2 148.1,377.9 160.5,373.4 160.5,368.9 151.1,362.9 142.9,358.6 137.4,368.9 131.3,363.7 122.3,367.4 117.1,370.8 
						107.4,373.8 92,378.6 90.5,371.5 101.4,362.2 104.5,351.7 107,345 112.6,343.5 117.1,340.1 124.5,331.1 127.2,334.5 
						132.8,329.3 144.8,327.4 136.9,319.5 130.2,322.2 122.7,323.6 113,322.5 104.5,322.9 93.5,320.3 98.7,317.3 104.5,313.2 
						114.1,309.1 127.2,309.1 133.2,307.2 135.4,300.7 148.9,294.9 158.6,294.9 165,286.6 166.1,282.9 178,278.7 179.5,273.9 
						175.1,272 165,273.2 149.2,273.5 141,278.7 134.7,275.8 127.5,274.3 119.4,278.7 101.7,280.2 98.7,273.2 104.5,271.7 
						109.6,267.2 115.2,257.5 125.7,261.6 131.3,257.5 135,251.1 141.4,246.2 152.2,245.9 145.9,244 145.9,239.5 151.6,236.1 
						156,234.6 160.8,222.7 163.4,223.4 167.6,222.7 177.3,220.1 181,219.3 183.6,227.2 198.6,223.8 196.4,220.4 189.6,215.6 
						188.5,211.8 183.6,207.8 187.7,204.3 193.4,201.4 199.4,196.8 203.9,201.4 204.4,209.1 208.7,215.2 214.5,217.1 224.1,216.3 
						219.2,210.7 216.2,207.8 222.2,201.4 224.4,197.3 225.9,193.1 234.9,191.3 234.2,184.5 236,180.8 238.9,189.4 243.5,198.4 
						250.7,200.6 257.7,196.5 254.7,190.5 260.7,185.7 265.5,181.9 262.2,176.8 270.9,171.8 276,174.4 277.9,176.8 286,176.8 
						283.9,185.7 282.8,193.1 282.4,201.4 287,207.8 293.2,207.8 298.5,205.5 297.4,196.1 294.5,185.3 294.5,183.4 299.2,184.9 
						307,183.8 309.3,181.9 311.9,173.3 313.8,179.3 322,179.7 326.5,176.8 328.4,173.7 332.9,171.8 340.3,180.4 342.8,184.1 
						347.5,183 354.2,186.8 355,198.7 356.1,204.3 360.2,201.4 371.8,201 375.5,204.3 369.5,204.3 365.1,207.8 362.4,214.1 
						365.1,219 365.1,225.7 368.7,228.6 376.2,227.2 381.1,230.1 381.9,227.2 392.3,228.3 395,236.1 392,237.3 388.2,243.6 386,247 
						393.8,247 396,254.9 396.4,256.3 402.4,258.2 409.5,260.1 417.4,263.1 417,265.1 407.7,272.8 414.8,275.8 420.4,278.7 
						419.5,280.6 415.5,289.2 423.7,293.4 428.2,294.9 437.3,297.1 449.6,298.6 448.8,302.7 445.1,304.2 441.7,315.1 435.4,312.8 
						430.1,310.9 422.2,308.3 417.5,314.4 407.3,314.3 413.7,321.5 403.6,326.3 402,332.6 402.8,341.6 429.7,341.6 435,348 
						443.6,346.5 451.4,341.9 455.2,349.4 					"/>
					<path class="st17" d="M273.9,231.2c0,0-18.7-0.1-19.4-0.1c-0.8,0.1-15.3,3.4-15.3,3.4l-15.7-4.7l-5.9,2.7l-4.5,9.3l-8.2-14.6
						l-6.3-3.4l-11.1-3.2l-3.8,6.6l-6.2,14.2l18.4-5.5l9,5l-7.2,14l11.2,4.7l11.3-1.6l4.5,0.8c3.6-0.6,7.2-1.3,10.8-2.1l-2.5-4.4
						l9.5-1.8l14.6-4.5l4.5,1.1l6.7-6.7c0,0,4.7,1.6,4.6,1.9c-0.1,0.3,17.8-7.5,17.8-7.5L273.9,231.2z"/>
					<path class="st17" d="M358.1,256.1l-2.1,1l-11.1-9.2l-12.9,5.8l-5.6,0.7l-8.9,2.7l-3.9-8.1l-18,11.6l-4.1,3.4l2.2-10.5
						c0,0-5.2-2.5-4.9-4.2c0.1-0.3,0.3-0.9,0.6-1.6c-2.1-1.4-4.2-3-6.3-4.4l-0.3,1.7l-2.3,15.8l7.6,15.1l11.9-3.5l3.9-1.4
						c0,0,13.6,4.3,14.6,4.6s10.6-7.2,10.6-7.2l3.8-7l24.9,10.1l4.5-12.8l7.7-4.7L358.1,256.1z"/>
				</g>
				<g class="st7">
					<path class="st8" d="M421.8,322v2.3l-10.5-1.5l-1.5-0.2l-3.7-0.5l-14.7,3.5l-1.3,0.3l-7.5,1.8l-2.7,1.9l-0.9,0.7l-8.7,6.2
						l-1,0.7l-2.4,1.7l0.3,1.6l0.2,1.1l2.9,15.2l5.2-3l1.1-0.6l5.5-3.2l1-0.6l10.7-6.3l1.1-0.7l4.2-2.5l1.4,0.6l1.2,0.5l-6.7,5
						l-1.2,0.7l-7.4,5.5l-0.9,0.7l-8.5,6.2l-1.1,0.8l-0.1,0.1l-9,7.8l-0.6,0.3l-1,0.6l-9.8,5.4l-1,0.6l-8.3,4.5l-1.1,0.6l-0.6,0.4
						l-9.6,15.4l-0.6,1l-1,1.5l-15.7,15.7l-0.2,0.5l-4.6,13.2l-0.4,1l-3.2,9.3l-0.4,1.1l-0.6,1.6l-14.3,16.9l-0.9,1.1l-0.1,0.1
						c0,0-0.3,15.2-0.6,30.7c0,0.4,0,0.8,0,1.1c-0.2,8.6-0.3,17.2-0.4,23.1c0,0.4,0,0.8,0,1.1c-0.1,3.9-0.1,6.5-0.1,6.7
						c0,0.5,2.8,11.6,5.7,23.2c0.1,0.4,0.2,0.8,0.3,1.2c2.3,8.9,4.5,17.8,5.6,22.2c0.1,0.4,0.2,0.8,0.3,1.1c0.3,1.1,0.4,1.6,0.4,1.6
						l4.3,22.3l0.2,1.1l3.7,19l1.6,8.1l0.2,1.1l2.2,11.2l0.2,1.1l1.4,7.1h-89.9v-107l2.1-5.8l0.4-1.1l8.5-23.3l0.4-1.1l7.7-21.1
						l0.4-1.1l8.6-23.5l0.4-1.1l3-8.2l-0.8-10.5l-0.1-1.1l-1.6-20.1l-0.1-1.2l-0.1-1.3l-12.7-14.2l-0.7-0.8l-12.7-14.2l-0.9-1
						l-6.7-7.4L222,376l-10.6-11.8l-0.8-0.8l-1.8-2.1l-7.3-3l-1.1-0.5l-8.4-3.4l-1.1-0.5l-8.1-3.3l-1.1-0.5l-6.2-2.5l-10.5-5
						l-1.2-0.6l-6.7-3.2l0.4-0.7l0.8-1.5l8.5,3.6l1.3,0.5l5.9,2.6l-1.6-5.2L172,337l-4.7-15l2.3-2.3l6.4,14.9l0.5,1l3.3,7.6l3.1,0.8
						l1.1,0.3l12.1,3.2l1.2,0.3l3.6,1l1.1,0.3l7,1.9l1.7-17.6l0.1-1.1l1.8-17.8l0.1-1.1l0.4-4l0.2-1.5l0.2-1.6l-8-16l-0.5-1
						l-6.2-12.5l-1-1.9l-0.2-0.1l-0.3-0.1l-1.3-0.6l-11.7-5.2l-1-0.5l-5.7-2.5l0.3-0.6l0.1-0.2l0.6-1.1l0.2-0.4l0.7,0.3l2,0.8
						l3.3,1.3l1.1,0.4l13.1,5.1l0.5,0.9l0.6,1l8.5,14.9l0.6,1l3.8,6.9l0.6,1.1l0.4-0.9l3.8-9.3l0.5-1.3l3.8-9.4l0.5-1.1l1.1-2.8
						l2.3,2.3l-0.7,1.9l-0.4,1.1l-2.5,6.9l-0.5,1.3l-4,11l-0.4,1.1l-0.5,1.4l1.5,4.6l0.4,1.1l0.3,1v47.1l0.5,0.5l0.8,0.8l23.4,23.4
						l7.5-16l0.5-1l1-2.1l-5.6-20.2l0.7-3.1l0.3-1.1l3-12.6h2.7l-1.9,13.7l-0.2,1.1l-0.1,0.8l5.2,18.4l1.5,6.2l-0.4,1.8l-0.3,1.1
						l-3.6,16.4l-0.2,0.9l0.2,0.3l3.5,5.3l0.6,0.9l12.6,18.8l0.5,0.7l0.1,0.4l6,23l12.3-6.7l1.3-3.5l0.4-1L297,405l0.4-1l1-2.6
						l20.3-13c0,0,0.5-0.7,1.1-1.7c0.2-0.3,0.4-0.6,0.6-0.9c2.9-4.4,8.2-12.7,8.2-13.5c0-0.3-0.5-1.7-1.3-3.5
						c-0.3-0.6-0.5-1.2-0.8-1.8c-1.6-3.7-3.8-8.6-4.9-11.4c-0.2-0.4-0.3-0.8-0.4-1.1c-0.3-0.6-0.4-1-0.4-1.2c0-0.3,0.5-2.1,1.3-4.5
						c0.1-0.4,0.2-0.7,0.4-1.1c0.9-2.7,1.9-6,3-9.1c0.2-0.4,0.3-0.8,0.4-1.2c1.5-4.6,2.8-8.5,2.8-8.5v-17.3l0.4-0.4l0.7-0.7l0.3,4.3
						l0.1,1.1l0.8,11.3v0.1l0.1-0.1l5.9-10.8l0.6-1.1l4.6-8.3l1.1,1.1l-3.4,7.3l-0.5,1.1l-5,10.6l-0.5,1.7l-0.4,1.1l-1.9,6l-0.3,1.4
						l-3.7,11.7l-0.4,1.1l-0.6,1.8l0.8,1.4l0.6,1l7.6,14.3c0,0,7.3-2.5,14.1-5.1c0.4-0.2,0.7-0.3,1.1-0.4c2.2-0.8,4.4-1.6,6.1-2.4
						c0.4-0.2,0.8-0.3,1.1-0.5c2.1-0.9,3.4-1.5,3.4-1.8v-17.7c0-2.2,0-3.7,0-3.7l6.5-5.6l0.9-0.8l5.5-4.8l0.9-0.7l4.1-3.5l13-1.7
						l1.2-0.2l10.1-1.3l1.7-2.8l0.6-1.1l4.6-7.5h2.3l-5.1,10.2l-0.6,1.1l-0.1,0.1l0.2,0.1l1.6,0.4L421.8,322z"/>
					<path class="st10" d="M411.8,307.4l-6.5,13.4l-24.9,5l-16.1,12.3v24.1l-28.8,10.2V369c0,0,7.3-2.5,14.1-5.1
						c0.4-0.2,0.7-0.3,1.1-0.4c2.2-0.8,4.4-1.6,6.1-2.4c0.4-0.2,0.8-0.3,1.1-0.5c2.1-0.9,3.4-1.5,3.4-1.8v-17.7c0-2.2,0-3.7,0-3.7
						l6.5-5.6l0.9-0.8l5.5-4.8l0.9-0.7l4.1-3.5l13-1.7l1.2-0.2l10.1-1.3l1.7-2.8l0.6-1.1l4.6-7.5H411.8z"/>
					<path class="st10" d="M400.4,340.5c-10.9,7.6-31.2,21.7-31.5,21.7c-0.2-0.1,1.2-5.5,1.2-5.5l5.2-3l1.1-0.6l5.5-3.2l1-0.6
						l10.7-6.3l1.1-0.7l4.2-2.5L400.4,340.5z"/>
					<path class="st10" d="M334.8,374.8l-6.1,15.5L304.1,406c0,0-6.7,23.5-7,24.3c-0.3,0.7-17.6,14.9-17.6,14.9l-2.3-13.4l12.3-6.7
						l1.3-3.5l0.4-1l5.8-15.3l0.4-1l1-2.6l20.3-13c0,0,0.5-0.7,1.1-1.7c0.2-0.3,0.4-0.6,0.6-0.9c2.9-4.4,8.2-12.7,8.2-13.5
						c0-0.3-0.5-1.7-1.3-3.5c-0.3-0.6-0.5-1.2-0.8-1.8c-1.6-3.7-3.8-8.6-4.9-11.4c-0.2-0.4-0.3-0.8-0.4-1.1c-0.3-0.6-0.4-1-0.4-1.2
						c0-0.3,0.5-2.1,1.3-4.5c0.1-0.4,0.2-0.7,0.4-1.1c0.9-2.7,1.9-6,3-9.1c0.2-0.4,0.3-0.8,0.4-1.2c1.5-4.6,2.8-8.5,2.8-8.5v-17.3
						l0.4-0.4l1.1,18.8L323,353L334.8,374.8z"/>
					<polygon class="st10" points="254.4,359.4 247.7,384.4 243.6,378 251.1,362.1 251.6,361.1 252.6,359 247,338.8 247.7,335.6 
						248,334.6 250.9,322 253.2,322 248.3,338.8 					"/>
					<g class="st18">
						<polygon class="st19" points="177.8,265.2 177.7,265.4 177.5,265.9 183.2,268.4 184.2,268.9 195.9,274.1 197.2,274.7 
							197.5,274.9 195.9,272 						"/>
						<polygon class="st10" points="214.8,305.4 198.7,276.9 204.9,289.3 205.4,290.3 213.3,306.3 213.2,307.9 213,309.4 
							212.6,313.5 212.5,314.6 210.7,332.4 210.6,333.5 208.9,351.1 214.8,354.3 215.8,348.4 						"/>
					</g>
					<path class="st10" d="M256.3,456.7l3-8.2l-0.8-10.5l-0.1-1.1l-1.6-20.1l-0.1-1.2l-0.1-1.3l-12.7-14.2l-0.7-0.8l-12.7-14.2
						l-0.9-1l-6.7-7.4l-0.8-0.8l-10.6-11.8l-0.8-0.8l-1.8-2.1l-7.3-3l-1.1-0.5l-8.4-3.4l-1.1-0.5l-8.1-3.3l-1.1-0.5l-6.2-2.5
						l-10.5-5l-1.2-0.6l-6.7-3.2l0.4-0.7l18.8,7.5l19.4,4.9l18.9,7.7l12.7,15.3l19.4,19.5l13.4,18.7l7.8,12.2v48.6l-15.7,43.4
						l-8.5,32.5l4.8,31.4v29.1l11.1,4.5l40.7,4.5c0,0,5.8-2.4,11.6-4.7l1.6,8.1l0.2,1.1l2.2,11.2l0.2,1.1l1.4,7.1h-89.9V534.9
						l2.1-5.8l0.4-1.1l8.5-23.3l0.4-1.1l7.7-21.1l0.4-1.1l8.6-23.5L256.3,456.7z"/>
					<g>
						<path class="st10" d="M331,327.5v0.1V327.5L331,327.5z M196,347.6l-5,6.2l1.1,0.5l5.1-6.3L196,347.6z M297.5,544.7l-67-16.7
							l-0.4,1.1l67.8,16.8C297.7,545.4,297.6,545.1,297.5,544.7z M239.3,503.6l-0.4,1.1c16.9,3.2,36.4,7,53,10.1c0-0.4,0-0.8,0-1.1
							C275.4,510.5,256.1,506.9,239.3,503.6z M316.3,633.5h-88.4v1.1h88.6L316.3,633.5z M313.9,621.2h-86v1.1h86.2L313.9,621.2z
							 M308.4,593c-19.1,0.9-45.2,2.3-80.5,4.1v1.1c26.4-1.4,56.1-2.9,80.7-4.1L308.4,593z M303.4,568l-75.5-2.9v1.1l75.8,2.9
							C303.6,568.8,303.5,568.5,303.4,568z M247.3,481.5l-0.4,1.1l45.4,8c0-0.4,0-0.8,0-1.1L247.3,481.5z M256.3,456.7l-0.4,1.1
							c12,0.2,24.8,0.5,37.1,0.7l0.9-1.1C281.5,457.3,268.5,457,256.3,456.7z M297.6,404.2l-0.4,1l20.3,9.2l0.2-0.5l0.5-0.5
							L297.6,404.2z M291.3,420.5l-0.4,1l21.5,7l0.4-1L291.3,420.5z M258.4,437l0.1,1.1l50.3,0.9l0.4-1.1L258.4,437z M357.9,360.7
							c-0.4,0.2-0.7,0.3-1.1,0.5l8.5,7.6l1-0.6L357.9,360.7z M350.6,363.6c-0.4,0.1-0.7,0.3-1.1,0.4l4.9,10.8l1-0.6L350.6,363.6z
							 M376.5,353l-1.1,0.6l0.5,6.4l1.1-0.8L376.5,353z M383.1,349.3l-1,0.6l3.4,3.2l0.9-0.7L383.1,349.3z M367.2,340.4l-5.9,0.8
							v1.1l6.1-0.8L367.2,340.4z M368.7,331l-0.9,0.8l1.5,5.2l1-0.7L368.7,331z M322.5,347.8c-0.1,0.4-0.3,0.7-0.4,1.1l4.9,1.5
							l0.4-1.1L322.5,347.8z M325.9,337.5c-0.2,0.4-0.3,0.8-0.4,1.2l5.7-1.2l0.4-1.2L325.9,337.5z M327.3,353.7l-6,0.9
							c0.1,0.3,0.3,0.7,0.4,1.1l6.2-0.9L327.3,353.7z M176,334.6l-3.9,2.4l0.4,1.1l4-2.4L176,334.6z M182.9,344.1l-1,5.9l1.1,0.5
							l1-6.1L182.9,344.1z M210.7,332.4l-0.1,1.1l8.3,2.1v-1.2L210.7,332.4z M166.9,340.2L164,342l1.2,0.6l3-1.8L166.9,340.2z
							 M196,347.6l-5,6.2l1.1,0.5l5.1-6.3L196,347.6z M200.8,348.9l-0.3,8.8l1.1,0.5l0.3-9L200.8,348.9z M212.6,313.5l-0.1,1.1
							l6.4-0.6v-1.1L212.6,313.5z M218.3,304.2l-5.1,3.7l-0.2,1.5l5.6-4.1L218.3,304.2z M208.3,288.4l-3.4,0.9l0.5,1l3.5-0.9
							L208.3,288.4z M199.3,272.5l-3.4,1.6l1.3,0.6l2.6-1.3L199.3,272.5z M179.3,264c-0.3,0.1-0.6,0.1-0.9,0.2l-0.6,1.2
							c1.2-0.2,2.4-0.4,3.5-0.6L179.3,264z M184.6,266l-1.4,2.4l1,0.5l1.5-2.5L184.6,266z M222.3,275.4l-0.5,1.1l2.7,1.4l0.4-1.1
							L222.3,275.4z M218.1,285.8l-0.5,1.3l4.1-1.1l0.5-1.3L218.1,285.8z M213.7,296.4l-0.4,0.9l-0.6-1.1l-4.8-0.8l0.6,1.2l8.7,1.4
							l0.4-1.1L213.7,296.4z M232.2,366.6l-10.1,9.3l0.8,0.8l10.2-9.4L232.2,366.6z M251.6,361.1l-0.5,1c2.5,1.3,4.6,2.4,6.4,3.2
							l0.3-1.1C255.8,363.2,253.7,362.2,251.6,361.1z M219.4,353.8l-8.7,9.4l0.8,0.8l8.7-9.5L219.4,353.8z M248,334.6l-0.3,1.1
							l3.8,1.2l0.2-1.1L248,334.6z M257.4,388.1c-4.2,3.4-9.3,7.4-14.3,11.4l0.7,0.8c4.6-3.7,9.6-7.6,14.2-11.3L257.4,388.1z
							 M253.9,381.7l-24.4,2.6l0.9,1l23.5-2.5l-0.2-0.3L253.9,381.7z M271.1,408.4l-0.5-0.7l-14,8l0.1,1.2l14.4-8.2L271.1,408.4z
							 M331,327.5L331,327.5l-2.3-1.4v1.3l4.7,3l0.4-1.1L331,327.5z M337.6,315.7l-0.6,1.1l2.4,0.2l0.5-1.1L337.6,315.7z
							 M330.2,315.1l-1.4-0.1v1.1l1.5,0.1L330.2,315.1z M375.1,325.5l-0.9,0.7l4.7,3.9l0.9-0.7L375.1,325.5z M392.2,320.3l-2.1,5.5
							l1.3-0.3l2.1-5.3L392.2,320.3z M408.9,319.2l-1.6-0.4l2.6,3.6l1.5,0.2L408.9,319.2z M405.9,315l-0.6,1.1l1.8,2.7l0.6-1.1
							L405.9,315z M393.8,343v3.8l1.1-0.8v-3.6L393.8,343z M326.7,367c0.3,0.7,0.5,1.2,0.8,1.8l17.6,11.1l1.1-0.6L326.7,367z
							 M320.6,385.9c-0.2,0.4-0.4,0.7-0.6,0.9l14.3,9.8l0.6-1L320.6,385.9z"/>
					</g>
				</g>
				<polygon class="st5" points="297.6,448.7 292.9,451.5 284.6,454.6 284.6,458.2 282.6,457.4 274.3,463.2 269.3,466.5 
					267.3,469.3 259.5,469.8 248.5,467.9 253.8,476.2 253.4,479.6 246.8,480.1 242.4,480.7 248.5,485.1 254.9,489.4 259.5,492.3 
					259.5,499.8 268.2,510.7 276.3,515.1 273.2,520.9 271.8,525.6 282.1,524 289,518.7 292.3,522.9 293.1,525.9 296,531.2 
					302.1,530.1 307.6,522.9 309.6,530.7 313.7,533.2 315.1,534.8 318.2,532.9 322.3,536.5 326.5,527.9 329.5,524.2 337.1,520.9 
					338.1,514.5 346.5,516.8 351.2,517.3 354.5,508.4 363.1,510.1 369.7,513.7 376.2,513.4 382.9,515.1 387.8,512.3 408.7,514 
					412,517.3 417.5,517.6 413.9,510.1 405.3,507.6 400.9,504.3 407.8,501.8 412,498.2 405.1,492.6 399.8,489.4 404.8,485 
					411.2,475.1 398.7,472.1 407.8,468.7 406.1,458.7 396.7,448.7 389.8,447.1 380.3,443.5 375.6,436.4 364.2,436.3 358.7,439.6 
					353.2,444.6 349.3,448.7 343.2,450.1 338.9,447.1 334,443.8 328.5,439.5 323.7,441.3 324,448.7 318.2,451.3 309.8,444 
					302.1,442.1 297.9,440.1 290.7,441.3 288.7,444 284.6,447.1 289.3,447.1 294.5,445.4 296,447.1 				"/>
			</g>
			<g>
				<polygon class="st20" points="488.3,329.1 423.4,398.3 422,353.8 421.9,352.1 421.6,341.2 420.9,321 420.7,312.5 420.5,306.2 
					419.7,282 486.2,261 486.5,271.8 486.7,278.8 486.9,283.1 487.2,295 				"/>
				<path class="st21" d="M488.3,329.1l-64.9,69.2l-1.4-44.5c15.7-14.3,46.5-41.9,65.3-58.8L488.3,329.1z"/>
				<path class="st22" d="M486.5,271.8c-16.6,8.6-48,24.9-66.1,34.4l-0.8-24.2l66.5-21L486.5,271.8z"/>
				<rect x="374.2" y="640.5" class="st11" width="325" height="7.7"/>
				<g>
					<polygon class="st1" points="649.8,420.4 649.8,640.5 396,640.5 396,420.4 400.3,414.5 401.7,412.5 416.5,392.3 417.9,390.4 
						430.7,372.9 432,371 442.4,356.8 443.8,354.9 456.5,337.5 457.9,335.6 472.9,315 474.3,313.1 487.5,295 488.9,293 501.8,275.5 
						503.1,273.6 515.8,256.3 517.2,254.3 527.2,240.5 536.2,253.7 537.4,255.6 551,275.4 552.3,277.4 563,293 564.3,295 
						577.6,314.5 578.9,316.4 590.4,333.2 591.7,335.1 608.3,359.5 609.7,361.5 618,373.9 619.4,375.8 629.3,390.4 630.6,392.3 
						640.5,406.8 641.8,408.8 					"/>
					<polygon class="st23" points="608.1,484 603.8,629 603.5,638.5 603.5,640.6 535.9,640.6 533.3,599.9 526,484 					"/>
					<path class="st23" d="M553,385.9c-0.3-0.7-0.5-1.3-0.8-1.8c-1.5-3.2-3.5-6.2-6.1-8.7c-1.4-1.4-3-2.7-4.6-3.8
						c-1.4-1-3-1.8-4.7-2.6c-1-0.5-2-0.8-3-1.1c-3-1-6.1-1.4-9.3-1.4c-14.6,0-27.1,10.4-29.8,24.6c-0.4,1.8-0.5,3.7-0.5,5.7
						c0,0.6,0,1.2,0.1,1.7c0.2,4.1,1.3,8.1,3.1,11.7c0.8,1.7,1.8,3.3,3,4.8c2.6,3.4,6,6.4,9.8,8.4l1.5,0.8h0.1
						c0.7,0.3,1.3,0.6,2,0.8c3.4,1.3,7.1,2,10.8,2c16.7,0,30.3-13.6,30.3-30.3C555,392.9,554.4,389.3,553,385.9z"/>
					<polygon class="st23" points="649.8,420.4 649.8,457.6 529.2,267.7 396,450.6 396,420.4 400.3,414.5 401.7,412.5 416.5,392.3 
						417.9,390.4 430.7,372.9 432,371 442.4,356.8 443.8,354.9 456.5,337.5 457.9,335.6 472.9,315 474.3,313.1 487.5,295 488.9,293 
						501.8,275.5 503.1,273.6 515.8,256.3 517.2,254.3 527.2,240.5 536.2,253.7 537.4,255.6 551,275.4 552.3,277.4 563,293 
						564.3,295 577.6,314.5 578.9,316.4 590.4,333.2 591.7,335.1 608.3,359.5 609.7,361.5 618,373.9 619.4,375.8 629.3,390.4 
						630.6,392.3 640.5,406.8 641.8,408.8 					"/>
					<g>
						<g>
							<polygon class="st24" points="537.4,255.6 515.8,256.3 517.2,254.3 536.2,253.7 							"/>
						</g>
						<g>
							<polygon class="st24" points="552.3,277.4 501.8,275.5 503.1,273.6 551,275.4 							"/>
						</g>
						<g>
							<polygon class="st24" points="564.3,295 487.5,295 488.9,293 563,293 							"/>
						</g>
						<g>
							<path class="st24" d="M578.9,316.4c-34.3-0.5-71.9-0.9-106-1.3l1.4-1.9c33.3,0.4,69.9,0.9,103.3,1.3L578.9,316.4z"/>
						</g>
						<g>
							<polygon class="st24" points="591.7,335.1 456.5,337.5 457.9,335.6 590.4,333.2 							"/>
						</g>
						<g>
							<polygon class="st24" points="609.7,361.5 442.4,356.8 443.8,354.9 608.3,359.5 							"/>
						</g>
						<g>
							<polygon class="st24" points="619.4,375.8 430.7,372.9 432,371 618,373.9 							"/>
						</g>
						<g>
							<polygon class="st24" points="630.6,392.3 416.5,392.3 417.9,390.4 629.3,390.4 							"/>
						</g>
						<g>
							<path class="st24" d="M641.8,408.8c-69.7,1.7-179,4.3-241.5,5.7l1.4-2c62.4-1.5,169.8-4.1,238.8-5.7L641.8,408.8z"/>
						</g>
						<g>
							<rect x="396" y="430.7" class="st24" width="253.8" height="1.9"/>
						</g>
						<g>
							<polygon class="st24" points="649.8,446.2 649.8,448.1 396,454.8 396,452.9 							"/>
						</g>
						<g>
							<polygon class="st24" points="649.8,482.8 649.8,484.8 396,480.4 396,478.4 							"/>
						</g>
						<g>
							<polygon class="st24" points="649.8,497.6 649.8,499.6 396,506.2 396,504.2 							"/>
						</g>
						<g>
							<path class="st24" d="M649.8,463.2v1.9c-68.5-0.1-195.4,0.1-253.8,0.1v-1.9C454.6,463.3,581.3,463.2,649.8,463.2z"/>
						</g>
						<g>
							<polygon class="st24" points="649.8,522.9 649.8,524.8 396,528.3 396,526.3 							"/>
						</g>
						<g>
							<polygon class="st24" points="649.8,547.8 649.8,549.7 396,539.9 396,538 							"/>
						</g>
						<g>
							<polygon class="st24" points="649.8,577.4 649.8,579.3 396,588.3 396,586.4 							"/>
							<polygon class="st24" points="396,607.9 649.8,596.8 649.8,598.8 396,609.8 							"/>
							<rect x="396" y="620.3" class="st24" width="253.8" height="1.9"/>
							<polygon class="st24" points="396,632.1 649.8,636.5 649.8,638.4 396,634 							"/>
							<polygon class="st24" points="649.8,561.8 649.8,563.8 396,566.8 396,564.8 							"/>
						</g>
					</g>
					<polygon class="st25" points="672,438.9 652.7,438.9 527.2,249.1 393.5,438.9 375,438.9 527.2,232 					"/>
					<polygon class="st26" points="664.6,438.9 652.7,438.9 527.2,249.1 393.5,438.9 382.4,438.9 527.2,240.5 					"/>
					<g>
						<path class="st27" d="M527.2,422.3c-3.7,0-7.4-0.7-10.8-2c-0.7-0.3-1.3-0.5-2-0.8h-0.1l-1.5-0.8c-3.8-2.1-7.2-5-9.8-8.4
							c-1.1-1.5-2.2-3.1-3-4.8c-1.8-3.7-2.9-7.6-3.1-11.7c-0.1-0.6-0.1-1.1-0.1-1.7c0-1.9,0.2-3.8,0.5-5.7
							c2.7-14.3,15.2-24.6,29.8-24.6c3.2,0,6.3,0.5,9.3,1.4c1,0.3,2.1,0.7,3,1.1c1.6,0.7,3.2,1.6,4.7,2.6c1.6,1.1,3.2,2.4,4.6,3.8
							c2.5,2.6,4.6,5.5,6.1,8.7c0.3,0.6,0.5,1.2,0.8,1.8c1.3,3.4,2,7.1,2,10.8C557.6,408.7,544,422.3,527.2,422.3z"/>
						<path class="st28" d="M527.2,419.7c-3.4,0-6.7-0.6-9.9-1.8c-0.8-0.3-1.5-0.6-2.3-1H515l-0.9-0.5c-3.5-1.9-6.6-4.5-9-7.7
							c-1-1.4-1.9-2.9-2.7-4.4c-1.6-3.3-2.6-6.9-2.8-10.7c-0.1-0.5-0.1-1-0.1-1.6c0-1.7,0.2-3.5,0.5-5.2c2.5-13,13.9-22.5,27.2-22.5
							c2.9,0,5.7,0.5,8.5,1.3c0.9,0.3,1.8,0.7,2.8,1c1.5,0.7,2.9,1.4,4.3,2.4c1.5,1,2.9,2.2,4.2,3.4c2.3,2.3,4.2,5,5.5,8
							c0.3,0.5,0.5,1.1,0.7,1.7c1.2,3.1,1.8,6.5,1.8,9.8C554.9,407.3,542.5,419.7,527.2,419.7z"/>
						<path class="st29" d="M551,392c0,13.1-10.6,23.7-23.7,23.7c-3,0-5.8-0.6-8.5-1.5c-1-0.4-1.9-0.8-2.8-1.3l0,0
							c-3-1.6-5.6-3.9-7.7-6.6c-0.9-1.2-1.7-2.5-2.4-3.8c-1.4-2.8-2.2-5.9-2.4-9.2c-0.1-0.5-0.1-0.9-0.1-1.3c0-1.5,0.2-3,0.4-4.5
							c2.1-11,11.7-19.3,23.3-19.3c2.5,0,5,0.4,7.2,1.1c0.8,0.3,1.6,0.6,2.4,0.9c1.3,0.6,2.5,1.2,3.6,2c1.3,0.9,2.5,1.8,3.6,3
							c1.9,1.9,3.6,4.3,4.7,6.8c0.2,0.5,0.4,0.9,0.6,1.4C550.4,386.2,551,389,551,392z"/>
						<g class="st18">
							<path class="st28" d="M544.1,375.3l-35.8,31c-0.9-1.2-1.7-2.5-2.4-3.8l34.5-30.2C541.8,373.2,543,374.2,544.1,375.3z"/>
							<path class="st28" d="M549.4,383.5l-30.6,30.6c-1-0.4-1.9-0.8-2.8-1.3l32.8-30.8C549,382.6,549.2,383.1,549.4,383.5z"/>
							<path class="st28" d="M536.9,370.3l-33.3,23c-0.1-0.5-0.1-0.9-0.1-1.3c0-1.5,0.2-3,0.4-4.5l30.6-18.2
								C535.3,369.7,536.1,370,536.9,370.3z"/>
						</g>
					</g>
					<g>
						<polygon class="st30" points="611.8,477.4 607.2,632 606.9,640.9 540,640.9 529.7,477.4 						"/>
						<polygon class="st29" points="603.6,482.9 602.9,518 602.8,520.3 602.6,531.6 602.3,547.2 600.5,632.8 544.3,632.8 
							542.2,596.8 541,577.2 540.3,565.7 540.2,562.8 538.3,530.7 537.9,523.6 535.4,482.9 						"/>
						<g>
							<polygon class="st31" points="601.6,482.9 538.3,530.7 537.9,523.6 593.3,482.9 							"/>
							<polygon class="st31" points="602.6,531.6 602.3,547.2 542.2,596.8 541,577.2 							"/>
							<polygon class="st31" points="602.9,518 602.8,520.3 540.3,565.7 540.2,562.8 							"/>
						</g>
						<polygon class="st32" points="534.5,512.7 608.3,510.9 608.3,519.6 534.5,517.6 						"/>
						<polygon class="st33" points="538.1,559.1 608.3,557.9 607.2,563.4 538.1,563.4 						"/>
						<path class="st34" d="M540,593.1c0.4,0,65.7,0,65.7,0l-1.9,41.9h-61.2L540,593.1z"/>
						<polygon class="st35" points="607.2,632 606.9,640.9 540,640.9 529.7,477.4 531.1,477.4 542.3,632 						"/>
						<path class="st36" d="M609.1,560.8c0,1.8-1.5,3.3-3.3,3.3c-1.8,0-3.3-1.5-3.3-3.3s1.5-3.3,3.3-3.3
							C607.6,557.5,609.1,559,609.1,560.8z"/>
					</g>
				</g>
				<g>
					<polygon class="st1" points="492.6,503.3 492.6,642.1 243,642.1 243,509.2 243.2,508.9 244.6,507 255.7,491.5 257.1,489.6 
						267.4,475.1 268.8,473.2 280.6,456.6 282,454.7 292.5,440 293.9,438 303.6,424.5 305,422.6 314.2,409.8 315.6,407.8 
						329.2,388.7 330.6,386.8 340.7,372.6 342.1,370.7 351.1,358.2 352.4,356.3 363.8,340.4 365.2,338.4 372.7,327.9 379.8,338.3 
						381.1,340.2 392.1,356.3 393.4,358.2 401,369.2 402.2,371.1 413,386.8 414.3,388.8 423.8,402.7 425.1,404.6 436.1,420.6 
						437.4,422.6 448,438 449.3,440 462.1,458.7 463.4,460.7 472,473.2 473.3,475.1 486,493.7 487.3,495.6 					"/>
					<path class="st23" d="M392.8,452.6c-0.2-0.6-0.4-1.1-0.7-1.6c-1.3-2.8-3-5.3-5.2-7.5c-1.2-1.2-2.5-2.3-3.9-3.2
						c-1.2-0.9-2.6-1.6-4-2.2c-0.8-0.4-1.7-0.7-2.6-1c-2.6-0.8-5.2-1.2-8-1.2c-12.5,0-23.3,8.9-25.6,21.2c-0.3,1.6-0.5,3.2-0.5,4.9
						c0,0.5,0,1,0.1,1.5c0.2,3.5,1.1,6.9,2.7,10.1c0.7,1.5,1.6,2.9,2.6,4.2c2.3,3,5.2,5.5,8.5,7.2l1.3,0.7h0.1
						c0.6,0.3,1.1,0.5,1.7,0.7c3,1.1,6.1,1.7,9.3,1.7c14.4,0,26.1-11.7,26.1-26.1C394.5,458.7,393.9,455.6,392.8,452.6z"/>
					<polygon class="st23" points="427.8,521.7 423.8,577.4 421.8,604.1 309,604.1 304.4,521.7 					"/>
					<path class="st23" d="M492.6,503.3v41.4L372.4,351.8c0,0-93.2,135.9-129.4,189.3v-32l0.2-0.3l1.4-1.9l11.1-15.5l1.4-1.9
						l10.4-14.5l1.4-1.9l11.8-16.5l1.4-1.9l10.5-14.7l1.4-1.9l9.6-13.5l1.4-1.9l9.2-12.8l1.4-2l13.6-19l1.4-1.9l10.1-14.2l1.4-2
						l8.9-12.5l1.4-1.9l11.4-15.9l1.4-1.9l7.5-10.5l7.1,10.3l1.3,1.9l11,16.1l1.3,1.9l7.5,11l1.3,1.9l10.7,15.7l1.3,1.9l9.5,14
						l1.3,1.9l10.9,16l1.3,1.9l10.6,15.5l1.3,1.9l12.8,18.7l1.3,1.9l8.5,12.5l1.3,1.9l12.7,18.6l1.3,1.9L492.6,503.3z"/>
					<g>
						<g>
							<polygon class="st37" points="381.1,340.2 363.8,340.4 365.2,338.4 379.8,338.3 							"/>
						</g>
						<g>
							<polygon class="st37" points="393.4,358.2 351.1,358.2 352.4,356.3 392.1,356.3 							"/>
						</g>
						<g>
							<polygon class="st37" points="402.2,371.1 340.7,372.6 342.1,370.7 401,369.2 							"/>
						</g>
						<g>
							<path class="st37" d="M414.3,388.8c-28.2,0-58,0-85.1-0.1l1.4-1.9c26.3,0,55.1,0.1,82.4,0.1L414.3,388.8z"/>
						</g>
						<g>
							<polygon class="st37" points="425.1,404.6 314.2,409.8 315.6,407.8 423.8,402.7 							"/>
						</g>
						<g>
							<polygon class="st37" points="437.4,422.6 303.6,424.5 305,422.6 436.1,420.6 							"/>
						</g>
						<g>
							<polygon class="st37" points="449.3,440 292.5,440 293.9,438 448,438 							"/>
						</g>
						<g>
							<path class="st37" d="M463.4,460.7c-57.8-1.1-133.7-2.9-182.8-4.1l1.4-1.9c57.8,1.4,127.3,3,180.1,4L463.4,460.7z"/>
						</g>
						<g>
							<polygon class="st37" points="473.3,475.1 267.4,475.1 268.8,473.2 472,473.2 							"/>
						</g>
						<g>
							<path class="st37" d="M487.3,495.6c-61.1-1.1-170-3-231.6-4.1l1.4-1.9c61.3,1.1,168,3,228.9,4.1L487.3,495.6z"/>
						</g>
						<g>
							<polygon class="st37" points="492.6,504.9 492.6,506.8 243.2,508.9 244.6,507 							"/>
						</g>
						<g>
							<polygon class="st37" points="492.6,526.1 492.6,528.1 243,519.4 243,517.5 							"/>
						</g>
						<g>
							<polygon class="st37" points="492.6,538.7 492.6,540.6 243,538.7 243,536.8 							"/>
						</g>
						<g>
							<polygon class="st37" points="492.6,562.3 492.6,564.3 243,573 243,571.1 							"/>
						</g>
						<g>
							<polygon class="st37" points="492.6,582.3 492.6,584.2 243,587 243,585.1 							"/>
						</g>
						<g>
							<polygon class="st37" points="492.6,595.9 492.6,597.8 243,602.3 243,600.4 							"/>
						</g>
						<g>
							<rect x="243" y="614.5" class="st37" width="249.6" height="1.9"/>
						</g>
						<g>
							<polygon class="st37" points="492.6,630.2 492.6,632.2 243,638.2 243,636.3 							"/>
						</g>
						<g>
							<polygon class="st37" points="492.6,552.7 492.6,554.6 243,559.2 243,557.3 							"/>
						</g>
					</g>
					<polygon class="st25" points="517.5,526.3 498.2,526.3 372.7,336.5 238.9,526.3 220.5,526.3 372.7,319.4 					"/>
					<polygon class="st26" points="510.1,526.3 498.2,526.3 372.7,336.5 238.9,526.3 228,526.3 372.7,327.9 					"/>
					<polygon class="st38" points="308.6,513.9 307.2,515.5 311.7,597.8 423.5,597.8 426.1,596.3 					"/>
					<polygon class="st28" points="432.1,513.9 428,569.7 426.1,596.3 313.3,596.3 308.6,513.9 					"/>
					<polygon class="st34" points="428,569.7 426.1,596.3 313.3,596.3 308.6,513.9 311.3,513.9 332.6,570.9 367.2,570.4 
						374.1,570.4 					"/>
					<polygon class="st29" points="427.4,519 427.2,521.1 427,522.9 425.7,534.7 425.5,536.4 422.2,566 421.3,574 419.3,592.4 
						319.1,592.4 318.8,588 318.4,581.3 318.1,575.8 317.1,560 317,557.9 316.9,556.5 315.6,533.8 315.2,527.1 314.6,517.8 
						324.3,517.9 331.4,518 355.2,518.2 356.7,518.2 358.9,518.3 375.5,518.4 381.2,518.5 388.3,518.5 					"/>
					<g class="st18">
						<polygon class="st28" points="331.4,518 315.6,533.8 315.2,527.1 324.3,517.9 						"/>
						<polygon class="st28" points="422.2,566 421.3,574 403.1,592.4 395.9,592.4 						"/>
						<polygon class="st28" points="388.3,518.5 318.8,588 318.4,581.3 381.2,518.5 						"/>
						<polygon class="st28" points="427.2,521.1 427,522.9 357.6,592.4 356,592.4 						"/>
						<polygon class="st28" points="425.7,534.7 425.5,536.4 369.6,592.4 368,592.4 						"/>
						<polygon class="st28" points="356.7,518.2 317,557.9 316.9,556.5 355.2,518.2 						"/>
						<polygon class="st28" points="375.5,518.4 318.1,575.8 317.1,560 358.9,518.3 						"/>
					</g>
					<path class="st28" d="M367.6,594.3l-0.7-35.1l-0.9-43.7h7.2c0,0,0.3,25.8,0.7,47.9c0.3,16.3,0.6,30.6,0.8,30.9
						C375.4,595.1,367.6,594.3,367.6,594.3z"/>
					<path class="st39" d="M367.6,594.3l-0.7-35.1l7,4.2c0.3,16.3,0.6,30.6,0.8,30.9C375.4,595.1,367.6,594.3,367.6,594.3z"/>
					<rect x="206.1" y="640.5" class="st19" width="325" height="7.7"/>
					<g>
						<path class="st40" d="M370.8,482.5c-3.2,0-6.3-0.6-9.3-1.7c-0.6-0.2-1.1-0.5-1.7-0.7h-0.1l-1.3-0.7c-3.3-1.7-6.2-4.3-8.5-7.2
							c-1-1.3-1.8-2.7-2.6-4.2c-1.5-3.1-2.5-6.5-2.7-10.1c-0.1-0.5-0.1-1-0.1-1.5c0-1.6,0.2-3.3,0.5-4.9
							c2.3-12.3,13.1-21.2,25.6-21.2c2.7,0,5.4,0.4,8,1.2c0.9,0.3,1.7,0.6,2.6,1c1.4,0.6,2.7,1.4,4,2.2c1.4,0.9,2.7,2.1,3.9,3.2
							c2.2,2.2,3.9,4.7,5.2,7.5c0.2,0.5,0.5,1,0.7,1.6c1.1,2.9,1.7,6.1,1.7,9.3C396.8,470.8,385.2,482.5,370.8,482.5z"/>
						<path class="st28" d="M370.8,480.2c-2.9,0-5.8-0.5-8.5-1.5c-0.7-0.3-1.3-0.6-2-0.9h-0.1l-0.8-0.4c-3-1.6-5.6-3.9-7.7-6.6
							c-0.9-1.2-1.7-2.5-2.4-3.8c-1.4-2.9-2.3-5.9-2.4-9.2c-0.1-0.5-0.1-0.9-0.1-1.3c0-1.5,0.2-3,0.4-4.5
							c2.1-11.2,12-19.3,23.3-19.3c2.5,0,4.9,0.4,7.3,1.1c0.8,0.3,1.6,0.6,2.4,0.9c1.3,0.6,2.5,1.2,3.6,2c1.3,0.9,2.5,1.8,3.6,3
							c2,2,3.6,4.3,4.7,6.8c0.2,0.5,0.4,0.9,0.6,1.4c1,2.7,1.5,5.5,1.5,8.5C394.5,469.6,383.9,480.2,370.8,480.2z"/>
						<path class="st29" d="M391.2,456.5c0,11.2-9.1,20.4-20.4,20.4c-2.6,0-5-0.5-7.3-1.3c-0.8-0.3-1.6-0.7-2.4-1.1l0,0
							c-2.6-1.4-4.8-3.3-6.6-5.7c-0.8-1-1.4-2.1-2-3.2c-1.2-2.4-1.9-5-2.1-7.8c0-0.4-0.1-0.8-0.1-1.2c0-1.3,0.1-2.6,0.4-3.8
							c1.8-9.4,10.1-16.6,20-16.6c2.2,0,4.3,0.4,6.2,1c0.7,0.2,1.4,0.5,2.1,0.8c1.1,0.5,2.2,1.1,3.1,1.7c1.1,0.8,2.2,1.6,3.1,2.6
							c1.7,1.7,3.1,3.7,4.1,5.8c0.2,0.4,0.4,0.8,0.5,1.2C390.7,451.5,391.2,453.9,391.2,456.5z"/>
						<g class="st18">
							<path class="st28" d="M385.3,442.1l-30.7,26.6c-0.8-1-1.4-2.1-2-3.2l29.6-26C383.3,440.3,384.3,441.1,385.3,442.1z"/>
							<path class="st28" d="M389.8,449.2l-26.3,26.3c-0.8-0.3-1.6-0.7-2.4-1.1l28.2-26.4C389.5,448.4,389.7,448.8,389.8,449.2z"/>
							<path class="st28" d="M379.1,437.8l-28.6,19.8c0-0.4-0.1-0.8-0.1-1.2c0-1.3,0.1-2.6,0.4-3.8L377,437
								C377.7,437.3,378.4,437.6,379.1,437.8z"/>
						</g>
					</g>
				</g>
				<g>
					<polygon class="st25" points="492.7,248.2 492.7,266.9 409.1,296.6 409.8,283.6 410,279 					"/>
					<path class="st26" d="M492.7,257.7v9.1l-83.6,29.7l0.7-12.9C434.2,275.9,471.8,264.2,492.7,257.7z"/>
				</g>
				<g>
					<polygon class="st41" points="445.7,298.4 445.7,306.6 420.9,321 420.7,312.5 					"/>
					<polygon class="st41" points="432.9,296.6 432.9,302.1 456.5,292.3 455.1,286.1 					"/>
					<polygon class="st41" points="486.9,283.1 464.5,293 464.5,286.1 486.7,278.8 					"/>
					<polygon class="st41" points="442.4,317.1 442.4,322.3 465.5,310 464.5,304.7 441,313.5 					"/>
					<polygon class="st41" points="435,333.2 435,342.1 421.9,352.1 421.6,341.2 					"/>
				</g>
			</g>
		</g>
	</g>
</g>
<ellipse transform="matrix(0.9549 -0.2968 0.2968 0.9549 -148.7759 61.2331)" class="st42" cx="127.3" cy="520.5" rx="4.2" ry="6.4"/>
<path class="st1" d="M79.6,493.2c0,0-1.3,25.4,1.3,42.4c2.5,17,5.5,33.1,5.5,33.1s7.2-5.5,11.4-3.8l-7.6-58.9L79.6,493.2z"/>
<circle class="st43" cx="106.5" cy="451.4" r="14"/>
<polygon class="st43" points="97.4,455 91.4,470.3 99.9,474.1 108.4,458.8 "/>
<path class="st42" d="M102.4,469.6L102.4,469.6c0,0-8.5-5.6-12.3-3.5l-3.4,8.1c0,0-11.9,14.8-7.2,25.9c4.7,11,15.3,23.7,15.3,23.7
	l1.3,5.9c0,0-16.5,21.6-14.8,37.7l-19.9,54.3c0,0,11,4.7,47.9,6.4s36.9,0,36.9,0s-4.7-90.3-19.1-104.7l-2.1-6.8c0,0,3-19.1-3.8-27.1
	l-2.3-4.6C115.4,477.9,109.6,472.5,102.4,469.6z"/>
<path class="st43" d="M123.6,560.6l0.8,11.4c0,0-1.3,14.8,7.2,11.9c8.5-3,1.7-19.5,1.7-19.5l-1.3-5.1L123.6,560.6z"/>
<path class="st42" d="M64.7,619.5L60,664.9c0,0-5.9,3.4-3,12.7c3,9.3,2.1,14,2.1,14l3-0.8l1.3-11.4c0,0,5,6.4,9.3,7.6
	c3,0.9,6.1,1.6,8.2-0.8c2.4-2.8,1.2-7-2.1-8.6c-0.3-0.2-0.7-0.3-1-0.4c-3-0.8-5.9-12.3-5.9-12.3l5.1-20.8l7.6-22.9L64.7,619.5z"/>
<path class="st42" d="M122.4,619.5l-4.7,45.4c0,0-5.9,3.4-3,12.7c3,9.3,2.1,14,2.1,14l3-0.8l1.3-11.4c0,0,5,6.4,9.3,7.6
	c3,0.9,6.1,1.6,8.2-0.8c2.4-2.8,1.2-7-2.1-8.6c-0.3-0.2-0.7-0.3-1-0.4c-3-0.8-5.9-12.3-5.9-12.3l5.1-20.8l7.6-22.9L122.4,619.5z"/>
<path class="st44" d="M104.6,477.5c0,0-10.2,5.9-7.2,19.5c3,13.6,23.7,71.7,23.7,71.7c3.7-3.6,9.1-4.9,14-3.4L116,491.9
	C116,491.9,117.3,475.4,104.6,477.5z"/>
<path class="st1" d="M106.3,475c0,0-10.2,5.9-7.2,19.5c3,13.6,23.7,71.7,23.7,71.7c3.7-3.6,9.1-4.9,14-3.4l-19.1-73.4
	C117.7,489.4,119,472.8,106.3,475z"/>
<path class="st42" d="M119.4,446c0,0,2.2-16.8-15.4-11.3c0,0-12.6-2.3-16.7,13.4l-4.2,16.5l2-1.1l0.9,2.1l3.3,0.8l1.4-2.8l0.7,3.4
	l27,2.7c0,0-12.1-7.1-12.3-20l2.3,2.4L119.4,446z"/>
<circle class="st42" cx="89.5" cy="434.9" r="6.8"/>
<path class="st42" d="M96.5,433.2c-0.2-3.6-3.2-6.3-6.8-6.3c0.1,0,0.3,0,0.4,0c3.7-0.2,7,2.6,7.2,6.3c0.2,3.7-2.6,7-6.3,7.2
	c-0.1,0-0.3,0-0.4,0C94.1,439.9,96.7,436.8,96.5,433.2z"/>
<ellipse class="st43" cx="106.5" cy="452.7" rx="2.1" ry="3"/>
<path id="Vector_19" class="st3" d="M524.8,108.8l6.6-5.2c-5.1-0.6-7.2,2.2-8.1,4.4c-4-1.7-8.3,0.5-8.3,0.5l13.1,4.8
	C527.4,111.5,526.3,110,524.8,108.8L524.8,108.8z"/>
<path id="Vector_20" class="st3" d="M283.7,106.8l6.6-5.2c-5.1-0.6-7.2,2.2-8.1,4.4c-4-1.7-8.3,0.5-8.3,0.5l13.1,4.8
	C286.3,109.4,285.2,107.9,283.7,106.8L283.7,106.8z"/>
<path id="Vector_21" class="st3" d="M510.4,206.8l6.6-5.2c-5.1-0.6-7.2,2.2-8.1,4.4c-4-1.7-8.3,0.5-8.3,0.5l13.1,4.8
	C513.1,209.5,511.9,207.9,510.4,206.8L510.4,206.8z"/>
</svg>
