<?xml version="1.0" encoding="utf-8"?>
<!-- Generator: Adobe Illustrator 25.0.1, SVG Export Plug-In . SVG Version: 6.00 Build 0)  -->
<svg version="1.1" id="Layer_1" xmlns="http://www.w3.org/2000/svg" xmlns:xlink="http://www.w3.org/1999/xlink" x="0px" y="0px"
	 viewBox="0 0 42.2 43.1" style="enable-background:new 0 0 42.2 43.1;" xml:space="preserve">
<style type="text/css">
	.st0{display:none;}
	.st1{display:none;fill-rule:evenodd;clip-rule:evenodd;fill:#FFFFFF;}
	.st2{display:inline;}
	.st3{fill:#FFFFFF;}
</style>
<g id="Film_01" class="st0">
</g>
<g id="New_Symbol_8" class="st0">
</g>
<g>
	<rect x="-92.4" y="-55.5" class="st1" width="288" height="144"/>
	<g>
		<g class="st0">
			<g class="st2">
				<path class="st3" d="M44.9,34.1v-6.4h2.8c1.2,0,1.8,0.5,1.8,1.5c0,0.8-0.6,1.5-1.8,1.9l2.2,3h-1.1l-2.1-2.9v-0.5
					c1.2-0.2,1.8-0.7,1.8-1.4c0-0.6-0.3-0.9-1-0.9h-1.8v5.8h-0.8V34.1z"/>
				<path class="st3" d="M55,27.6v0.7h-3.4v2.2h3.2v0.7h-3.2v2.3H55v0.7h-4.3v-6.4H55V27.6z"/>
				<path class="st3" d="M56.5,34.1h-0.9l2.7-6.4h0.9l2.8,6.4h-0.9l-0.8-2h-2.1l0.2-0.7H60l-1.2-2.9L56.5,34.1z"/>
				<path class="st3" d="M63.8,27.6v5.8h3.4v0.7H63v-6.4h0.8V27.6z"/>
				<path class="st3" d="M74.6,27.6v0.7h-3.4v2.2h3.2v0.7h-3.2v2.3h3.5v0.7h-4.3v-6.4h4.2V27.6z"/>
				<path class="st3" d="M75.8,33.9v-0.8c0.7,0.2,1.4,0.4,2.2,0.4c1.1,0,1.7-0.4,1.7-1.2c0-0.7-0.4-1-1.2-1h-0.8c-1.3,0-2-0.6-2-1.8
					c0-1.2,0.9-1.8,2.6-1.8c0.8,0,1.5,0.1,2.1,0.3v0.8c-0.6-0.2-1.3-0.4-2.1-0.4c-1.2,0-1.8,0.4-1.8,1.2c0,0.7,0.4,1,1.2,1h0.8
					c1.4,0,2.1,0.6,2.1,1.8c0,1.3-0.8,1.9-2.5,1.9C77.3,34.1,76.5,34,75.8,33.9z"/>
				<path class="st3" d="M86.1,27.6v0.7h-2v5.8h-0.8v-5.8h-2v-0.7C81.3,27.6,86.1,27.6,86.1,27.6z"/>
				<path class="st3" d="M86.6,34.1h-0.9l2.7-6.4h0.9l2.8,6.4h-0.9l-0.8-2h-2.1l0.2-0.7h1.6l-1.2-2.9L86.6,34.1z"/>
				<path class="st3" d="M96.7,27.6v0.7h-2v5.8h-0.8v-5.8h-2v-0.7C91.9,27.6,96.7,27.6,96.7,27.6z"/>
				<path class="st3" d="M101.9,27.6v0.7h-3.4v2.2h3.2v0.7h-3.2v2.3h3.5v0.7h-4.3v-6.4h4.2V27.6z"/>
			</g>
			<g class="st2">
				<path class="st3" d="M42.1,36.9l0.5,1l0.5-1h0.4l-0.7,1.3v0.7h-0.4v-0.7l-0.7-1.3H42.1z"/>
				<path class="st3" d="M45.5,38.9c-0.1,0-0.3,0-0.4-0.1c-0.1-0.1-0.2-0.1-0.3-0.2c-0.1-0.1-0.1-0.2-0.2-0.3c0-0.1-0.1-0.2-0.1-0.4
					c0-0.1,0-0.3,0.1-0.4c0-0.1,0.1-0.2,0.2-0.3c0.1-0.1,0.2-0.2,0.3-0.2c0.1-0.1,0.2-0.1,0.4-0.1c0.1,0,0.3,0,0.4,0.1
					c0.1,0.1,0.2,0.1,0.3,0.2c0.1,0.1,0.1,0.2,0.2,0.3c0,0.1,0.1,0.2,0.1,0.4c0,0.1,0,0.3-0.1,0.4c0,0.1-0.1,0.2-0.2,0.3
					c-0.1,0.1-0.2,0.2-0.3,0.2C45.8,38.9,45.7,38.9,45.5,38.9z M45,37.9c0,0.1,0,0.2,0,0.2c0,0.1,0.1,0.2,0.1,0.2
					c0,0.1,0.1,0.1,0.2,0.1c0.1,0,0.1,0.1,0.2,0.1c0.1,0,0.2,0,0.2-0.1c0.1,0,0.1-0.1,0.2-0.2c0-0.1,0.1-0.1,0.1-0.2
					c0-0.1,0-0.2,0-0.2c0-0.1,0-0.2,0-0.2c0-0.1-0.1-0.2-0.1-0.2c0-0.1-0.1-0.1-0.2-0.1c-0.1,0-0.1-0.1-0.2-0.1
					c-0.1,0-0.2,0-0.2,0.1c-0.1,0-0.1,0.1-0.2,0.2c0,0.1-0.1,0.1-0.1,0.2C45,37.7,45,37.8,45,37.9z"/>
				<path class="st3" d="M48.8,38.5c0.1,0,0.2,0,0.2-0.1c0.1,0,0.1-0.1,0.2-0.1c0-0.1,0.1-0.1,0.1-0.2c0-0.1,0-0.2,0-0.2v-1h0.4v1
					c0,0.1,0,0.3,0,0.4c0,0.1-0.1,0.2-0.2,0.3c-0.1,0.1-0.2,0.2-0.3,0.2c-0.1,0.1-0.2,0.1-0.4,0.1s-0.3,0-0.4-0.1
					c-0.1-0.1-0.2-0.1-0.3-0.2C48,38.5,48,38.4,48,38.3s0-0.2,0-0.4v-1h0.4v1c0,0.1,0,0.2,0,0.2c0,0.1,0,0.1,0.1,0.2
					c0,0.1,0.1,0.1,0.1,0.1C48.6,38.5,48.7,38.5,48.8,38.5z"/>
				<path class="st3" d="M51.1,38.9v-2H52c0.1,0,0.2,0,0.3,0.1c0.1,0,0.1,0.1,0.2,0.2c0.1,0.1,0.1,0.1,0.1,0.2c0,0.1,0,0.2,0,0.2
					c0,0.1,0,0.2-0.1,0.4c-0.1,0.1-0.2,0.2-0.3,0.2l0.5,0.7h-0.4l-0.4-0.7h-0.4v0.7C51.5,38.9,51.1,38.9,51.1,38.9z M51.5,37.9H52
					h0.1c0,0,0.1,0,0.1-0.1c0,0,0-0.1,0.1-0.1v-0.1v-0.1c0,0,0-0.1-0.1-0.1l-0.1-0.1H52h-0.5V37.9z"/>
				<path class="st3" d="M57.3,37.2h-0.6v1.6h-0.4v-1.6h-0.6v-0.3h1.7v0.3H57.3z"/>
				<path class="st3" d="M58.3,38.9l0.8-2h0.3l0.8,2h-0.4l-0.2-0.5h-0.7l-0.2,0.5H58.3z M59.3,37.3L59,38.1h0.6L59.3,37.3z"/>
				<path class="st3" d="M62.9,38.7c-0.2,0.2-0.3,0.2-0.5,0.2c-0.1,0-0.2,0-0.4-0.1c-0.1-0.1-0.2-0.1-0.3-0.2
					c-0.1-0.1-0.1-0.2-0.2-0.3c0-0.1-0.1-0.3-0.1-0.4c0-0.1,0-0.3,0.1-0.4c0-0.1,0.1-0.2,0.2-0.3c0.1-0.1,0.2-0.2,0.3-0.2
					c0.1-0.1,0.2-0.1,0.4-0.1s0.3,0,0.5,0.1c0.1,0.1,0.2,0.2,0.3,0.3l-0.3,0.2c0-0.1-0.1-0.2-0.2-0.2c-0.1-0.1-0.2-0.1-0.3-0.1
					s-0.2,0-0.2,0.1c-0.1,0-0.1,0.1-0.2,0.1c0,0.1-0.1,0.1-0.1,0.2c0,0.1,0,0.2,0,0.3s0,0.2,0,0.3s0.1,0.2,0.1,0.2
					c0.1,0.1,0.1,0.1,0.2,0.1c0.1,0,0.1,0.1,0.2,0.1c0.2,0,0.3-0.1,0.5-0.3v-0.1h-0.4v-0.3h0.7v1h-0.3V38.7z"/>
				<path class="st3" d="M64.6,38.9v-2H65v1.6h1v0.3h-1.4V38.9z"/>
				<path class="st3" d="M67.4,38.9v-2h0.4v2H67.4z"/>
				<path class="st3" d="M69.7,37.6v1.3h-0.4v-2h0.3l1,1.3v-1.3H71v2h-0.3L69.7,37.6z"/>
				<path class="st3" d="M74,38.5v0.3h-1.4v-2H74v0.3h-1v0.5h0.8V38H73v0.5H74z"/>
				<path class="st3" d="M78.4,37.4C78.4,37.4,78.3,37.4,78.4,37.4c-0.1-0.1-0.1-0.1-0.2-0.1c0,0-0.1,0-0.2-0.1c-0.1,0-0.1,0-0.2,0
					s-0.2,0-0.2,0.1c-0.1,0-0.1,0.1-0.1,0.2v0.1c0,0,0,0.1,0.1,0.1c0,0,0.1,0,0.1,0.1c0.1,0,0.1,0,0.2,0.1c0.1,0,0.2,0.1,0.3,0.1
					c0.1,0,0.1,0.1,0.2,0.1s0.1,0.1,0.1,0.2c0,0.1,0,0.1,0,0.2c0,0.1,0,0.2-0.1,0.3c0,0.1-0.1,0.1-0.2,0.2c-0.1,0-0.1,0.1-0.2,0.1
					s-0.2,0-0.3,0c-0.1,0-0.3,0-0.4-0.1c-0.1,0-0.3-0.1-0.4-0.2l0.2-0.3c0,0,0,0,0.1,0.1c0,0,0.1,0.1,0.2,0.1s0.1,0.1,0.2,0.1
					s0.1,0,0.2,0c0.2,0,0.3-0.1,0.3-0.2v-0.1L78,38.4c0,0-0.1,0-0.2-0.1c-0.1,0-0.1,0-0.2-0.1c-0.1,0-0.2-0.1-0.2-0.1
					c-0.1,0-0.1-0.1-0.2-0.1l-0.1-0.1c0-0.1,0-0.1,0-0.2c0-0.1,0-0.2,0.1-0.3c0-0.1,0.1-0.1,0.2-0.2c0.1-0.1,0.1-0.1,0.2-0.1
					s0.2,0,0.3,0c0.1,0,0.3,0,0.4,0.1c0.1,0,0.2,0.1,0.3,0.2H78.4z"/>
				<path class="st3" d="M80,38.9v-2h0.8c0.1,0,0.2,0,0.3,0.1c0.1,0,0.1,0.1,0.2,0.2c0.1,0.1,0.1,0.1,0.1,0.2c0,0.1,0,0.2,0,0.2
					c0,0.1,0,0.2,0,0.2c0,0.1-0.1,0.1-0.1,0.2c-0.1,0.1-0.1,0.1-0.2,0.1s-0.2,0.1-0.3,0.1h-0.5v0.7H80z M80.4,37.9h0.4
					c0.1,0,0.1,0,0.2-0.1c0-0.1,0.1-0.1,0.1-0.2v-0.1c0,0,0-0.1-0.1-0.1c0,0-0.1,0-0.1-0.1h-0.1h-0.4V37.9z"/>
				<path class="st3" d="M82.5,38.9l0.8-2h0.3l0.8,2H84l-0.2-0.5h-0.7L83,38.9H82.5z M83.5,37.3l-0.3,0.8h0.6L83.5,37.3z"/>
				<path class="st3" d="M85.6,37.9c0-0.1,0-0.2,0.1-0.4c0-0.1,0.1-0.2,0.2-0.3s0.2-0.2,0.3-0.2c0.1-0.1,0.3-0.1,0.4-0.1
					c0.2,0,0.3,0,0.5,0.1c0.1,0.1,0.2,0.2,0.3,0.3L87,37.5c0-0.1-0.1-0.1-0.1-0.1l-0.1-0.1h-0.1h-0.1c-0.1,0-0.2,0-0.2,0.1
					c-0.1,0-0.1,0.1-0.2,0.2c0,0.1-0.1,0.1-0.1,0.2c0,0.1,0,0.2,0,0.2c0,0.1,0,0.2,0,0.3s0.1,0.2,0.1,0.2c0,0.1,0.1,0.1,0.2,0.1
					s0.1,0.1,0.2,0.1h0.1c0,0,0.1,0,0.1-0.1l0.1-0.1l0.1-0.1l0.3,0.2c0,0.1-0.1,0.1-0.1,0.2c-0.1,0.1-0.1,0.1-0.2,0.1
					S86.9,39,86.8,39s-0.2,0-0.2,0c-0.1,0-0.3,0-0.4-0.1s-0.2-0.1-0.3-0.2c-0.1-0.1-0.1-0.2-0.2-0.3C85.7,38.1,85.6,38,85.6,37.9z"
					/>
				<path class="st3" d="M90.1,38.5v0.3h-1.4v-2h1.4v0.3h-1v0.5H90V38h-0.8v0.5H90.1z"/>
				<path class="st3" d="M95,36.9v2h-0.4V38h-0.9v0.8h-0.4v-2h0.4v0.8h0.9v-0.8H95V36.9z"/>
				<path class="st3" d="M97.9,38.5v0.3h-1.4v-2h1.4v0.3h-1v0.5h0.8V38h-0.8v0.5H97.9z"/>
				<path class="st3" d="M99.4,38.9v-2h0.9c0.1,0,0.2,0,0.3,0.1c0.1,0,0.1,0.1,0.2,0.2c0.1,0.1,0.1,0.1,0.1,0.2c0,0.1,0,0.2,0,0.2
					c0,0.1,0,0.2-0.1,0.4c-0.1,0.1-0.2,0.2-0.3,0.2l0.5,0.7h-0.4l-0.4-0.7h-0.4v0.7C99.8,38.9,99.4,38.9,99.4,38.9z M99.8,37.9h0.5
					h0.1c0,0,0.1,0,0.1-0.1c0,0,0-0.1,0.1-0.1v-0.1v-0.1c0,0,0-0.1-0.1-0.1l-0.1-0.1h-0.1h-0.5V37.9z"/>
				<path class="st3" d="M103.8,38.5v0.3h-1.4v-2h1.4v0.3h-1v0.5h0.8V38h-0.8v0.5H103.8z"/>
			</g>
		</g>
		<g>
			<g>
				<polygon class="st3" points="7.3,38.3 7.3,25.5 29.8,9.1 37.8,38.3 42.2,9.1 29.8,0 0,21.8 0,38.3 				"/>
			</g>
		</g>
	</g>
</g>
</svg>
