<?xml version="1.0" encoding="utf-8"?>
<!-- Generator: Adobe Illustrator 25.0.1, SVG Export Plug-In . SVG Version: 6.00 Build 0)  -->
<svg version="1.0" id="Layer_1" xmlns="http://www.w3.org/2000/svg" xmlns:xlink="http://www.w3.org/1999/xlink" x="0px" y="0px"
	 viewBox="0 0 242.6 43.1" enable-background="new 0 0 242.6 43.1" xml:space="preserve">
<g id="Film_01" display="none">
</g>
<g id="New_Symbol_8" display="none">
</g>
<g>
	<rect x="-92.4" y="-55.5" display="none" fill-rule="evenodd" clip-rule="evenodd" fill="#FFFFFF" width="288" height="144"/>
	<g>
		<g display="none">
			<g display="inline">
				<path fill="#FFFFFF" d="M44.9,34.1v-6.4h2.8c1.2,0,1.8,0.5,1.8,1.5c0,0.8-0.6,1.5-1.8,1.9l2.2,3h-1.1l-2.1-2.9v-0.5
					c1.2-0.2,1.8-0.7,1.8-1.4c0-0.6-0.3-0.9-1-0.9h-1.8v5.8H44.9z"/>
				<path fill="#FFFFFF" d="M55,27.6v0.7h-3.4v2.2h3.2v0.7h-3.2v2.3H55v0.7h-4.3v-6.4H55z"/>
				<path fill="#FFFFFF" d="M56.5,34.1h-0.9l2.7-6.4h0.9l2.8,6.4h-0.9l-0.8-2h-2.1l0.2-0.7H60l-1.2-2.9L56.5,34.1z"/>
				<path fill="#FFFFFF" d="M63.8,27.6v5.8h3.4v0.7h-4.2v-6.4H63.8z"/>
				<path fill="#FFFFFF" d="M74.6,27.6v0.7h-3.4v2.2h3.2v0.7h-3.2v2.3h3.5v0.7h-4.3v-6.4H74.6z"/>
				<path fill="#FFFFFF" d="M75.8,33.9v-0.8c0.7,0.2,1.4,0.4,2.2,0.4c1.1,0,1.7-0.4,1.7-1.2c0-0.7-0.4-1-1.2-1h-0.8
					c-1.3,0-2-0.6-2-1.8c0-1.2,0.9-1.8,2.6-1.8c0.8,0,1.5,0.1,2.1,0.3v0.8c-0.6-0.2-1.3-0.4-2.1-0.4c-1.2,0-1.8,0.4-1.8,1.2
					c0,0.7,0.4,1,1.2,1h0.8c1.4,0,2.1,0.6,2.1,1.8c0,1.3-0.8,1.9-2.5,1.9C77.3,34.1,76.5,34,75.8,33.9z"/>
				<path fill="#FFFFFF" d="M86.1,27.6v0.7h-2v5.8h-0.8v-5.8h-2v-0.7H86.1z"/>
				<path fill="#FFFFFF" d="M86.6,34.1h-0.9l2.7-6.4h0.9l2.8,6.4h-0.9l-0.8-2h-2.1l0.2-0.7h1.6l-1.2-2.9L86.6,34.1z"/>
				<path fill="#FFFFFF" d="M96.7,27.6v0.7h-2v5.8h-0.8v-5.8h-2v-0.7H96.7z"/>
				<path fill="#FFFFFF" d="M101.9,27.6v0.7h-3.4v2.2h3.2v0.7h-3.2v2.3h3.5v0.7h-4.3v-6.4H101.9z"/>
			</g>
			<g display="inline">
				<path fill="#FFFFFF" d="M42.1,36.9l0.5,1l0.5-1h0.4l-0.7,1.3v0.7h-0.4v-0.7l-0.7-1.3H42.1z"/>
				<path fill="#FFFFFF" d="M45.5,38.9c-0.1,0-0.3,0-0.4-0.1c-0.1-0.1-0.2-0.1-0.3-0.2c-0.1-0.1-0.1-0.2-0.2-0.3
					c0-0.1-0.1-0.2-0.1-0.4c0-0.1,0-0.3,0.1-0.4c0-0.1,0.1-0.2,0.2-0.3c0.1-0.1,0.2-0.2,0.3-0.2c0.1-0.1,0.2-0.1,0.4-0.1
					c0.1,0,0.3,0,0.4,0.1c0.1,0.1,0.2,0.1,0.3,0.2c0.1,0.1,0.1,0.2,0.2,0.3c0,0.1,0.1,0.2,0.1,0.4c0,0.1,0,0.3-0.1,0.4
					c0,0.1-0.1,0.2-0.2,0.3c-0.1,0.1-0.2,0.2-0.3,0.2C45.8,38.9,45.7,38.9,45.5,38.9z M45,37.9c0,0.1,0,0.2,0,0.2
					c0,0.1,0.1,0.2,0.1,0.2c0,0.1,0.1,0.1,0.2,0.1c0.1,0,0.1,0.1,0.2,0.1c0.1,0,0.2,0,0.2-0.1c0.1,0,0.1-0.1,0.2-0.2
					c0-0.1,0.1-0.1,0.1-0.2c0-0.1,0-0.2,0-0.2c0-0.1,0-0.2,0-0.2c0-0.1-0.1-0.2-0.1-0.2c0-0.1-0.1-0.1-0.2-0.1
					c-0.1,0-0.1-0.1-0.2-0.1c-0.1,0-0.2,0-0.2,0.1c-0.1,0-0.1,0.1-0.2,0.2c0,0.1-0.1,0.1-0.1,0.2C45,37.7,45,37.8,45,37.9z"/>
				<path fill="#FFFFFF" d="M48.8,38.5c0.1,0,0.2,0,0.2-0.1c0.1,0,0.1-0.1,0.2-0.1c0-0.1,0.1-0.1,0.1-0.2c0-0.1,0-0.2,0-0.2v-1h0.4
					v1c0,0.1,0,0.3,0,0.4c0,0.1-0.1,0.2-0.2,0.3c-0.1,0.1-0.2,0.2-0.3,0.2c-0.1,0.1-0.2,0.1-0.4,0.1c-0.2,0-0.3,0-0.4-0.1
					c-0.1-0.1-0.2-0.1-0.3-0.2c-0.1-0.1-0.1-0.2-0.1-0.3c0-0.1,0-0.2,0-0.4v-1h0.4v1c0,0.1,0,0.2,0,0.2c0,0.1,0,0.1,0.1,0.2
					c0,0.1,0.1,0.1,0.1,0.1C48.6,38.5,48.7,38.5,48.8,38.5z"/>
				<path fill="#FFFFFF" d="M51.1,38.9v-2H52c0.1,0,0.2,0,0.3,0.1c0.1,0,0.1,0.1,0.2,0.2c0.1,0.1,0.1,0.1,0.1,0.2c0,0.1,0,0.2,0,0.2
					c0,0.1,0,0.2-0.1,0.4c-0.1,0.1-0.2,0.2-0.3,0.2l0.5,0.7h-0.4l-0.4-0.7h-0.4v0.7H51.1z M51.5,37.9H52c0,0,0.1,0,0.1,0
					c0,0,0.1,0,0.1-0.1c0,0,0-0.1,0.1-0.1c0,0,0-0.1,0-0.1c0,0,0-0.1,0-0.1c0,0,0-0.1-0.1-0.1c0,0-0.1-0.1-0.1-0.1c0,0-0.1,0-0.1,0
					h-0.5V37.9z"/>
				<path fill="#FFFFFF" d="M57.3,37.2h-0.6v1.6h-0.4v-1.6h-0.6v-0.3h1.7V37.2z"/>
				<path fill="#FFFFFF" d="M58.3,38.9l0.8-2h0.3l0.8,2h-0.4l-0.2-0.5h-0.7l-0.2,0.5H58.3z M59.3,37.3L59,38.1h0.6L59.3,37.3z"/>
				<path fill="#FFFFFF" d="M62.9,38.7c-0.2,0.2-0.3,0.2-0.5,0.2c-0.1,0-0.2,0-0.4-0.1c-0.1-0.1-0.2-0.1-0.3-0.2
					c-0.1-0.1-0.1-0.2-0.2-0.3c0-0.1-0.1-0.3-0.1-0.4c0-0.1,0-0.3,0.1-0.4c0-0.1,0.1-0.2,0.2-0.3c0.1-0.1,0.2-0.2,0.3-0.2
					c0.1-0.1,0.2-0.1,0.4-0.1c0.2,0,0.3,0,0.5,0.1c0.1,0.1,0.2,0.2,0.3,0.3l-0.3,0.2c0-0.1-0.1-0.2-0.2-0.2
					c-0.1-0.1-0.2-0.1-0.3-0.1c-0.1,0-0.2,0-0.2,0.1c-0.1,0-0.1,0.1-0.2,0.1c0,0.1-0.1,0.1-0.1,0.2c0,0.1,0,0.2,0,0.3
					c0,0.1,0,0.2,0,0.3c0,0.1,0.1,0.2,0.1,0.2c0.1,0.1,0.1,0.1,0.2,0.1c0.1,0,0.1,0.1,0.2,0.1c0.2,0,0.3-0.1,0.5-0.3v-0.1h-0.4v-0.3
					h0.7v1h-0.3V38.7z"/>
				<path fill="#FFFFFF" d="M64.6,38.9v-2H65v1.6h1v0.3H64.6z"/>
				<path fill="#FFFFFF" d="M67.4,38.9v-2h0.4v2H67.4z"/>
				<path fill="#FFFFFF" d="M69.7,37.6v1.3h-0.4v-2h0.3l1,1.3v-1.3h0.4v2h-0.3L69.7,37.6z"/>
				<path fill="#FFFFFF" d="M74,38.5v0.3h-1.4v-2h1.4v0.3h-1v0.5h0.8V38H73v0.5H74z"/>
				<path fill="#FFFFFF" d="M78.4,37.4C78.4,37.4,78.3,37.4,78.4,37.4c-0.1-0.1-0.1-0.1-0.2-0.1c0,0-0.1,0-0.2-0.1
					c-0.1,0-0.1,0-0.2,0c-0.1,0-0.2,0-0.2,0.1c-0.1,0-0.1,0.1-0.1,0.2c0,0,0,0.1,0,0.1c0,0,0,0.1,0.1,0.1c0,0,0.1,0,0.1,0.1
					c0.1,0,0.1,0,0.2,0.1c0.1,0,0.2,0.1,0.3,0.1c0.1,0,0.1,0.1,0.2,0.1c0.1,0,0.1,0.1,0.1,0.2c0,0.1,0,0.1,0,0.2
					c0,0.1,0,0.2-0.1,0.3c0,0.1-0.1,0.1-0.2,0.2c-0.1,0-0.1,0.1-0.2,0.1c-0.1,0-0.2,0-0.3,0c-0.1,0-0.3,0-0.4-0.1
					c-0.1,0-0.3-0.1-0.4-0.2l0.2-0.3c0,0,0,0,0.1,0.1c0,0,0.1,0.1,0.2,0.1c0.1,0,0.1,0.1,0.2,0.1c0.1,0,0.1,0,0.2,0
					c0.2,0,0.3-0.1,0.3-0.2c0,0,0-0.1,0-0.1c0,0-0.1-0.1-0.1-0.1c0,0-0.1,0-0.2-0.1c-0.1,0-0.1,0-0.2-0.1c-0.1,0-0.2-0.1-0.2-0.1
					c-0.1,0-0.1-0.1-0.2-0.1c0,0-0.1-0.1-0.1-0.1c0-0.1,0-0.1,0-0.2c0-0.1,0-0.2,0.1-0.3c0-0.1,0.1-0.1,0.2-0.2
					c0.1-0.1,0.1-0.1,0.2-0.1c0.1,0,0.2,0,0.3,0c0.1,0,0.3,0,0.4,0.1c0.1,0,0.2,0.1,0.3,0.2L78.4,37.4z"/>
				<path fill="#FFFFFF" d="M80,38.9v-2h0.8c0.1,0,0.2,0,0.3,0.1c0.1,0,0.1,0.1,0.2,0.2c0.1,0.1,0.1,0.1,0.1,0.2c0,0.1,0,0.2,0,0.2
					c0,0.1,0,0.2,0,0.2c0,0.1-0.1,0.1-0.1,0.2c-0.1,0.1-0.1,0.1-0.2,0.1c-0.1,0-0.2,0.1-0.3,0.1h-0.5v0.7H80z M80.4,37.9h0.4
					c0.1,0,0.1,0,0.2-0.1c0-0.1,0.1-0.1,0.1-0.2c0,0,0-0.1,0-0.1c0,0,0-0.1-0.1-0.1c0,0-0.1,0-0.1-0.1c0,0-0.1,0-0.1,0h-0.4V37.9z"
					/>
				<path fill="#FFFFFF" d="M82.5,38.9l0.8-2h0.3l0.8,2H84l-0.2-0.5h-0.7L83,38.9H82.5z M83.5,37.3l-0.3,0.8h0.6L83.5,37.3z"/>
				<path fill="#FFFFFF" d="M85.6,37.9c0-0.1,0-0.2,0.1-0.4c0-0.1,0.1-0.2,0.2-0.3c0.1-0.1,0.2-0.2,0.3-0.2c0.1-0.1,0.3-0.1,0.4-0.1
					c0.2,0,0.3,0,0.5,0.1c0.1,0.1,0.2,0.2,0.3,0.3L87,37.5c0-0.1-0.1-0.1-0.1-0.1c0,0-0.1-0.1-0.1-0.1c0,0-0.1,0-0.1,0
					c0,0-0.1,0-0.1,0c-0.1,0-0.2,0-0.2,0.1c-0.1,0-0.1,0.1-0.2,0.2c0,0.1-0.1,0.1-0.1,0.2c0,0.1,0,0.2,0,0.2c0,0.1,0,0.2,0,0.3
					c0,0.1,0.1,0.2,0.1,0.2c0,0.1,0.1,0.1,0.2,0.1c0.1,0,0.1,0.1,0.2,0.1c0,0,0.1,0,0.1,0c0,0,0.1,0,0.1-0.1c0,0,0.1-0.1,0.1-0.1
					c0,0,0.1-0.1,0.1-0.1l0.3,0.2c0,0.1-0.1,0.1-0.1,0.2c-0.1,0.1-0.1,0.1-0.2,0.1c-0.1,0-0.1,0.1-0.2,0.1c-0.1,0-0.2,0-0.2,0
					c-0.1,0-0.3,0-0.4-0.1c-0.1-0.1-0.2-0.1-0.3-0.2c-0.1-0.1-0.1-0.2-0.2-0.3C85.7,38.1,85.6,38,85.6,37.9z"/>
				<path fill="#FFFFFF" d="M90.1,38.5v0.3h-1.4v-2h1.4v0.3h-1v0.5H90V38h-0.8v0.5H90.1z"/>
				<path fill="#FFFFFF" d="M95,36.9v2h-0.4V38h-0.9v0.8h-0.4v-2h0.4v0.8h0.9v-0.8H95z"/>
				<path fill="#FFFFFF" d="M97.9,38.5v0.3h-1.4v-2h1.4v0.3h-1v0.5h0.8V38h-0.8v0.5H97.9z"/>
				<path fill="#FFFFFF" d="M99.4,38.9v-2h0.9c0.1,0,0.2,0,0.3,0.1c0.1,0,0.1,0.1,0.2,0.2c0.1,0.1,0.1,0.1,0.1,0.2
					c0,0.1,0,0.2,0,0.2c0,0.1,0,0.2-0.1,0.4c-0.1,0.1-0.2,0.2-0.3,0.2l0.5,0.7h-0.4l-0.4-0.7h-0.4v0.7H99.4z M99.8,37.9h0.5
					c0,0,0.1,0,0.1,0c0,0,0.1,0,0.1-0.1c0,0,0-0.1,0.1-0.1c0,0,0-0.1,0-0.1c0,0,0-0.1,0-0.1c0,0,0-0.1-0.1-0.1c0,0-0.1-0.1-0.1-0.1
					c0,0-0.1,0-0.1,0h-0.5V37.9z"/>
				<path fill="#FFFFFF" d="M103.8,38.5v0.3h-1.4v-2h1.4v0.3h-1v0.5h0.8V38h-0.8v0.5H103.8z"/>
			</g>
		</g>
		<g>
			<g>
				<polygon fill="#FFFFFF" points="7.3,38.3 7.3,25.5 29.8,9.1 37.8,38.3 42.2,9.1 29.8,0 0,21.8 0,38.3 				"/>
			</g>
		</g>
	</g>
</g>
<g>
	<path fill="#FFFFFF" d="M55.6,33.8c-1.8,0-2.6-0.9-2.6-2.7V14.4c0-0.9,0.2-1.6,0.7-2.1s1-0.7,1.8-0.7c0.7,0,1.2,0.1,1.5,0.4
		c0.4,0.2,0.8,0.7,1.2,1.2L67,24.3v-10c0-1.8,0.9-2.6,2.6-2.6c0.9,0,1.5,0.2,1.9,0.7c0.4,0.5,0.7,1.1,0.7,1.9v17
		c0,0.8-0.2,1.4-0.6,1.9c-0.4,0.5-1,0.7-1.7,0.7c-0.7,0-1.2-0.1-1.6-0.4c-0.4-0.2-0.8-0.7-1.3-1.2l-8.8-11.1v10
		C58.2,32.9,57.3,33.8,55.6,33.8z"/>
	<path fill="#FFFFFF" d="M90.2,33.8c-0.9,0-1.6-0.2-2.1-0.8c-0.5-0.5-0.7-1.2-0.7-2.2V24l-5.9-8.5c-0.3-0.5-0.5-1-0.4-1.6
		c0.1-0.6,0.3-1.1,0.7-1.5c0.4-0.4,1.1-0.6,1.9-0.6c0.6,0,1.1,0.1,1.6,0.4c0.5,0.3,0.9,0.7,1.3,1.4l3.7,5.5l3.7-5.5
		c0.4-0.6,0.9-1.1,1.3-1.4c0.4-0.3,1-0.4,1.6-0.4c0.8,0,1.4,0.2,1.8,0.6c0.4,0.4,0.7,0.9,0.7,1.5c0,0.6-0.2,1.2-0.6,1.8L93,24v6.9
		C93,32.8,92,33.8,90.2,33.8z"/>
	<path fill="#FFFFFF" d="M112.5,33.8c-0.9,0-1.6-0.2-2.1-0.7c-0.5-0.5-0.7-1.2-0.7-2.1V14.5c0-0.9,0.2-1.7,0.7-2.1s1.2-0.7,2.1-0.7
		s1.6,0.2,2.1,0.7c0.5,0.5,0.7,1.2,0.7,2.1v5.7h8.9v-5.7c0-0.9,0.2-1.7,0.7-2.1s1.2-0.7,2.1-0.7s1.6,0.2,2.1,0.7
		c0.5,0.5,0.7,1.2,0.7,2.1v16.4c0,0.9-0.2,1.7-0.7,2.1c-0.5,0.5-1.2,0.7-2.1,0.7c-0.9,0-1.6-0.2-2.1-0.7c-0.5-0.5-0.7-1.2-0.7-2.1
		v-6h-8.9v6c0,0.9-0.2,1.7-0.7,2.1C114.1,33.5,113.4,33.8,112.5,33.8z"/>
	<path fill="#FFFFFF" d="M142.8,33.5c-2,0-2.9-1-2.9-2.9V14.8c0-1.9,1-2.9,2.9-2.9h10.4c1.5,0,2.2,0.7,2.2,2.1
		c0,1.5-0.7,2.2-2.2,2.2h-7.9v4.1h7.3c1.5,0,2.2,0.7,2.2,2.2c0,1.4-0.7,2.2-2.2,2.2h-7.3v4.4h7.9c1.5,0,2.2,0.7,2.2,2.2
		c0,1.4-0.7,2.2-2.2,2.2H142.8z"/>
	<path fill="#FFFFFF" d="M167.4,33.8c-0.8,0-1.4-0.2-1.9-0.7c-0.4-0.4-0.7-1.1-0.7-1.9v-17c0-0.8,0.2-1.5,0.7-1.9
		c0.5-0.4,1.1-0.7,2-0.7c0.7,0,1.3,0.1,1.7,0.4c0.4,0.3,0.8,0.7,1.2,1.4l6,10.9l6-10.9c0.4-0.6,0.8-1.1,1.2-1.4
		c0.4-0.3,1-0.4,1.7-0.4c0.8,0,1.4,0.2,1.9,0.7c0.4,0.4,0.7,1.1,0.7,1.9v17c0,0.8-0.2,1.4-0.6,1.9s-1.1,0.7-1.9,0.7
		c-0.8,0-1.4-0.2-1.9-0.7c-0.4-0.4-0.7-1.1-0.7-1.9v-9.4l-4.3,7.5c-0.3,0.4-0.6,0.8-0.9,1c-0.3,0.2-0.7,0.3-1.3,0.3
		c-0.5,0-0.9-0.1-1.3-0.3c-0.3-0.2-0.6-0.6-0.9-1l-4.3-7.3v9.3c0,0.8-0.2,1.4-0.6,1.9S168.2,33.8,167.4,33.8z"/>
	<path fill="#FFFFFF" d="M200.8,33.5c-1.6,0-2.3-0.8-2.3-2.3c0-1.5,0.8-2.3,2.3-2.3h2.8V18l-1.9,1.1c-0.5,0.3-1,0.5-1.5,0.4
		c-0.5-0.1-0.9-0.3-1.2-0.6c-0.3-0.3-0.5-0.7-0.6-1.2c-0.1-0.5-0.1-0.9,0.1-1.4c0.2-0.5,0.6-0.9,1.1-1.2l4.2-2.6
		c0.9-0.6,1.9-0.9,2.9-0.9c0.8,0,1.4,0.2,1.8,0.6s0.6,1,0.6,1.7v15h2.4c1.6,0,2.3,0.8,2.3,2.3c0,1.5-0.8,2.3-2.3,2.3H200.8z"/>
	<path fill="#FFFFFF" d="M229.6,33.8c-1,0-2-0.1-3.1-0.3c-1.1-0.2-2.1-0.6-3-1c-0.6-0.3-0.9-0.7-1.1-1.1c-0.2-0.5-0.3-0.9-0.2-1.4
		c0.1-0.5,0.2-0.9,0.5-1.2c0.3-0.4,0.7-0.6,1.1-0.7s1,0,1.5,0.2c0.7,0.3,1.4,0.6,2.1,0.7c0.7,0.2,1.4,0.2,2,0.2c1,0,1.8-0.2,2.4-0.7
		c0.6-0.4,0.9-1.1,0.9-1.9c0-0.8-0.3-1.4-0.8-1.9c-0.6-0.5-1.3-0.7-2.2-0.7c-0.4,0-0.9,0.1-1.3,0.2c-0.5,0.1-1,0.4-1.5,0.7
		c-0.2,0.1-0.6,0.3-0.9,0.4c-0.4,0.2-0.8,0.2-1.2,0.2c-1.4,0-2.1-0.7-2.1-2v-9.2c0-1.6,0.8-2.4,2.4-2.4h9.6c1.6,0,2.4,0.8,2.4,2.3
		c0,1.5-0.8,2.3-2.4,2.3h-6.7v3.8c0.9-0.5,2-0.7,3.2-0.7c1.4,0,2.6,0.3,3.6,0.9c1,0.6,1.9,1.4,2.4,2.4s0.9,2.3,0.9,3.6
		c0,1.5-0.3,2.8-1,3.9c-0.7,1.1-1.7,2-2.9,2.6C232.8,33.5,231.3,33.8,229.6,33.8z"/>
</g>
</svg>
